<svg width="159" height="126" viewBox="0 0 159 126" fill="none" xmlns="http://www.w3.org/2000/svg">
<path d="M158.402 4.99999V33.3957C158.402 35.6049 156.611 37.3957 154.402 37.3957H121.637C121.183 37.3957 120.742 37.5503 120.387 37.834L108.68 47.1995C107.984 47.7568 106.961 47.1921 107.062 46.3057L107.822 39.6215C107.957 38.4351 107.029 37.3957 105.835 37.3957H102.386C100.177 37.3957 98.3864 35.6049 98.3864 33.3957V18.8053V5C98.3864 2.79086 100.177 1 102.386 1H132.681H154.402C156.611 1 158.402 2.79086 158.402 4.99999Z" fill="#FFCE3A" stroke="#4657AE" stroke-linecap="round"/>
<path d="M144.854 20.6829C145.229 21.2638 145.609 21.8448 145.994 22.4257C146.369 23.0066 146.749 23.5875 147.134 24.1684C147.207 24.2698 147.306 24.3759 147.431 24.4865C147.556 24.588 147.722 24.6387 147.93 24.6387C148.149 24.6387 148.341 24.5649 148.508 24.4174C148.675 24.2698 148.758 24.1039 148.758 23.9194C148.758 23.8457 148.747 23.7765 148.727 23.712C148.695 23.6382 148.664 23.5783 148.633 23.5322C148.164 22.8406 147.701 22.1583 147.243 21.4851C146.785 20.812 146.322 20.1343 145.854 19.452L148.399 15.7313C148.472 15.6022 148.508 15.4732 148.508 15.3441C148.508 15.1596 148.43 14.9983 148.274 14.86C148.107 14.7124 147.915 14.6387 147.696 14.6387C147.498 14.6387 147.327 14.694 147.181 14.8046C147.035 14.9153 146.915 15.0444 146.822 15.1919L144.854 18.2071L142.887 15.1919C142.804 15.0721 142.689 14.9522 142.544 14.8323C142.387 14.7124 142.205 14.6479 141.997 14.6387C141.789 14.6387 141.607 14.7078 141.451 14.8461C141.284 14.9845 141.201 15.155 141.201 15.3579C141.201 15.4593 141.237 15.5838 141.31 15.7313L143.84 19.452L141.076 23.5322C141.045 23.5783 141.019 23.6382 140.998 23.712C140.967 23.7765 140.951 23.8457 140.951 23.9194C140.951 24.1039 141.034 24.2698 141.201 24.4174C141.367 24.5649 141.555 24.6387 141.763 24.6387C141.971 24.6387 142.138 24.5926 142.263 24.5004C142.387 24.3989 142.492 24.2883 142.575 24.1684L144.854 20.6829Z" fill="#4657AE"/>
<path d="M134.123 20.6829C134.498 21.2638 134.878 21.8448 135.263 22.4257C135.638 23.0066 136.018 23.5875 136.403 24.1684C136.476 24.2698 136.575 24.3759 136.7 24.4865C136.825 24.588 136.991 24.6387 137.199 24.6387C137.418 24.6387 137.61 24.5649 137.777 24.4174C137.943 24.2698 138.027 24.1039 138.027 23.9194C138.027 23.8457 138.016 23.7765 137.996 23.712C137.964 23.6382 137.933 23.5783 137.902 23.5322C137.433 22.8406 136.97 22.1583 136.512 21.4851C136.054 20.812 135.591 20.1343 135.123 19.452L137.668 15.7313C137.741 15.6022 137.777 15.4732 137.777 15.3441C137.777 15.1596 137.699 14.9983 137.543 14.86C137.376 14.7124 137.184 14.6387 136.965 14.6387C136.767 14.6387 136.596 14.694 136.45 14.8046C136.304 14.9153 136.184 15.0444 136.091 15.1919L134.123 18.2071L132.156 15.1919C132.073 15.0721 131.958 14.9522 131.813 14.8323C131.656 14.7124 131.474 14.6479 131.266 14.6387C131.058 14.6387 130.876 14.7078 130.72 14.8461C130.553 14.9845 130.47 15.155 130.47 15.3579C130.47 15.4593 130.506 15.5838 130.579 15.7313L133.108 19.452L130.345 23.5322C130.314 23.5783 130.288 23.6382 130.267 23.712C130.236 23.7765 130.22 23.8457 130.22 23.9194C130.22 24.1039 130.303 24.2698 130.47 24.4174C130.636 24.5649 130.824 24.6387 131.032 24.6387C131.24 24.6387 131.407 24.5926 131.531 24.5004C131.656 24.3989 131.76 24.2883 131.844 24.1684L134.123 20.6829Z" fill="#4657AE"/>
<path d="M123.392 20.6829C123.767 21.2638 124.147 21.8448 124.532 22.4257C124.907 23.0066 125.287 23.5875 125.672 24.1684C125.745 24.2698 125.844 24.3759 125.969 24.4865C126.093 24.588 126.26 24.6387 126.468 24.6387C126.687 24.6387 126.879 24.5649 127.046 24.4174C127.212 24.2698 127.296 24.1039 127.296 23.9194C127.296 23.8457 127.285 23.7765 127.264 23.712C127.233 23.6382 127.202 23.5783 127.171 23.5322C126.702 22.8406 126.239 22.1583 125.781 21.4851C125.323 20.812 124.86 20.1343 124.392 19.452L126.937 15.7313C127.009 15.6022 127.046 15.4732 127.046 15.3441C127.046 15.1596 126.968 14.9983 126.812 14.86C126.645 14.7124 126.453 14.6387 126.234 14.6387C126.036 14.6387 125.864 14.694 125.719 14.8046C125.573 14.9153 125.453 15.0444 125.36 15.1919L123.392 18.2071L121.425 15.1919C121.342 15.0721 121.227 14.9522 121.081 14.8323C120.925 14.7124 120.743 14.6479 120.535 14.6387C120.327 14.6387 120.145 14.7078 119.988 14.8461C119.822 14.9845 119.739 15.155 119.739 15.3579C119.739 15.4593 119.775 15.5838 119.848 15.7313L122.377 19.452L119.614 23.5322C119.583 23.5783 119.557 23.6382 119.536 23.712C119.504 23.7765 119.489 23.8457 119.489 23.9194C119.489 24.1039 119.572 24.2698 119.739 24.4174C119.905 24.5649 120.093 24.6387 120.301 24.6387C120.509 24.6387 120.676 24.5926 120.8 24.5004C120.925 24.3989 121.029 24.2883 121.113 24.1684L123.392 20.6829Z" fill="#4657AE"/>
<path d="M112.661 20.6829C113.036 21.2638 113.416 21.8448 113.801 22.4257C114.176 23.0066 114.556 23.5875 114.941 24.1684C115.014 24.2698 115.113 24.3759 115.237 24.4865C115.362 24.588 115.529 24.6387 115.737 24.6387C115.956 24.6387 116.148 24.5649 116.315 24.4174C116.481 24.2698 116.565 24.1039 116.565 23.9194C116.565 23.8457 116.554 23.7765 116.533 23.712C116.502 23.6382 116.471 23.5783 116.44 23.5322C115.971 22.8406 115.508 22.1583 115.05 21.4851C114.592 20.812 114.129 20.1343 113.661 19.452L116.206 15.7313C116.278 15.6022 116.315 15.4732 116.315 15.3441C116.315 15.1596 116.237 14.9983 116.081 14.86C115.914 14.7124 115.722 14.6387 115.503 14.6387C115.305 14.6387 115.133 14.694 114.988 14.8046C114.842 14.9153 114.722 15.0444 114.629 15.1919L112.661 18.2071L110.694 15.1919C110.611 15.0721 110.496 14.9522 110.35 14.8323C110.194 14.7124 110.012 14.6479 109.804 14.6387C109.596 14.6387 109.414 14.7078 109.257 14.8461C109.091 14.9845 109.008 15.155 109.008 15.3579C109.008 15.4593 109.044 15.5838 109.117 15.7313L111.646 19.452L108.883 23.5322C108.851 23.5783 108.825 23.6382 108.805 23.712C108.773 23.7765 108.758 23.8457 108.758 23.9194C108.758 24.1039 108.841 24.2698 109.008 24.4174C109.174 24.5649 109.362 24.6387 109.57 24.6387C109.778 24.6387 109.944 24.5926 110.069 24.5004C110.194 24.3989 110.298 24.2883 110.382 24.1684L112.661 20.6829Z" fill="#4657AE"/>
<path d="M127.692 124.698H27.5563M0.792969 124.698H23.4738" stroke="#4657AE" stroke-linecap="round"/>
<path d="M35.854 42.7567C38.6694 29.3969 49.9321 18.5518 63.3975 18.5518C67.0432 18.5518 70.5275 19.3468 73.7263 20.7714M35.854 42.7567C37.6978 42.7567 39.1928 44.2512 39.1928 46.095V56.9455C39.1928 58.7894 37.6981 60.2841 35.8542 60.2841C34.0104 60.2841 32.5156 58.7894 32.5156 56.9455V46.095C32.5156 44.2512 34.0101 42.7567 35.854 42.7567ZM76.1856 22.0213C76.5173 22.2116 76.8453 22.4089 77.1693 22.6129M79.1367 23.9706C85.0295 28.4102 89.3441 35.1789 90.9411 42.7567M90.9411 42.7567C92.7849 42.7567 94.2788 44.2512 94.2788 46.095V56.9455C94.2788 58.7894 92.7841 60.2841 90.9402 60.2841C89.0963 60.2841 87.6016 58.7894 87.6016 56.9455V46.095C87.6016 44.2512 89.0972 42.7567 90.9411 42.7567ZM35.7229 60.2845C38.2745 71.7669 47.0541 73.6833 58.3015 72.6511M63.9644 71.6448C64.0621 72.6897 62.9306 73.6624 61.437 73.8174C59.9434 73.9724 58.6534 73.2509 58.5557 72.206C58.458 71.1611 59.5896 70.1884 61.0831 70.0335C62.5767 69.8785 63.8667 70.5999 63.9644 71.6448Z" stroke="#4657AE" stroke-linecap="round" stroke-linejoin="round"/>
<path d="M74.7796 78.4282C74.7796 78.1521 74.5557 77.9282 74.2796 77.9282C74.0034 77.9282 73.7796 78.1521 73.7796 78.4282H74.7796ZM74.2796 84.5438H73.7796H74.2796ZM74.7904 86.7077L74.3432 86.9313L74.7904 86.7077ZM74.7396 87.7241C74.8631 87.9711 75.1634 88.0712 75.4104 87.9478C75.6574 87.8243 75.7575 87.5239 75.634 87.2769L74.7396 87.7241ZM53.9132 78.4282C53.9132 78.1521 53.6894 77.9282 53.4132 77.9282C53.1371 77.9282 52.9132 78.1521 52.9132 78.4282H53.9132ZM53.4132 84.5438H53.9132H53.4132ZM52.9024 86.7077L53.3496 86.9313L52.9024 86.7077ZM52.0588 87.2769C51.9353 87.5239 52.0354 87.8243 52.2824 87.9478C52.5294 88.0712 52.8297 87.9711 52.9532 87.7241L52.0588 87.2769ZM11.2064 122.724C11.1189 122.986 11.2603 123.269 11.5222 123.357C11.7841 123.444 12.0673 123.303 12.1548 123.041L11.2064 122.724ZM25.8284 94.4856L25.5524 94.0686L25.8284 94.4856ZM100.05 94.4856L99.774 94.9025L100.05 94.4856ZM113.724 123.041C113.811 123.303 114.094 123.444 114.356 123.357C114.618 123.269 114.759 122.986 114.672 122.724L113.724 123.041ZM50.9506 84.3267C51.2019 84.2123 51.313 83.9159 51.1986 83.6645C51.0842 83.4132 50.7877 83.3021 50.5364 83.4165L50.9506 84.3267ZM77.0748 83.434C76.833 83.3004 76.5288 83.3881 76.3953 83.6298C76.2618 83.8715 76.3495 84.1757 76.5912 84.3093L77.0748 83.434ZM44.8409 87.5005C44.8409 87.2244 44.6171 87.0005 44.3409 87.0005C44.0648 87.0005 43.8409 87.2244 43.8409 87.5005H44.8409ZM71.9934 98.2387C72.265 98.1888 72.4447 97.9281 72.3948 97.6565C72.3449 97.3849 72.0842 97.2052 71.8126 97.2552L71.9934 98.2387ZM75.2953 96.7863L75.4722 97.254C75.7304 97.1562 75.8606 96.8678 75.763 96.6095C75.6654 96.3513 75.3769 96.221 75.1187 96.3185L75.2953 96.7863ZM74.4472 97.1065L74.2706 96.6387C74.0177 96.7342 73.8865 97.0133 73.9743 97.2689C74.0621 97.5246 74.3372 97.6641 74.5953 97.5841L74.4472 97.1065ZM83.8443 88.2279C83.8923 87.9559 83.7108 87.6966 83.4388 87.6486C83.1669 87.6005 82.9075 87.7821 82.8595 88.054L83.8443 88.2279ZM77.171 95.0787C76.9301 95.2137 76.8443 95.5185 76.9793 95.7594C77.1143 96.0003 77.419 96.0861 77.6599 95.9511L77.171 95.0787ZM35.9668 116.417C35.9973 116.142 35.7995 115.895 35.525 115.865C35.2506 115.834 35.0034 116.032 34.9729 116.307L35.9668 116.417ZM34.1348 123.849C34.1043 124.124 34.3021 124.371 34.5765 124.402C34.851 124.432 35.0982 124.234 35.1287 123.96L34.1348 123.849ZM92.2947 116.307C92.2642 116.032 92.017 115.834 91.7425 115.865C91.4681 115.895 91.2703 116.142 91.3008 116.417L92.2947 116.307ZM92.1389 123.96C92.1694 124.234 92.4166 124.432 92.691 124.402C92.9655 124.371 93.1633 124.124 93.1328 123.849L92.1389 123.96ZM73.7796 78.4282V84.5438H74.7796V78.4282H73.7796ZM74.3432 86.9313L74.7396 87.7241L75.634 87.2769L75.2376 86.4841L74.3432 86.9313ZM73.7796 84.5438C73.7796 85.3726 73.9725 86.19 74.3432 86.9313L75.2376 86.4841C74.9364 85.8817 74.7796 85.2174 74.7796 84.5438H73.7796ZM52.9132 78.4282V84.5438H53.9132V78.4282H52.9132ZM52.4552 86.4841L52.0588 87.2769L52.9532 87.7241L53.3496 86.9313L52.4552 86.4841ZM52.9132 84.5438C52.9132 85.2174 52.7564 85.8817 52.4552 86.4841L53.3496 86.9313C53.7203 86.19 53.9132 85.3726 53.9132 84.5438H52.9132ZM12.1548 123.041C13.269 119.706 14.0085 116.722 14.6647 114.019C15.3227 111.308 15.8933 108.897 16.6727 106.669C18.2177 102.253 20.5821 98.5581 26.1044 94.9025L25.5524 94.0686C19.837 97.8521 17.3414 101.729 15.7288 106.339C14.9295 108.624 14.3469 111.089 13.693 113.783C13.0373 116.484 12.3061 119.432 11.2064 122.724L12.1548 123.041ZM99.774 94.9025C105.296 98.5581 107.661 102.253 109.206 106.669C109.985 108.897 110.556 111.308 111.214 114.019C111.87 116.722 112.609 119.706 113.724 123.041L114.672 122.724C113.572 119.432 112.841 116.484 112.185 113.783C111.531 111.089 110.949 108.624 110.15 106.339C108.537 101.729 106.041 97.8521 100.326 94.0686L99.774 94.9025ZM26.1044 94.9025C29.3644 92.7445 33.1375 91.2033 37.3318 89.6467C41.5134 88.0949 46.113 86.5281 50.9506 84.3267L50.5364 83.4165C45.7418 85.5984 41.1959 87.1461 36.9839 88.7092C32.7847 90.2676 28.9164 91.8417 25.5524 94.0686L26.1044 94.9025ZM76.5912 84.3093C80.5936 86.5204 84.7772 88.0904 88.7508 89.6436C92.7389 91.2025 96.5122 92.7433 99.774 94.9025L100.326 94.0686C96.9637 91.8429 93.0956 90.2683 89.1148 88.7123C85.1195 87.1505 81.0065 85.6061 77.0748 83.434L76.5912 84.3093ZM64.3714 97.8873C58.2822 97.8873 53.3675 96.3856 49.9907 94.3186C46.5856 92.2342 44.8409 89.645 44.8409 87.5005H43.8409C43.8409 90.1591 45.9429 93.0133 49.4686 95.1715C53.0228 97.3471 58.1232 98.8873 64.3714 98.8873V97.8873ZM71.8126 97.2552C69.982 97.5916 66.6574 97.8873 64.3714 97.8873V98.8873C66.7113 98.8873 70.0969 98.5873 71.9934 98.2387L71.8126 97.2552ZM75.1183 96.3187C74.6459 96.4975 74.7283 96.4959 74.2991 96.629L74.5953 97.5841C75.0456 97.4444 75.1279 97.3843 75.4722 97.254L75.1183 96.3187ZM74.6238 97.5743L75.4719 97.2541L75.1187 96.3185L74.2706 96.6387L74.6238 97.5743ZM82.8595 88.054C82.4332 90.4683 80.6506 93.1287 77.171 95.0787L77.6599 95.9511C81.3477 93.8843 83.356 90.993 83.8443 88.2279L82.8595 88.054ZM34.9729 116.307L34.1348 123.849L35.1287 123.96L35.9668 116.417L34.9729 116.307ZM91.3008 116.417L92.1389 123.96L93.1328 123.849L92.2947 116.307L91.3008 116.417Z" fill="#4657AE"/>
<rect x="66.1211" y="103.168" width="19.9591" height="12.7013" rx="2" fill="#FFCE3A" stroke="#4657AE" stroke-linecap="round" stroke-linejoin="round"/>
<path d="M79.7798 107.704L69.75 107.704M74.3404 110.426L69.754 110.426" stroke="#4657AE" stroke-linecap="round"/>
<path d="M85.5445 41.2327C75.8674 45.0933 63.8861 48.924 49.8103 36.9133C45.8514 40.7739 44.092 41.2028 41.0129 42.0608M76.9997 53.9339C76.9997 53.9339 75.1853 53.0267 73.3708 53.0267C71.5563 53.0267 69.7419 53.9339 69.7419 53.9339M57.0406 53.9339C57.0406 53.9339 55.2262 53.0267 53.4117 53.0267C51.5972 53.0267 49.7828 53.9339 49.7828 53.9339M75.1853 67.5424C75.1853 67.5424 71.2539 76.6147 63.3912 76.6147C55.5286 76.6147 51.5972 67.5424 51.5972 67.5424H75.1853ZM86.9801 52.1195C86.9801 74.3466 68.3819 82.0581 63.3921 82.0581C58.4023 82.0581 39.3505 74.3466 39.8041 52.1195C39.8041 34.4285 49.822 24.4489 63.3921 24.4489C76.9622 24.4489 86.9801 33.9748 86.9801 52.1195Z" stroke="#4657AE" stroke-linecap="round" stroke-linejoin="round"/>
</svg>
