<svg width="42" height="27" viewBox="0 0 42 27" fill="none" xmlns="http://www.w3.org/2000/svg">
<path d="M1 19.3333V18.8333C0.723858 18.8333 0.5 19.0572 0.5 19.3333H1ZM1 7.66671H0.5C0.5 7.94285 0.723858 8.16671 1 8.16671V7.66671ZM41 7.66671V8.16671C41.2761 8.16671 41.5 7.94285 41.5 7.66671H41ZM41 19.3333H41.5C41.5 19.0572 41.2761 18.8333 41 18.8333V19.3333ZM33 0.5C32.7239 0.5 32.5 0.723858 32.5 1C32.5 1.27614 32.7239 1.5 33 1.5V0.5ZM29 0.5C28.7239 0.5 28.5 0.723858 28.5 1C28.5 1.27614 28.7239 1.5 29 1.5V0.5ZM29.8 1.5C30.0761 1.5 30.3 1.27614 30.3 1C30.3 0.723858 30.0761 0.5 29.8 0.5V1.5ZM25.8 1.5C26.0761 1.5 26.3 1.27614 26.3 1C26.3 0.723858 26.0761 0.5 25.8 0.5V1.5ZM38.6 25.5H3.4V26.5H38.6V25.5ZM1.5 23.5V19.3333H0.5V23.5H1.5ZM1.5 7.66671V3.5H0.5V7.66671H1.5ZM40.5 3.49999V7.66671H41.5V3.49999H40.5ZM40.5 19.3333V23.5H41.5V19.3333H40.5ZM33 1.5H38.6V0.5H33V1.5ZM29 1.5H29.8V0.5H29V1.5ZM3.4 1.5H25.8V0.5H3.4V1.5ZM3.4 25.5C2.3697 25.5 1.5 24.624 1.5 23.5H0.5C0.5 25.1374 1.77933 26.5 3.4 26.5V25.5ZM38.6 26.5C40.2207 26.5 41.5 25.1374 41.5 23.5H40.5C40.5 24.624 39.6303 25.5 38.6 25.5V26.5ZM41.5 3.49999C41.5 1.86258 40.2207 0.5 38.6 0.5V1.5C39.6303 1.5 40.5 2.376 40.5 3.49999H41.5ZM1.5 3.5C1.5 2.376 2.3697 1.5 3.4 1.5V0.5C1.77933 0.5 0.5 1.86258 0.5 3.5H1.5ZM6.1 13.5C6.1 16.4649 3.79761 18.8333 1 18.8333V19.8333C4.38798 19.8333 7.1 16.9783 7.1 13.5H6.1ZM1 8.16671C3.79762 8.16671 6.1 10.535 6.1 13.5H7.1C7.1 10.0216 4.38797 7.16671 1 7.16671V8.16671ZM41 18.8333C38.2024 18.8333 35.9 16.4649 35.9 13.5H34.9C34.9 16.9783 37.612 19.8333 41 19.8333V18.8333ZM35.9 13.5C35.9 10.535 38.2024 8.16671 41 8.16671V7.16671C37.612 7.16671 34.9 10.0216 34.9 13.5H35.9Z" fill="#4657AE"/>
<path d="M10.6016 4.125V22.875" stroke="#4657AE" stroke-linecap="round" stroke-linejoin="round" stroke-dasharray="2 2"/>
<rect x="13.8008" y="5.20801" width="1.56533" height="15.9998" fill="#4657AE"/>
<rect x="23.9759" y="5.20801" width="1.56533" height="15.9998" fill="#4657AE"/>
<rect x="16.1484" y="5.20801" width="0.782665" height="15.9998" fill="#4657AE"/>
<rect x="20.8429" y="5.20801" width="0.782665" height="15.9998" fill="#4657AE"/>
<rect x="31.0195" y="5.20801" width="0.782665" height="15.9998" fill="#4657AE"/>
<rect x="26.3246" y="5.20801" width="0.782665" height="15.9998" fill="#4657AE"/>
<rect x="22.4102" y="5.20801" width="0.782665" height="15.9998" fill="#4657AE"/>
<rect x="17.714" y="5.20801" width="2.34799" height="15.9998" fill="#4657AE"/>
<rect x="27.8906" y="5.20801" width="2.34799" height="15.9998" fill="#4657AE"/>
</svg>
