<svg width="104" height="104" viewBox="0 0 104 104" fill="none" xmlns="http://www.w3.org/2000/svg">
<path d="M63.5555 32.3555C63.7486 31.6168 63.3623 33.0943 63.5555 32.3555C63.5555 27.2499 59.352 23.1111 54.1666 23.1111C48.9812 23.1111 44.7777 27.2499 44.7777 32.3555C44.7777 32.3555 45.8253 31.3815 46.2221 31.0555C46.9498 30.4579 47.4461 30.3333 49.111 30.3333C49.8332 30.3333 52.7221 30.7997 56.3332 31.7777C61.3888 33.147 63.5555 32.3555 63.5555 32.3555Z" fill="#FFCE3A"/>
<path d="M63.5555 32.3555C63.3623 33.0943 63.7486 31.6168 63.5555 32.3555ZM63.5555 32.3555C63.5555 27.2499 59.352 23.1111 54.1666 23.1111C48.9812 23.1111 44.7777 27.2499 44.7777 32.3555C44.7777 32.3555 45.8253 31.3815 46.2221 31.0555C46.9498 30.4579 47.4461 30.3333 49.111 30.3333C49.8332 30.3333 52.7221 30.7997 56.3332 31.7777C61.3888 33.147 63.5555 32.3555 63.5555 32.3555Z" stroke="#4657AE"/>
<ellipse cx="62.8333" cy="22.3889" rx="9.38889" ry="9.38889" fill="#FFCE3A" stroke="#4657AE"/>
<ellipse cx="29.6112" cy="10.8333" rx="9.38889" ry="9.38889" fill="#FFCE3A" stroke="#4657AE"/>
<ellipse cx="54.1666" cy="15.1666" rx="9.38889" ry="9.38889" fill="#FFCE3A" stroke="#4657AE"/>
<path d="M81.3889 60.6667C81.3889 60.3905 81.165 60.1667 80.8889 60.1667C80.6128 60.1667 80.3889 60.3905 80.3889 60.6667H81.3889ZM80.3889 72.2222C80.3889 72.4984 80.6128 72.7222 80.8889 72.7222C81.165 72.7222 81.3889 72.4984 81.3889 72.2222H80.3889ZM86.6667 66.9444C86.9428 66.9444 87.1667 66.7206 87.1667 66.4444C87.1667 66.1683 86.9428 65.9444 86.6667 65.9444V66.9444ZM75.1111 65.9444C74.835 65.9444 74.6111 66.1683 74.6111 66.4444C74.6111 66.7206 74.835 66.9444 75.1111 66.9444V65.9444ZM89.557 54.8889L89.8573 54.4891C89.6416 54.3271 89.3363 54.3654 89.1673 54.5756C88.9983 54.7859 89.0265 55.0923 89.2311 55.2681L89.557 54.8889ZM91 56.129L90.6741 56.5082C90.8787 56.6841 91.1859 56.6659 91.3683 56.4672C91.5508 56.2685 91.5427 55.9608 91.35 55.772L91 56.129ZM85.0724 53.1383C85.3359 53.221 85.6165 53.0745 85.6993 52.8111C85.782 52.5476 85.6355 52.267 85.3721 52.1842L85.0724 53.1383ZM94.5896 60.4665C94.4791 60.2134 94.1843 60.0979 93.9313 60.2085C93.6782 60.3191 93.5627 60.6138 93.6733 60.8669L94.5896 60.4665ZM80.3889 60.6667V66.4444H81.3889V60.6667H80.3889ZM80.3889 66.4444V72.2222H81.3889V66.4444H80.3889ZM86.6667 65.9444H80.8889V66.9444H86.6667V65.9444ZM80.8889 65.9444L75.1111 65.9444V66.9444L80.8889 66.9444V65.9444ZM94.8334 66.4444C94.8334 74.1458 88.5902 80.3889 80.8889 80.3889V81.3889C89.1425 81.3889 95.8334 74.698 95.8334 66.4444H94.8334ZM80.8889 80.3889C73.1876 80.3889 66.9445 74.1458 66.9445 66.4444H65.9445C65.9445 74.698 72.6353 81.3889 80.8889 81.3889V80.3889ZM66.9445 66.4444C66.9445 58.7431 73.1876 52.5 80.8889 52.5V51.5C72.6353 51.5 65.9445 58.1909 65.9445 66.4444H66.9445ZM89.2566 55.2886C89.7472 55.6572 90.2126 56.0573 90.65 56.4861L91.35 55.772C90.8815 55.3127 90.3829 54.884 89.8573 54.4891L89.2566 55.2886ZM89.2311 55.2681L90.6741 56.5082L91.3259 55.7498L89.8829 54.5097L89.2311 55.2681ZM80.8889 52.5C82.3472 52.5 83.7524 52.7237 85.0724 53.1383L85.3721 52.1842C83.9562 51.7395 82.4501 51.5 80.8889 51.5V52.5ZM93.6733 60.8669C94.4193 62.5742 94.8334 64.4603 94.8334 66.4444H95.8334C95.8334 64.32 95.3897 62.2978 94.5896 60.4665L93.6733 60.8669Z" fill="#4657AE"/>
<path d="M85.7221 81.4199C85.7221 81.1438 85.4983 80.9199 85.2221 80.9199C84.946 80.9199 84.7221 81.1438 84.7221 81.4199H85.7221ZM63.7791 48.6639C63.5321 48.5404 63.2317 48.6406 63.1082 48.8875C62.9847 49.1345 63.0849 49.4349 63.3318 49.5584L63.7791 48.6639ZM71.2201 55.3033C71.449 55.4578 71.7598 55.3976 71.9143 55.1687C72.0688 54.9398 72.0085 54.629 71.7797 54.4745L71.2201 55.3033ZM23.4064 61.8507C23.2626 62.0865 23.3371 62.3942 23.5728 62.538C23.8086 62.6818 24.1163 62.6073 24.2601 62.3716L23.4064 61.8507ZM40.6444 49.5694C40.8975 49.4589 41.0131 49.1641 40.9026 48.911C40.792 48.658 40.4973 48.5424 40.2442 48.6529L40.6444 49.5694ZM22.1182 67.3813C22.2367 67.1319 22.1306 66.8336 21.8812 66.7151C21.6318 66.5966 21.3335 66.7027 21.215 66.9521L22.1182 67.3813ZM69.3332 31.4568L69.7962 31.6458C69.8719 31.4602 69.8295 31.2472 69.6883 31.1048C69.5472 30.9625 69.3347 30.9181 69.1484 30.9923L69.3332 31.4568ZM61.992 48.1197C61.8876 48.3754 62.0103 48.6673 62.266 48.7716C62.5216 48.876 62.8135 48.7533 62.9179 48.4976L61.992 48.1197ZM41.374 48.5346C41.4987 48.7809 41.7996 48.8795 42.0459 48.7547C42.2923 48.63 42.3908 48.3291 42.2661 48.0828L41.374 48.5346ZM33.4478 31.7778L33.7894 31.4127C33.6122 31.247 33.3417 31.2323 33.1477 31.3779C32.9537 31.5235 32.8922 31.7873 33.0018 32.0037L33.4478 31.7778ZM41.82 34.6667L41.6889 34.1842L41.82 34.6667ZM54.9121 50.6336C54.933 50.3583 54.7266 50.1182 54.4512 50.0974C54.1759 50.0765 53.9358 50.2829 53.915 50.5583L54.9121 50.6336ZM56.1025 61.1515C56.2436 61.3889 56.5504 61.4669 56.7878 61.3258C57.0252 61.1847 57.1032 60.8778 56.9621 60.6405L56.1025 61.1515ZM50.2345 50.8603C50.4028 50.6414 50.3618 50.3275 50.1428 50.1592C49.9239 49.9909 49.61 50.0319 49.4417 50.2508L50.2345 50.8603ZM46.5113 58.8743C46.5221 59.1502 46.7546 59.3651 47.0305 59.3543C47.3065 59.3435 47.5214 59.111 47.5105 58.8351L46.5113 58.8743ZM42.146 47.9602C41.9092 47.8181 41.6021 47.8949 41.46 48.1317C41.318 48.3685 41.3948 48.6756 41.6315 48.8177L42.146 47.9602ZM62.3159 48.845C62.5678 48.7318 62.6803 48.4359 62.5671 48.184C62.4539 47.9321 62.158 47.8197 61.9061 47.9329L62.3159 48.845ZM84.7221 81.4199C84.7221 88.5126 84.1605 93.551 79.9457 96.9008C77.8211 98.5894 74.726 99.8831 70.1983 100.751C65.6721 101.619 59.7492 102.056 51.9999 102.056V103.056C59.7784 103.056 65.7721 102.618 70.3866 101.733C74.9995 100.849 78.269 99.5108 80.5679 97.6837C85.2004 94.0019 85.7221 88.4725 85.7221 81.4199H84.7221ZM51.9999 102.056C36.4736 102.056 28.3435 99.9371 24.0725 96.194C19.8371 92.482 19.2777 87.0641 19.2777 79.9755H18.2777C18.2777 87.0321 18.8016 92.9043 23.4134 96.946C27.9897 100.957 36.4707 103.056 51.9999 103.056V102.056ZM63.3318 49.5584C65.4549 50.6199 66.892 51.6915 68.0563 52.6722C69.1979 53.634 70.1597 54.5875 71.2201 55.3033L71.7797 54.4745C70.7753 53.7965 69.9316 52.9445 68.7005 51.9074C67.4921 50.8895 65.9894 49.7691 63.7791 48.6639L63.3318 49.5584ZM24.2601 62.3716C28.0985 56.0798 33.6213 52.6364 40.6444 49.5694L40.2442 48.6529C33.1471 51.7523 27.4022 55.301 23.4064 61.8507L24.2601 62.3716ZM19.2777 79.9755C19.2777 75.0986 20.2285 71.3576 22.1182 67.3813L21.215 66.9521C19.2653 71.0547 18.2777 74.9417 18.2777 79.9755H19.2777ZM68.8703 31.2679L61.992 48.1197L62.9179 48.4976L69.7962 31.6458L68.8703 31.2679ZM42.2661 48.0828L33.8939 31.5519L33.0018 32.0037L41.374 48.5346L42.2661 48.0828ZM33.4478 31.7778C33.1062 32.143 33.1064 32.1431 33.1065 32.1432C33.1066 32.1433 33.1067 32.1434 33.1069 32.1436C33.1072 32.1438 33.1075 32.1441 33.1079 32.1445C33.1087 32.1453 33.1098 32.1463 33.1111 32.1475C33.1138 32.15 33.1175 32.1534 33.1223 32.1578C33.1317 32.1664 33.1453 32.1788 33.1628 32.1945C33.1977 32.2259 33.2485 32.2708 33.314 32.327C33.4449 32.4394 33.6349 32.597 33.8753 32.782C34.3552 33.1512 35.04 33.6323 35.8593 34.0786C37.4802 34.9615 39.7171 35.7563 41.9511 35.1492L41.6889 34.1842C39.8285 34.6898 37.8793 34.0402 36.3377 33.2004C35.5757 32.7854 34.9352 32.3357 34.4851 31.9894C34.2604 31.8166 34.0843 31.6703 33.9652 31.5682C33.9058 31.5171 33.8606 31.4772 33.831 31.4505C33.8161 31.4372 33.8051 31.4272 33.7982 31.4208C33.7947 31.4176 33.7922 31.4153 33.7907 31.4139C33.79 31.4132 33.7895 31.4128 33.7893 31.4126C33.7892 31.4125 33.7891 31.4124 33.7891 31.4124C33.7892 31.4125 33.7892 31.4125 33.7892 31.4125C33.7893 31.4126 33.7894 31.4127 33.4478 31.7778ZM41.9511 35.1492C43.9718 34.6001 44.7237 33.3635 45.5125 32.4523C45.9065 31.9972 46.315 31.6061 46.9075 31.3201C47.5024 31.033 48.3221 30.8334 49.5581 30.8334V29.8334C48.2147 29.8334 47.2374 30.0505 46.4728 30.4195C45.7058 30.7898 45.1922 31.2945 44.7565 31.7978C43.8859 32.8033 43.3482 33.7333 41.6889 34.1842L41.9511 35.1492ZM49.5581 30.8334C50.0669 30.8334 50.8117 30.9614 51.743 31.1721C52.6661 31.381 53.7217 31.6588 54.8481 31.9418C57.075 32.5011 59.5731 33.0803 61.5951 33.0803V32.0803C59.7168 32.0803 57.3376 31.536 55.0917 30.9719C53.9818 30.6931 52.9021 30.4092 51.9637 30.1968C51.0335 29.9863 50.1906 29.8334 49.5581 29.8334V30.8334ZM61.5951 33.0803C64.0906 33.0803 66.0601 32.795 67.4112 32.5076C68.0867 32.3639 68.6077 32.2196 68.9626 32.1102C69.1401 32.0554 69.2761 32.0094 69.3691 31.9765C69.4156 31.96 69.4514 31.9468 69.4763 31.9374C69.4888 31.9328 69.4985 31.929 69.5054 31.9264C69.5089 31.925 69.5117 31.9239 69.5138 31.9231C69.5149 31.9227 69.5158 31.9223 69.5165 31.922C69.5168 31.9219 69.5171 31.9218 69.5174 31.9217C69.5175 31.9216 69.5177 31.9216 69.5178 31.9215C69.5179 31.9215 69.5181 31.9214 69.3332 31.4568C69.1484 30.9923 69.1485 30.9922 69.1486 30.9922C69.1487 30.9921 69.1488 30.9921 69.1488 30.9921C69.1489 30.9921 69.1489 30.992 69.149 30.992C69.149 30.992 69.1488 30.9921 69.1485 30.9922C69.1479 30.9925 69.1465 30.993 69.1445 30.9938C69.1405 30.9953 69.1338 30.9979 69.1243 31.0014C69.1054 31.0085 69.0758 31.0195 69.0355 31.0337C68.9549 31.0623 68.8319 31.104 68.6679 31.1546C68.3398 31.2558 67.8478 31.3924 67.2031 31.5295C65.9138 31.8038 64.0142 32.0803 61.5951 32.0803V33.0803ZM53.915 50.5583C53.8241 51.7612 54.0982 53.9427 54.5156 56.0132C54.7262 57.058 54.977 58.0928 55.2448 58.9849C55.5094 59.8664 55.8009 60.6442 56.1025 61.1515L56.9621 60.6405C56.7261 60.2436 56.4626 59.5639 56.2025 58.6974C55.9456 57.8414 55.7019 56.8376 55.4959 55.8156C55.08 53.7526 54.8324 51.6883 54.9121 50.6336L53.915 50.5583ZM49.4417 50.2508C48.8215 51.0576 48.0752 52.7409 47.5 54.4047C47.2085 55.2477 46.9537 56.1067 46.7757 56.8766C46.6002 57.636 46.4906 58.3456 46.5113 58.8743L47.5105 58.8351C47.4952 58.4441 47.5792 57.8407 47.75 57.1018C47.9184 56.3735 48.1624 55.549 48.4451 54.7315C49.0182 53.074 49.7216 51.5274 50.2345 50.8603L49.4417 50.2508ZM41.6315 48.8177C42.6301 49.4168 44.2211 49.7928 46.028 50.0161C47.8548 50.2418 49.9727 50.319 52.0764 50.2797C54.1809 50.2403 56.2825 50.0842 58.0786 49.8397C59.8596 49.5972 61.3879 49.262 62.3159 48.845L61.9061 47.9329C61.118 48.287 59.712 48.6081 57.9437 48.8488C56.1907 49.0874 54.1283 49.2411 52.0577 49.2799C49.9862 49.3186 47.9177 49.242 46.1506 49.0236C44.3636 48.8028 42.953 48.4444 42.146 47.9602L41.6315 48.8177Z" fill="#4657AE"/>
</svg>
