<svg width="104" height="104" viewBox="0 0 104 104" fill="none" xmlns="http://www.w3.org/2000/svg">
<path d="M13.9529 67.889L6.73064 56.3335L73.8973 17.3335L81.1195 30.3335L13.9529 67.889Z" fill="#FFCE3A"/>
<rect x="65.8511" y="47.8632" width="12" height="9.11111" rx="1.5" transform="rotate(-30 65.8511 47.8632)" fill="#FFCE3A" stroke="#4657AE"/>
<path d="M3.54442 46.5638L3.29442 46.1307L3.54442 46.5638ZM67.4917 9.64376L67.2417 9.21075L67.4917 9.64376ZM70.3331 10.4051L69.9 10.6551L70.3331 10.4051ZM94.2519 51.8338L94.685 51.5838L94.2519 51.8338ZM26.7049 90.839L27.138 90.589L26.7049 90.839ZM2.78309 49.4051L2.35008 49.6551H2.35008L2.78309 49.4051ZM64.7549 71.9331C64.9943 71.7955 65.0768 71.4899 64.9392 71.2505C64.8015 71.0111 64.4959 70.9286 64.2565 71.0662L64.7549 71.9331ZM29.5431 91.6021L29.7923 92.0356H29.7923L29.5431 91.6021ZM93.4887 54.6763L93.2391 54.243L93.4887 54.6763ZM69.0435 68.1775C68.8042 68.3153 68.722 68.621 68.8598 68.8603C68.9976 69.0996 69.3033 69.1819 69.5426 69.0441L69.0435 68.1775ZM74.1486 17.4755L74.5816 17.2255L74.3295 16.7889L73.895 17.0446L74.1486 17.4755ZM81.3708 29.9848L81.6208 30.4178L82.0538 30.1678L81.8038 29.7348L81.3708 29.9848ZM14.1858 68.7741L13.7527 69.0241L14.0027 69.4571L14.4358 69.2071L14.1858 68.7741ZM6.96354 56.2648L6.71434 55.8313L6.28007 56.081L6.53053 56.5148L6.96354 56.2648ZM56.0879 28.5999C56.3273 28.4622 56.4098 28.1566 56.2722 27.9172C56.1346 27.6778 55.8289 27.5953 55.5895 27.7329L56.0879 28.5999ZM60.3962 24.9877C60.1582 25.1278 60.0788 25.4342 60.2188 25.6722C60.3589 25.9102 60.6654 25.9896 60.9033 25.8496L60.3962 24.9877ZM29.2251 77.861C28.9846 77.9968 28.8998 78.3019 29.0357 78.5423C29.1715 78.7827 29.4765 78.8675 29.7169 78.7317L29.2251 77.861ZM48.1406 68.324C48.381 68.1882 48.4658 67.8832 48.33 67.6427C48.1942 67.4023 47.8892 67.3175 47.6487 67.4533L48.1406 68.324ZM37.5355 66.0101C37.2958 66.1471 37.2125 66.4525 37.3495 66.6923C37.4865 66.932 37.7919 67.0153 38.0317 66.8783L37.5355 66.0101ZM53.1984 58.2118C53.4382 58.0748 53.5215 57.7693 53.3845 57.5296C53.2474 57.2898 52.942 57.2065 52.7023 57.3435L53.1984 58.2118ZM26.3324 72.8595C26.0931 72.9974 26.011 73.3032 26.1489 73.5424C26.2869 73.7816 26.5926 73.8637 26.8318 73.7258L26.3324 72.8595ZM33.6999 69.7663C33.9392 69.6284 34.0213 69.3226 33.8834 69.0834C33.7455 68.8442 33.4397 68.762 33.2005 68.8999L33.6999 69.7663ZM3.79442 46.9968L67.7417 10.0768L67.2417 9.21075L3.29442 46.1307L3.79442 46.9968ZM69.9 10.6551L93.8189 52.0838L94.685 51.5838L70.7661 10.1551L69.9 10.6551ZM27.138 90.589L3.2161 49.1551L2.35008 49.6551L26.2719 91.089L27.138 90.589ZM64.2565 71.0662L29.2938 91.1687L29.7923 92.0356L64.7549 71.9331L64.2565 71.0662ZM93.2391 54.243L69.0435 68.1775L69.5426 69.0441L93.7382 55.1095L93.2391 54.243ZM26.2719 91.089C26.9835 92.3214 28.5586 92.745 29.7923 92.0356L29.2938 91.1687C28.5383 91.6031 27.5737 91.3437 27.138 90.589L26.2719 91.089ZM93.8189 52.0838C94.2556 52.8401 93.9959 53.8072 93.2391 54.243L93.7382 55.1095C94.9739 54.3979 95.3979 52.8187 94.685 51.5838L93.8189 52.0838ZM67.7417 10.0768C68.4974 9.64047 69.4637 9.89939 69.9 10.6551L70.7661 10.1551C70.0536 8.9211 68.4757 8.4983 67.2417 9.21075L67.7417 10.0768ZM3.29442 46.1307C2.06043 46.8432 1.63763 48.4211 2.35008 49.6551L3.2161 49.1551C2.7798 48.3994 3.03872 47.4331 3.79442 46.9968L3.29442 46.1307ZM73.7156 17.7255L80.9378 30.2348L81.8038 29.7348L74.5816 17.2255L73.7156 17.7255ZM81.1208 29.5517L13.9358 68.3411L14.4358 69.2071L81.6208 30.4178L81.1208 29.5517ZM14.6188 68.5241L7.39655 56.0148L6.53053 56.5148L13.7527 69.0241L14.6188 68.5241ZM7.21274 56.6983L56.0879 28.5999L55.5895 27.7329L6.71434 55.8313L7.21274 56.6983ZM60.9033 25.8496L74.4022 17.9064L73.895 17.0446L60.3962 24.9877L60.9033 25.8496ZM29.7169 78.7317L48.1406 68.324L47.6487 67.4533L29.2251 77.861L29.7169 78.7317ZM38.0317 66.8783L53.1984 58.2118L52.7023 57.3435L37.5355 66.0101L38.0317 66.8783ZM26.8318 73.7258L33.6999 69.7663L33.2005 68.8999L26.3324 72.8595L26.8318 73.7258Z" fill="#4657AE"/>
<path d="M9.61736 93.3886C9.34121 93.3886 9.11736 93.6125 9.11736 93.8886C9.11736 94.1648 9.34121 94.3886 9.61736 94.3886V93.3886ZM14.6729 94.3886C14.9491 94.3886 15.1729 94.1648 15.1729 93.8886C15.1729 93.6125 14.9491 93.3886 14.6729 93.3886V94.3886ZM53.7972 86.313C53.6019 86.1177 53.2853 86.1177 53.09 86.313C52.8948 86.5082 52.8948 86.8248 53.09 87.0201L53.7972 86.313ZM60.6658 93.8887L61.0194 94.2423C61.2146 94.047 61.2146 93.7304 61.0194 93.5352L60.6658 93.8887ZM53.09 100.757C52.8948 100.953 52.8948 101.269 53.09 101.464C53.2853 101.66 53.6019 101.66 53.7972 101.464L53.09 100.757ZM21.1728 93.3886C20.8967 93.3886 20.6728 93.6125 20.6728 93.8886C20.6728 94.1648 20.8967 94.3886 21.1728 94.3886V93.3886ZM59.1367 94.3886C59.4129 94.3886 59.6367 94.1648 59.6367 93.8886C59.6367 93.6125 59.4129 93.3886 59.1367 93.3886V94.3886ZM9.61736 94.3886H14.6729V93.3886H9.61736V94.3886ZM53.09 87.0201L60.3123 94.2423L61.0194 93.5352L53.7972 86.313L53.09 87.0201ZM60.3123 93.5352L53.09 100.757L53.7972 101.464L61.0194 94.2423L60.3123 93.5352ZM21.1728 94.3886H59.1367V93.3886H21.1728V94.3886Z" fill="#4657AE"/>
<ellipse cx="79.4431" cy="85.2224" rx="10.1111" ry="10.1111" fill="#FFCE3A" stroke="#4657AE"/>
<ellipse cx="91.5955" cy="11.5554" rx="10.1111" ry="10.1111" fill="#FFCE3A" stroke="#4657AE"/>
<circle cx="18.7791" cy="32.4998" r="10.1111" fill="#FFCE3A" stroke="#4657AE"/>
</svg>
