<svg width="100" height="106" viewBox="0 0 100 106" fill="none" xmlns="http://www.w3.org/2000/svg">
<path d="M9.03516 20.8339C9.03516 21.11 9.25901 21.3339 9.53516 21.3339C9.8113 21.3339 10.0352 21.11 10.0352 20.8339H9.03516ZM9.03516 30.5561C9.03516 30.8322 9.25901 31.0561 9.53516 31.0561C9.8113 31.0561 10.0352 30.8322 10.0352 30.5561H9.03516ZM10.0352 25.0005C10.0352 24.7244 9.8113 24.5005 9.53516 24.5005C9.25901 24.5005 9.03516 24.7244 9.03516 25.0005H10.0352ZM10.0352 37.5005C10.0352 37.2244 9.8113 37.0005 9.53516 37.0005C9.25901 37.0005 9.03516 37.2244 9.03516 37.5005H10.0352ZM34.722 93.945C34.4458 93.945 34.222 94.1688 34.222 94.445C34.222 94.7211 34.4458 94.945 34.722 94.945V93.945ZM29.1664 94.945C29.4426 94.945 29.6664 94.7211 29.6664 94.445C29.6664 94.1688 29.4426 93.945 29.1664 93.945V94.945ZM68.0547 15.7783C68.3308 15.7783 68.5547 15.5545 68.5547 15.2783C68.5547 15.0022 68.3308 14.7783 68.0547 14.7783V15.7783ZM18.0547 14.7783C17.7786 14.7783 17.5547 15.0022 17.5547 15.2783C17.5547 15.5545 17.7786 15.7783 18.0547 15.7783V14.7783ZM68.0547 22.7228C68.3308 22.7228 68.5547 22.4989 68.5547 22.2228C68.5547 21.9466 68.3308 21.7228 68.0547 21.7228V22.7228ZM18.0547 21.7228C17.7786 21.7228 17.5547 21.9466 17.5547 22.2228C17.5547 22.4989 17.7786 22.7228 18.0547 22.7228V21.7228ZM68.0546 29.6672C68.3307 29.6672 68.5546 29.4434 68.5546 29.1672C68.5546 28.8911 68.3307 28.6672 68.0546 28.6672V29.6672ZM18.0546 28.6672C17.7785 28.6672 17.5546 28.8911 17.5546 29.1672C17.5546 29.4434 17.7785 29.6672 18.0546 29.6672V28.6672ZM68.0547 36.6117C68.3308 36.6117 68.5547 36.3878 68.5547 36.1117C68.5547 35.8355 68.3308 35.6117 68.0547 35.6117V36.6117ZM18.0547 35.6117C17.7785 35.6117 17.5547 35.8355 17.5547 36.1117C17.5547 36.3878 17.7785 36.6117 18.0547 36.6117V35.6117ZM68.0546 43.5561C68.3308 43.5561 68.5546 43.3322 68.5546 43.0561C68.5546 42.78 68.3308 42.5561 68.0546 42.5561V43.5561ZM18.0546 42.5561C17.7785 42.5561 17.5546 42.78 17.5546 43.0561C17.5546 43.3322 17.7785 43.5561 18.0546 43.5561V42.5561ZM68.0546 50.5005C68.3307 50.5005 68.5546 50.2767 68.5546 50.0005C68.5546 49.7244 68.3307 49.5005 68.0546 49.5005V50.5005ZM18.0545 49.5005C17.7784 49.5005 17.5545 49.7244 17.5545 50.0005C17.5545 50.2767 17.7784 50.5005 18.0545 50.5005V49.5005ZM49.3373 57.445C49.6135 57.445 49.8373 57.2211 49.8373 56.945C49.8373 56.6688 49.6135 56.445 49.3373 56.445V57.445ZM18.0549 56.445C17.7787 56.445 17.5549 56.6688 17.5549 56.945C17.5549 57.2211 17.7787 57.445 18.0549 57.445V56.445ZM12.5352 3.27832H73.3887V2.27832H12.5352V3.27832ZM75.8887 5.77832V91.445H76.8887V5.77832H75.8887ZM10.0352 20.8339V5.77832H9.03516V20.8339H10.0352ZM10.0352 30.5561V25.0005H9.03516V30.5561H10.0352ZM10.0352 91.445V37.5005H9.03516V91.445H10.0352ZM73.3887 93.945H34.722V94.945H73.3887V93.945ZM29.1664 93.945H12.5352V94.945H29.1664V93.945ZM9.03516 91.445C9.03516 93.378 10.6022 94.945 12.5352 94.945V93.945C11.1544 93.945 10.0352 92.8257 10.0352 91.445H9.03516ZM75.8887 91.445C75.8887 92.8257 74.7694 93.945 73.3887 93.945V94.945C75.3217 94.945 76.8887 93.378 76.8887 91.445H75.8887ZM73.3887 3.27832C74.7694 3.27832 75.8887 4.39761 75.8887 5.77832H76.8887C76.8887 3.84532 75.3217 2.27832 73.3887 2.27832V3.27832ZM12.5352 2.27832C10.6022 2.27832 9.03516 3.84532 9.03516 5.77832H10.0352C10.0352 4.39761 11.1544 3.27832 12.5352 3.27832V2.27832ZM68.0547 14.7783H18.0547V15.7783H68.0547V14.7783ZM68.0547 21.7228H18.0547V22.7228H68.0547V21.7228ZM68.0546 28.6672H18.0546V29.6672H68.0546V28.6672ZM68.0547 35.6117H18.0547V36.6117H68.0547V35.6117ZM68.0546 42.5561H18.0546V43.5561H68.0546V42.5561ZM68.0546 49.5005H18.0545V50.5005H68.0546V49.5005ZM49.3373 56.445H18.0549V57.445H49.3373V56.445Z" fill="#4657AE"/>
<path d="M76.9375 97.3966C67.3437 99.9672 57.4825 94.2738 54.9118 84.6801C53.9612 81.1321 54.1407 77.5475 55.2298 74.3087C55.6128 73.17 56.1081 72.074 56.7063 71.0373C57.2591 70.0793 57.8997 69.172 58.6206 68.3284C60.9003 65.6608 63.9827 63.6313 67.6283 62.6544C77.2221 60.0838 87.0833 65.7772 89.654 75.3709C92.2246 84.9647 86.5312 94.8259 76.9375 97.3966Z" fill="#FFCE3A"/>
<path d="M55.6922 88.138C57.2123 91.1983 59.62 93.8599 62.801 95.6965C71.4026 100.663 82.4013 97.7155 87.3674 89.114C92.3335 80.5124 89.3864 69.5137 80.7849 64.5476C72.1833 59.5815 61.1846 62.5286 56.2185 71.1301C55.6984 72.0309 55.2652 72.9579 54.9161 73.9016M53.8612 81.5117C53.7565 80.176 53.8003 78.8234 53.9994 77.4796" stroke="#4657AE" stroke-linecap="round"/>
<path d="M64.6969 86.5165C64.5081 86.7179 64.5183 87.0343 64.7197 87.2232C64.9212 87.4121 65.2376 87.4019 65.4265 87.2004L64.6969 86.5165ZM63.5 74.7594C63.5 76.5596 64.9593 78.0189 66.7594 78.0189V77.0189C65.5116 77.0189 64.5 76.0073 64.5 74.7594H63.5ZM66.7594 78.0189C68.5596 78.0189 70.0189 76.5596 70.0189 74.7594H69.0189C69.0189 76.0073 68.0073 77.0189 66.7594 77.0189V78.0189ZM70.0189 74.7594C70.0189 72.9593 68.5596 71.5 66.7594 71.5V72.5C68.0073 72.5 69.0189 73.5116 69.0189 74.7594H70.0189ZM66.7594 71.5C64.9593 71.5 63.5 72.9593 63.5 74.7594H64.5C64.5 73.5116 65.5116 72.5 66.7594 72.5V71.5ZM72.9811 85.1604C72.9811 86.9605 74.4404 88.4198 76.2406 88.4198V87.4198C74.9927 87.4198 73.9811 86.4082 73.9811 85.1604H72.9811ZM76.2406 88.4198C78.0407 88.4198 79.5 86.9605 79.5 85.1604H78.5C78.5 86.4082 77.4884 87.4198 76.2406 87.4198V88.4198ZM79.5 85.1604C79.5 83.3602 78.0407 81.9009 76.2406 81.9009V82.9009C77.4884 82.9009 78.5 83.9125 78.5 85.1604H79.5ZM76.2406 81.9009C74.4404 81.9009 72.9811 83.3602 72.9811 85.1604H73.9811C73.9811 83.9125 74.9927 82.9009 76.2406 82.9009V81.9009ZM65.4265 87.2004L78.3036 73.4648L77.5741 72.7808L64.6969 86.5165L65.4265 87.2004Z" fill="#4657AE"/>
<path d="M76.3914 40.2668C77.5186 40.5569 78.7002 40.7112 79.9178 40.7112C87.7082 40.7113 94.0234 34.396 94.0234 26.6056C94.0234 24.8431 93.7002 23.156 93.1097 21.6005C92.4977 19.9884 91.5987 18.5176 90.4751 17.2505C87.891 14.3365 84.1189 12.5 79.9178 12.5C78.7002 12.5 77.5186 12.6543 76.3914 12.9445L76.3914 40.2668Z" fill="#FFCE3A" stroke="#4657AE"/>
<path d="M94.0234 26.6056C94.0234 34.396 87.7082 40.7113 79.9178 40.7112C78.7002 40.7112 77.5186 40.5569 76.3914 40.2668L76.3914 12.9445C77.5186 12.6543 78.7002 12.5 79.9178 12.5C84.1189 12.5 88.7119 14.5498 91.6901 19.041" stroke="#4657AE" stroke-linecap="round"/>
<path d="M76.3895 49.0831L76.3895 21.7607C82.4734 23.3266 86.9687 28.8491 86.9687 35.4219C86.9687 41.9947 82.4734 47.5172 76.3895 49.0831Z" fill="#FFCE3A" stroke="#4657AE"/>
</svg>
