<svg width="110" height="104" viewBox="0 0 110 104" fill="none" xmlns="http://www.w3.org/2000/svg">
<path fill-rule="evenodd" clip-rule="evenodd" d="M82.735 10.1108H24.235V55.3195C36.0988 55.9475 45.5252 65.7661 45.5252 77.7865C45.5252 78.4493 45.4965 79.1054 45.4404 79.7537H82.735V10.1108Z" fill="white"/>
<path d="M33.9186 4.53857H21.6842C20.0273 4.53857 18.6842 5.88172 18.6842 7.53858L18.6842 36.1364M38.2712 4.53857H39.7221M44.0748 4.53858L85.327 4.53858C86.9839 4.53858 88.327 5.88173 88.327 7.53858L88.327 88.5921C88.327 90.249 86.9839 91.5921 85.327 91.5921H48.4252M82.5225 30.171V10.3421H24.4868V36.0474M82.5225 34.0401V35.0073M82.5225 38.8764V79.985H52.1939M52.1484 85.4123H55.6812" stroke="#4657AE" stroke-linecap="round" stroke-linejoin="round"/>
<path d="M39.9712 17.3789L30.1405 28.1351" stroke="#4657AE" stroke-linecap="round"/>
<path d="M40.7251 22.8272L30.8944 33.5834" stroke="#4657AE" stroke-linecap="round"/>
<path d="M21.9326 40.5815L18.3828 46.1597L21.9326 51.907H33.427L36.9767 46.1597L33.427 40.5815H21.9326Z" fill="white"/>
<path fill-rule="evenodd" clip-rule="evenodd" d="M27.0182 98.898C38.6588 98.898 48.3763 89.5759 48.3763 78.0766C48.3763 68.7372 42.8993 60.5794 34.3249 57.9399C33.0864 57.5586 37.2047 54.4024 36.0111 52.8249C35.2937 51.8768 28.9632 52.2475 28.1424 52.2475C27.4347 52.2475 20.1648 51.8836 19.3946 52.8249C18.1406 54.3578 22.1809 57.0292 21.1167 57.306C12.083 59.6557 5.94124 68.4145 5.94124 78.0766C5.94124 89.5759 15.3777 98.898 27.0182 98.898ZM27.4667 93.5819C36.3828 93.5819 43.6108 86.4416 43.6108 77.6335C43.6108 68.8255 36.3828 61.6852 27.4667 61.6852C18.5506 61.6852 11.3226 68.8255 11.3226 77.6335C11.3226 86.4416 18.5506 93.5819 27.4667 93.5819Z" fill="#FFCE3A"/>
<path d="M33.5625 93.1296C33.8198 93.0294 33.9472 92.7396 33.847 92.4823C33.7468 92.225 33.457 92.0976 33.1996 92.1978L33.5625 93.1296ZM32.3794 92.4912C32.1169 92.577 31.9737 92.8594 32.0595 93.1218C32.1453 93.3843 32.4276 93.5275 32.6901 93.4417L32.3794 92.4912ZM23.3206 62.1035L23.1915 61.6205L23.3206 62.1035ZM36.2315 64.1242L36.5019 63.7036L36.2315 64.1242ZM43.0768 73.4967L42.5939 73.6263L43.0768 73.4967ZM11.1484 80.6922C11.1992 80.9637 11.4604 81.1425 11.7319 81.0917C12.0033 81.0409 12.1821 80.7796 12.1313 80.5082L11.1484 80.6922ZM28.3205 94.2529C28.5963 94.2391 28.8087 94.0043 28.7949 93.7285C28.7811 93.4528 28.5463 93.2404 28.2705 93.2542L28.3205 94.2529ZM13.3625 84.3215C13.2448 84.0717 12.9469 83.9646 12.6971 84.0823C12.4473 84.2 12.3402 84.4979 12.4579 84.7477L13.3625 84.3215ZM36.5255 90.4117C36.2999 90.571 36.2462 90.883 36.4055 91.1086C36.5647 91.3342 36.8767 91.3879 37.1023 91.2286L36.5255 90.4117ZM21.8182 97.947L21.6887 98.43L21.8182 97.947ZM6.6596 78.3789C6.64874 78.1029 6.41626 77.888 6.14033 77.8989C5.8644 77.9098 5.64952 78.1422 5.66037 78.4182L6.6596 78.3789ZM5.88965 74.3429C5.848 74.6158 6.03553 74.8709 6.30851 74.9126C6.58149 74.9542 6.83656 74.7667 6.87821 74.4937L5.88965 74.3429ZM7.08269 73.3651C7.13944 73.0948 6.96636 72.8297 6.69611 72.773C6.42586 72.7163 6.16078 72.8893 6.10403 73.1596L7.08269 73.3651ZM47.6795 83.0593L48.1625 83.1887L47.6795 83.0593ZM36.9417 96.343L36.7136 95.8981H36.7136L36.9417 96.343ZM34.0579 57.1114C33.7957 57.0248 33.513 57.1672 33.4264 57.4295C33.3399 57.6917 33.4823 57.9744 33.7445 58.061L34.0579 57.1114ZM7.30025 69.2907C7.19442 69.5457 7.31539 69.8383 7.57045 69.9441C7.82551 70.0499 8.11807 69.9289 8.2239 69.6739L7.30025 69.2907ZM21.1475 57.9315C21.4113 57.8497 21.5588 57.5696 21.477 57.3059C21.3952 57.0421 21.1151 56.8946 20.8514 56.9764L21.1475 57.9315ZM20.8809 57.5736C21.0251 57.8091 21.3329 57.8831 21.5684 57.7389C21.8039 57.5947 21.8779 57.2868 21.7337 57.0513L20.8809 57.5736ZM19.958 55.109L20.3844 54.8479L20.3844 54.8479L19.958 55.109ZM35.5108 55.109L35.0844 54.8479V54.8479L35.5108 55.109ZM33.7351 57.0513C33.5909 57.2868 33.6649 57.5947 33.9004 57.7389C34.1359 57.8831 34.4437 57.8091 34.5879 57.5736L33.7351 57.0513ZM26.8515 56.6581C26.6281 56.4959 26.3154 56.5456 26.1532 56.7691C25.991 56.9925 26.0407 57.3052 26.2642 57.4674L26.8515 56.6581ZM29.1903 57.4368C29.3968 57.2535 29.4158 56.9375 29.2325 56.7309C29.0493 56.5244 28.7332 56.5055 28.5267 56.6887L29.1903 57.4368ZM33.1996 92.1978C32.9305 92.3026 32.657 92.4005 32.3794 92.4912L32.6901 93.4417C32.9853 93.3452 33.2761 93.2411 33.5625 93.1296L33.1996 92.1978ZM23.4498 62.5866C27.8833 61.401 32.3822 62.2431 35.961 64.5447L36.5019 63.7036C32.6962 61.2561 27.9083 60.3592 23.1915 61.6205L23.4498 62.5866ZM35.961 64.5447C39.112 66.5711 41.5471 69.7274 42.5939 73.6263L43.5597 73.367C42.4459 69.2187 39.8535 65.8591 36.5019 63.7036L35.961 64.5447ZM12.1313 80.5082C10.6455 72.5727 15.5096 64.7099 23.4498 62.5866L23.1915 61.6205C14.7431 63.8797 9.56691 72.246 11.1484 80.6922L12.1313 80.5082ZM28.2705 93.2542C21.9835 93.5687 16.0566 90.0384 13.3625 84.3215L12.4579 84.7477C15.3256 90.833 21.6305 94.5876 28.3205 94.2529L28.2705 93.2542ZM42.5939 73.6263C44.3363 80.1159 41.716 86.7469 36.5255 90.4117L37.1023 91.2286C42.6239 87.3301 45.4144 80.2746 43.5597 73.367L42.5939 73.6263ZM21.9476 97.4641C12.9991 95.0663 7.00486 87.1535 6.6596 78.3789L5.66037 78.4182C6.02242 87.6195 12.3066 95.916 21.6887 98.43L21.9476 97.4641ZM6.87821 74.4937C6.93558 74.1177 7.00367 73.7414 7.08269 73.3651L6.10403 73.1596C6.0212 73.5541 5.94981 73.9486 5.88965 74.3429L6.87821 74.4937ZM47.1966 82.9299C45.6329 88.7657 41.7053 93.3381 36.7136 95.8981L37.1699 96.7879C42.402 94.1046 46.5225 89.3091 48.1625 83.1887L47.1966 82.9299ZM36.7136 95.8981C32.3184 98.1522 27.1007 98.8448 21.9476 97.4641L21.6887 98.43C27.0903 99.8773 32.5624 99.1509 37.1699 96.7879L36.7136 95.8981ZM33.7445 58.061C44.0512 61.4625 50.0335 72.3425 47.1966 82.9299L48.1625 83.1887C51.1379 72.0841 44.8631 60.6774 34.0579 57.1114L33.7445 58.061ZM8.2239 69.6739C10.6134 63.9147 15.4381 59.7018 21.1475 57.9315L20.8514 56.9764C14.8679 58.8316 9.80747 63.2479 7.30025 69.2907L8.2239 69.6739ZM21.7337 57.0513L20.3844 54.8479L19.5316 55.3701L20.8809 57.5736L21.7337 57.0513ZM21.6636 52.5646H33.8052V51.5646H21.6636V52.5646ZM35.0844 54.8479L33.7351 57.0513L34.5879 57.5736L35.9372 55.3701L35.0844 54.8479ZM33.8052 52.5646C34.9772 52.5646 35.6964 53.8484 35.0844 54.8479L35.9372 55.3701C36.9573 53.7043 35.7585 51.5646 33.8052 51.5646V52.5646ZM20.3844 54.8479C19.7724 53.8484 20.4916 52.5646 21.6636 52.5646V51.5646C19.7103 51.5646 18.5115 53.7043 19.5316 55.3701L20.3844 54.8479ZM26.5579 57.0627C26.2642 57.4674 26.2644 57.4676 26.2647 57.4678C26.2648 57.4679 26.2651 57.4681 26.2653 57.4682C26.2656 57.4685 26.266 57.4687 26.2664 57.469C26.2672 57.4696 26.268 57.4701 26.2688 57.4707C26.2704 57.4719 26.2721 57.4731 26.2739 57.4743C26.2774 57.4768 26.2813 57.4794 26.2856 57.4822C26.294 57.4878 26.3038 57.494 26.315 57.5007C26.3373 57.5142 26.3652 57.5296 26.3991 57.5461C26.4668 57.5792 26.558 57.6166 26.6763 57.6515C26.913 57.7215 27.2558 57.7814 27.7355 57.7814V56.7814C27.3389 56.7814 27.0929 56.7319 26.9598 56.6926C26.8932 56.6729 26.8543 56.6556 26.8382 56.6477C26.8301 56.6437 26.8276 56.6421 26.83 56.6436C26.8313 56.6443 26.8337 56.6458 26.8373 56.6482C26.8392 56.6494 26.8412 56.6508 26.8436 56.6525C26.8448 56.6533 26.8461 56.6542 26.8474 56.6551C26.848 56.6556 26.8487 56.656 26.8494 56.6565C26.8498 56.6568 26.8501 56.6571 26.8505 56.6573C26.8506 56.6574 26.8509 56.6576 26.851 56.6577C26.8513 56.6579 26.8515 56.6581 26.5579 57.0627ZM27.7355 57.7814C28.2145 57.7814 28.548 57.7217 28.7778 57.6484C28.8929 57.6116 28.9819 57.5714 29.0496 57.5337C29.0833 57.5149 29.1116 57.4968 29.1349 57.4803C29.1466 57.4721 29.157 57.4643 29.1662 57.457C29.1708 57.4533 29.1751 57.4498 29.1791 57.4464C29.1811 57.4447 29.183 57.4431 29.1849 57.4415C29.1858 57.4407 29.1867 57.4399 29.1876 57.4391C29.1881 57.4387 29.1885 57.4383 29.189 57.4379C29.1892 57.4377 29.1895 57.4375 29.1896 57.4374C29.1899 57.4371 29.1903 57.4368 28.8585 57.0627C28.5267 56.6887 28.527 56.6884 28.5273 56.6881C28.5274 56.688 28.5277 56.6878 28.5279 56.6876C28.5284 56.6872 28.5288 56.6868 28.5292 56.6865C28.53 56.6857 28.5309 56.685 28.5317 56.6843C28.5333 56.6829 28.5349 56.6816 28.5364 56.6803C28.5394 56.6778 28.5422 56.6755 28.5448 56.6734C28.55 56.6693 28.5542 56.6662 28.5574 56.6639C28.5638 56.6594 28.566 56.6584 28.563 56.6601C28.557 56.6634 28.5296 56.6779 28.4736 56.6958C28.361 56.7317 28.133 56.7814 27.7355 56.7814V57.7814Z" fill="#4657AE"/>
<path d="M34.5214 41.42L34.092 41.6761V41.6761L34.5214 41.42ZM36.7576 45.1689L36.3282 45.4251V45.4251L36.7576 45.1689ZM36.7451 47.2388L37.1714 47.5002V47.5002L36.7451 47.2388ZM34.5248 50.8603L34.0985 50.599L34.0985 50.599L34.5248 50.8603ZM21.0932 50.8928L21.5144 50.6233L21.0932 50.8928ZM18.7761 47.2708L19.1973 47.0014L18.7761 47.2708ZM18.7629 45.1362L19.1874 45.4004L18.7629 45.1362ZM21.0962 41.3877L20.6717 41.1235L20.6717 41.1235L21.0962 41.3877ZM18.9735 45.7077C18.6973 45.7077 18.4735 45.9315 18.4735 46.2077C18.4735 46.4838 18.6973 46.7077 18.9735 46.7077V45.7077ZM25.9844 52.055C26.117 52.2972 26.4208 52.3862 26.663 52.2537C26.9053 52.1211 26.9943 51.8173 26.8617 51.575L25.9844 52.055ZM36.5019 46.7077C36.7781 46.7077 37.0019 46.4838 37.0019 46.2077C37.0019 45.9315 36.7781 45.7077 36.5019 45.7077V46.7077ZM30.8453 40.2991C30.765 40.0349 30.4857 39.8859 30.2215 39.9662C29.9573 40.0466 29.8083 40.3259 29.8886 40.5901L30.8453 40.2991ZM28.6137 51.575C28.4812 51.8173 28.5701 52.1211 28.8124 52.2537C29.0546 52.3862 29.3585 52.2972 29.491 52.055L28.6137 51.575ZM25.5868 40.5901C25.6672 40.3259 25.5181 40.0466 25.2539 39.9662C24.9897 39.8859 24.7104 40.0349 24.6301 40.2991L25.5868 40.5901ZM22.7941 40.9446H32.8037V39.9446H22.7941V40.9446ZM34.092 41.6761L36.3282 45.4251L37.187 44.9128L34.9508 41.1639L34.092 41.6761ZM36.3188 46.9775L34.0985 50.599L34.9511 51.1217L37.1714 47.5002L36.3188 46.9775ZM32.8197 51.315H22.778V52.315H32.8197V51.315ZM21.5144 50.6233L19.1973 47.0014L18.3549 47.5403L20.672 51.1622L21.5144 50.6233ZM19.1874 45.4004L21.5206 41.6519L20.6717 41.1235L18.3384 44.872L19.1874 45.4004ZM19.1973 47.0014C18.8857 46.5143 18.8818 45.8913 19.1874 45.4004L18.3384 44.872C17.8291 45.6902 17.8355 46.7284 18.3549 47.5403L19.1973 47.0014ZM22.778 51.315C22.2664 51.315 21.7901 51.0543 21.5144 50.6233L20.672 51.1622C21.1315 51.8805 21.9254 52.315 22.778 52.315V51.315ZM34.0985 50.599C33.8258 51.0438 33.3415 51.315 32.8197 51.315V52.315C33.6894 52.315 34.4965 51.8631 34.9511 51.1217L34.0985 50.599ZM36.3282 45.4251C36.614 45.904 36.6103 46.502 36.3188 46.9775L37.1714 47.5002C37.6572 46.7077 37.6632 45.7111 37.187 44.9128L36.3282 45.4251ZM32.8037 40.9446C33.332 40.9446 33.8213 41.2225 34.092 41.6761L34.9508 41.1639C34.4997 40.4077 33.6842 39.9446 32.8037 39.9446V40.9446ZM22.7941 39.9446C21.9305 39.9446 21.128 40.3903 20.6717 41.1235L21.5206 41.6519C21.7945 41.212 22.2759 40.9446 22.7941 40.9446V39.9446ZM18.9735 46.7077H23.3556V45.7077H18.9735V46.7077ZM22.9169 46.4476L25.9844 52.055L26.8617 51.575L23.7942 45.9677L22.9169 46.4476ZM23.3556 46.7077H32.1198V45.7077H23.3556V46.7077ZM32.1198 46.7077H36.5019V45.7077H32.1198V46.7077ZM29.8886 40.5901L31.6415 46.3532L32.5982 46.0622L30.8453 40.2991L29.8886 40.5901ZM31.6812 45.9677L28.6137 51.575L29.491 52.055L32.5585 46.4476L31.6812 45.9677ZM23.834 46.3532L25.5868 40.5901L24.6301 40.2991L22.8772 46.0622L23.834 46.3532Z" fill="#4657AE"/>
<path d="M88.1675 58.0595C78.19 60.7329 67.9343 54.8118 65.2609 44.8343C64.2722 41.1444 64.4589 37.4165 65.5916 34.0481C65.9898 32.8638 66.505 31.7239 67.1271 30.6458C67.702 29.6495 68.3683 28.7059 69.118 27.8286C71.4889 25.0543 74.6946 22.9436 78.486 21.9277C88.4635 19.2542 98.7192 25.1753 101.393 35.1528C104.066 45.1303 98.145 55.386 88.1675 58.0595Z" fill="#FFCE3A"/>
<path d="M66.5823 48.3301C68.1632 51.5128 70.6672 54.2809 73.9755 56.1909C82.9211 61.3557 94.3598 58.2907 99.5245 49.3451C104.689 40.3995 101.624 28.9608 92.6787 23.7961C83.7331 18.6313 72.2944 21.6963 67.1296 30.6419C66.5888 31.5787 66.1382 32.5428 65.7751 33.5242M64.678 41.4387C64.5691 40.0496 64.6147 38.6429 64.8218 37.2453" stroke="#4657AE" stroke-linecap="round"/>
<path d="M76.7583 47.4688C76.5754 47.6756 76.5948 47.9916 76.8016 48.1745C77.0085 48.3575 77.3244 48.3381 77.5074 48.1313L76.7583 47.4688ZM75.5006 34.1201C75.5006 36.0915 77.0152 37.7401 78.944 37.7401V36.7401C77.6216 36.7401 76.5006 35.595 76.5006 34.1201H75.5006ZM78.944 37.7401C80.8728 37.7401 82.3874 36.0915 82.3874 34.1201H81.3874C81.3874 35.595 80.2664 36.7401 78.944 36.7401V37.7401ZM82.3874 34.1201C82.3874 32.1487 80.8728 30.5001 78.944 30.5001V31.5001C80.2664 31.5001 81.3874 32.6453 81.3874 34.1201H82.3874ZM78.944 30.5001C77.0152 30.5001 75.5006 32.1487 75.5006 34.1201H76.5006C76.5006 32.6453 77.6216 31.5001 78.944 31.5001V30.5001ZM85.6138 45.8801C85.6138 47.8515 87.1285 49.5001 89.0572 49.5001V48.5001C87.7348 48.5001 86.6138 47.355 86.6138 45.8801H85.6138ZM89.0572 49.5001C90.986 49.5001 92.5006 47.8515 92.5006 45.8801H91.5006C91.5006 47.355 90.3796 48.5001 89.0572 48.5001V49.5001ZM92.5006 45.8801C92.5006 43.9087 90.986 42.2601 89.0572 42.2601V43.2601C90.3796 43.2601 91.5006 44.4053 91.5006 45.8801H92.5006ZM89.0572 42.2601C87.1285 42.2601 85.6138 43.9087 85.6138 45.8801H86.6138C86.6138 44.4053 87.7348 43.2601 89.0572 43.2601V42.2601ZM77.5074 48.1313L91.243 32.6008L90.4939 31.9383L76.7583 47.4688L77.5074 48.1313Z" fill="#4657AE"/>
</svg>
