<svg width="185" height="112" viewBox="0 0 185 112" fill="none" xmlns="http://www.w3.org/2000/svg">
<path d="M166 100V5C166 2.79086 164.209 1 162 1H144.231M21.7773 100V24.5795M140.682 1H139.826M136.277 1H25.7773C23.5682 1 21.7773 2.79086 21.7773 5V21.0676" stroke="#4657AE" stroke-linecap="round" stroke-linejoin="round"/>
<path d="M63.599 96.3344H28.5781C28.0258 96.3344 27.5781 95.8867 27.5781 95.3344V8.41748C27.5781 7.86519 28.0258 7.41748 28.5781 7.41748H159.495C160.047 7.41748 160.495 7.8652 160.495 8.41748V95.3344C160.495 95.8867 160.047 96.3344 159.495 96.3344H66.8523" stroke="#4657AE" stroke-linecap="round" stroke-linejoin="round"/>
<path d="M184.334 100.917V102.357C184.334 107.13 178.892 111 172.179 111H13.1547C6.44186 111 1 107.13 1 102.357V100.917H92.6669H184.334Z" stroke="#4657AE" stroke-linecap="round" stroke-linejoin="round"/>
<path d="M70.155 46.8145C70.155 47.2624 69.9988 47.6035 69.6863 47.8379C69.3764 48.0723 68.9115 48.1895 68.2918 48.1895C67.974 48.1895 67.7032 48.1673 67.4793 48.123C67.2553 48.0814 67.0457 48.0189 66.8503 47.9355V46.9512C67.0717 47.0553 67.3204 47.1426 67.5964 47.2129C67.8751 47.2832 68.1199 47.3184 68.3308 47.3184C68.7631 47.3184 68.9793 47.1934 68.9793 46.9434C68.9793 46.8496 68.9506 46.7741 68.8933 46.7168C68.836 46.6569 68.7371 46.5905 68.5964 46.5176C68.4558 46.4421 68.2683 46.3548 68.0339 46.2559C67.698 46.1152 67.4506 45.985 67.2918 45.8652C67.1355 45.7454 67.0209 45.6087 66.948 45.4551C66.8777 45.2988 66.8425 45.1074 66.8425 44.8809C66.8425 44.4928 66.9923 44.1934 67.2918 43.9824C67.5938 43.7689 68.0209 43.6621 68.573 43.6621C69.099 43.6621 69.6108 43.7767 70.1082 44.0059L69.7488 44.8652C69.53 44.7715 69.3256 44.6947 69.1355 44.6348C68.9454 44.5749 68.7514 44.5449 68.5535 44.5449C68.2019 44.5449 68.0261 44.64 68.0261 44.8301C68.0261 44.9368 68.0821 45.0293 68.1941 45.1074C68.3087 45.1855 68.5574 45.3014 68.9402 45.4551C69.2813 45.5931 69.5313 45.722 69.6902 45.8418C69.849 45.9616 69.9662 46.0996 70.0418 46.2559C70.1173 46.4121 70.155 46.5983 70.155 46.8145ZM72.2293 45.7363L72.7488 45.0723L73.9714 43.7441H75.3152L73.5808 45.6387L75.4207 48.1113H74.0457L72.7878 46.3418L72.2761 46.752V48.1113H71.0847V42.0332H72.2761V44.7441L72.2136 45.7363H72.2293ZM78.8191 48.1113L78.5886 47.5176H78.5574C78.3569 47.7702 78.1498 47.946 77.9363 48.0449C77.7253 48.1413 77.4493 48.1895 77.1082 48.1895C76.6889 48.1895 76.3582 48.0697 76.116 47.8301C75.8764 47.5905 75.7566 47.2493 75.7566 46.8066C75.7566 46.3431 75.9181 46.002 76.241 45.7832C76.5665 45.5618 77.0561 45.4395 77.7097 45.416L78.4675 45.3926V45.2012C78.4675 44.7585 78.241 44.5371 77.7878 44.5371C77.4389 44.5371 77.0287 44.6426 76.5574 44.8535L76.1628 44.0488C76.6655 43.7858 77.2227 43.6543 77.8347 43.6543C78.4207 43.6543 78.8699 43.7819 79.1824 44.0371C79.4949 44.2923 79.6511 44.6803 79.6511 45.2012V48.1113H78.8191ZM78.4675 46.0879L78.0066 46.1035C77.6602 46.1139 77.4024 46.1764 77.2332 46.291C77.0639 46.4056 76.9793 46.5801 76.9793 46.8145C76.9793 47.1504 77.172 47.3184 77.5574 47.3184C77.8334 47.3184 78.0535 47.2389 78.2175 47.0801C78.3842 46.9212 78.4675 46.7103 78.4675 46.4473V46.0879ZM83.3191 43.6621C83.4806 43.6621 83.6147 43.6738 83.7214 43.6973L83.6316 44.8145C83.5352 44.7884 83.4181 44.7754 83.28 44.7754C82.8998 44.7754 82.603 44.873 82.3894 45.0684C82.1785 45.2637 82.073 45.5371 82.073 45.8887V48.1113H80.8816V43.7441H81.7839L81.9597 44.4785H82.0183C82.1537 44.2337 82.336 44.0371 82.5652 43.8887C82.797 43.7376 83.0483 43.6621 83.3191 43.6621ZM86.9441 43.6621C87.4597 43.6621 87.8634 43.8639 88.155 44.2676C88.4467 44.6686 88.5925 45.2194 88.5925 45.9199C88.5925 46.6413 88.4415 47.1999 88.1394 47.5957C87.8399 47.9915 87.4311 48.1895 86.9128 48.1895C86.3998 48.1895 85.9975 48.0033 85.7058 47.6309H85.6238L85.4246 48.1113H84.5144V42.0332H85.7058V43.4473C85.7058 43.627 85.6902 43.9147 85.6589 44.3105H85.7058C85.9845 43.8783 86.3972 43.6621 86.9441 43.6621ZM86.5613 44.6152C86.267 44.6152 86.0522 44.7064 85.9168 44.8887C85.7813 45.0684 85.711 45.3665 85.7058 45.7832V45.9121C85.7058 46.3809 85.7748 46.7168 85.9128 46.9199C86.0535 47.123 86.2748 47.2246 86.5769 47.2246C86.8217 47.2246 87.0157 47.1126 87.1589 46.8887C87.3048 46.6621 87.3777 46.334 87.3777 45.9043C87.3777 45.4746 87.3048 45.153 87.1589 44.9395C87.0131 44.7233 86.8139 44.6152 86.5613 44.6152ZM89.4089 47.5527C89.4089 47.334 89.4675 47.1686 89.5847 47.0566C89.7019 46.9447 89.8725 46.8887 90.0964 46.8887C90.3126 46.8887 90.4793 46.946 90.5964 47.0605C90.7162 47.1751 90.7761 47.3392 90.7761 47.5527C90.7761 47.7585 90.7162 47.9212 90.5964 48.041C90.4766 48.1582 90.31 48.2168 90.0964 48.2168C89.8777 48.2168 89.7084 48.1595 89.5886 48.0449C89.4688 47.9277 89.4089 47.7637 89.4089 47.5527ZM93.6316 48.1895C92.2722 48.1895 91.5925 47.4434 91.5925 45.9512C91.5925 45.209 91.7774 44.6426 92.1472 44.252C92.517 43.8587 93.047 43.6621 93.7371 43.6621C94.2423 43.6621 94.6954 43.7611 95.0964 43.959L94.7449 44.8809C94.5574 44.8053 94.3829 44.7441 94.2214 44.6973C94.06 44.6478 93.8985 44.623 93.7371 44.623C93.1173 44.623 92.8074 45.0632 92.8074 45.9434C92.8074 46.7975 93.1173 47.2246 93.7371 47.2246C93.9662 47.2246 94.1785 47.1947 94.3738 47.1348C94.5691 47.0723 94.7644 46.9759 94.9597 46.8457V47.8652C94.767 47.9876 94.5717 48.0723 94.3738 48.1191C94.1785 48.166 93.9311 48.1895 93.6316 48.1895ZM96.9246 45.9199C96.9246 46.3522 96.9949 46.679 97.1355 46.9004C97.2787 47.1217 97.5105 47.2324 97.8308 47.2324C98.1485 47.2324 98.3764 47.123 98.5144 46.9043C98.655 46.6829 98.7253 46.3548 98.7253 45.9199C98.7253 45.4876 98.655 45.1634 98.5144 44.9473C98.3738 44.7311 98.1433 44.623 97.823 44.623C97.5053 44.623 97.2761 44.7311 97.1355 44.9473C96.9949 45.1608 96.9246 45.485 96.9246 45.9199ZM99.9441 45.9199C99.9441 46.6309 99.7566 47.1868 99.3816 47.5879C99.0066 47.9889 98.4845 48.1895 97.8152 48.1895C97.3959 48.1895 97.0261 48.0983 96.7058 47.916C96.3855 47.7311 96.1394 47.4668 95.9675 47.123C95.7957 46.7793 95.7097 46.3783 95.7097 45.9199C95.7097 45.2064 95.8959 44.6517 96.2683 44.2559C96.6407 43.86 97.1642 43.6621 97.8386 43.6621C98.2579 43.6621 98.6277 43.7533 98.948 43.9355C99.2683 44.1178 99.5144 44.3796 99.6863 44.7207C99.8582 45.0618 99.9441 45.4616 99.9441 45.9199ZM104.839 48.1113H103.647V45.5605C103.647 45.2454 103.594 45.0098 103.487 44.8535C103.383 44.6947 103.218 44.6152 102.991 44.6152C102.686 44.6152 102.465 44.7272 102.327 44.9512C102.189 45.1751 102.12 45.5436 102.12 46.0566V48.1113H100.928V43.7441H101.839L101.999 44.3027H102.065C102.182 44.1022 102.352 43.946 102.573 43.834C102.794 43.7194 103.048 43.6621 103.335 43.6621C103.988 43.6621 104.431 43.8757 104.663 44.3027H104.768C104.886 44.0996 105.057 43.9421 105.284 43.8301C105.513 43.7181 105.771 43.6621 106.057 43.6621C106.552 43.6621 106.926 43.7897 107.178 44.0449C107.434 44.2975 107.561 44.7038 107.561 45.2637V48.1113H106.366V45.5605C106.366 45.2454 106.313 45.0098 106.206 44.8535C106.102 44.6947 105.936 44.6152 105.71 44.6152C105.418 44.6152 105.199 44.7194 105.053 44.9277C104.91 45.1361 104.839 45.4668 104.839 45.9199V48.1113ZM108.62 47.5527C108.62 47.334 108.678 47.1686 108.796 47.0566C108.913 46.9447 109.083 46.8887 109.307 46.8887C109.524 46.8887 109.69 46.946 109.807 47.0605C109.927 47.1751 109.987 47.3392 109.987 47.5527C109.987 47.7585 109.927 47.9212 109.807 48.041C109.688 48.1582 109.521 48.2168 109.307 48.2168C109.089 48.2168 108.919 48.1595 108.8 48.0449C108.68 47.9277 108.62 47.7637 108.62 47.5527ZM114.163 48.1113L114.003 47.5527H113.94C113.813 47.7559 113.632 47.9134 113.397 48.0254C113.163 48.1348 112.896 48.1895 112.596 48.1895C112.083 48.1895 111.697 48.0527 111.436 47.7793C111.176 47.5033 111.046 47.1074 111.046 46.5918V43.7441H112.237V46.2949C112.237 46.61 112.293 46.847 112.405 47.0059C112.517 47.1621 112.695 47.2402 112.94 47.2402C113.274 47.2402 113.514 47.1296 113.663 46.9082C113.811 46.6842 113.886 46.3145 113.886 45.7988V43.7441H115.077V48.1113H114.163ZM119.1 48.1113L118.87 47.5176H118.839C118.638 47.7702 118.431 47.946 118.218 48.0449C118.007 48.1413 117.731 48.1895 117.389 48.1895C116.97 48.1895 116.639 48.0697 116.397 47.8301C116.158 47.5905 116.038 47.2493 116.038 46.8066C116.038 46.3431 116.199 46.002 116.522 45.7832C116.848 45.5618 117.337 45.4395 117.991 45.416L118.749 45.3926V45.2012C118.749 44.7585 118.522 44.5371 118.069 44.5371C117.72 44.5371 117.31 44.6426 116.839 44.8535L116.444 44.0488C116.947 43.7858 117.504 43.6543 118.116 43.6543C118.702 43.6543 119.151 43.7819 119.464 44.0371C119.776 44.2923 119.932 44.6803 119.932 45.2012V48.1113H119.1ZM118.749 46.0879L118.288 46.1035C117.941 46.1139 117.684 46.1764 117.514 46.291C117.345 46.4056 117.261 46.5801 117.261 46.8145C117.261 47.1504 117.453 47.3184 117.839 47.3184C118.115 47.3184 118.335 47.2389 118.499 47.0801C118.665 46.9212 118.749 46.7103 118.749 46.4473V46.0879Z" fill="#4657AE"/>
<path d="M83.5 80H43.5C38.8056 80 35 76.1944 35 71.5V71.5C35 66.8056 38.8056 63 43.5 63H107.5C112.194 63 116 66.8056 116 71.5V71.5C116 76.1944 112.194 80 107.5 80H98.25" stroke="#4657AE" stroke-linecap="round"/>
<rect x="119.5" y="63.5" width="32" height="17" rx="8.5" fill="#FFCE3A" stroke="#4657AE"/>
<path d="M130.09 73.4141C130.09 73.9297 129.904 74.3359 129.531 74.6328C129.161 74.9297 128.646 75.0781 127.984 75.0781C127.375 75.0781 126.836 74.9635 126.367 74.7344V73.6094C126.753 73.7812 127.078 73.9023 127.344 73.9727C127.612 74.043 127.857 74.0781 128.078 74.0781C128.344 74.0781 128.547 74.0273 128.688 73.9258C128.831 73.8242 128.902 73.6732 128.902 73.4727C128.902 73.3607 128.871 73.2617 128.809 73.1758C128.746 73.0872 128.654 73.0026 128.531 72.9219C128.411 72.8411 128.165 72.7122 127.793 72.5352C127.444 72.3711 127.182 72.2135 127.008 72.0625C126.833 71.9115 126.694 71.7357 126.59 71.5352C126.486 71.3346 126.434 71.1003 126.434 70.832C126.434 70.3268 126.604 69.9297 126.945 69.6406C127.289 69.3516 127.763 69.207 128.367 69.207C128.664 69.207 128.947 69.2422 129.215 69.3125C129.486 69.3828 129.768 69.4818 130.062 69.6094L129.672 70.5508C129.367 70.4258 129.115 70.3385 128.914 70.2891C128.716 70.2396 128.521 70.2148 128.328 70.2148C128.099 70.2148 127.923 70.2682 127.801 70.375C127.678 70.4818 127.617 70.6211 127.617 70.793C127.617 70.8997 127.642 70.9935 127.691 71.0742C127.741 71.1523 127.819 71.2292 127.926 71.3047C128.035 71.3776 128.292 71.5104 128.695 71.7031C129.229 71.9583 129.595 72.2148 129.793 72.4727C129.991 72.7279 130.09 73.0417 130.09 73.4141ZM132.44 71.3984C132.187 71.3984 131.989 71.4792 131.846 71.6406C131.703 71.7995 131.621 72.026 131.6 72.3203H133.272C133.267 72.026 133.19 71.7995 133.041 71.6406C132.893 71.4792 132.692 71.3984 132.44 71.3984ZM132.608 75.0781C131.905 75.0781 131.355 74.8841 130.959 74.4961C130.564 74.1081 130.366 73.5586 130.366 72.8477C130.366 72.1159 130.548 71.5508 130.912 71.1523C131.28 70.7513 131.786 70.5508 132.432 70.5508C133.049 70.5508 133.53 70.7266 133.873 71.0781C134.217 71.4297 134.389 71.9154 134.389 72.5352V73.1133H131.573C131.586 73.4518 131.686 73.7161 131.873 73.9062C132.061 74.0964 132.324 74.1914 132.662 74.1914C132.926 74.1914 133.174 74.1641 133.409 74.1094C133.643 74.0547 133.888 73.9674 134.143 73.8477V74.7695C133.935 74.8737 133.712 74.9505 133.475 75C133.238 75.0521 132.949 75.0781 132.608 75.0781ZM138.989 75H137.798V72.4492C137.798 72.1341 137.742 71.8984 137.63 71.7422C137.518 71.5833 137.339 71.5039 137.095 71.5039C136.761 71.5039 136.52 71.6159 136.372 71.8398C136.223 72.0612 136.149 72.4297 136.149 72.9453V75H134.958V70.6328H135.868L136.028 71.1914H136.095C136.227 70.9805 136.41 70.8216 136.641 70.7148C136.876 70.6055 137.141 70.5508 137.438 70.5508C137.946 70.5508 138.332 70.6888 138.595 70.9648C138.858 71.2383 138.989 71.6341 138.989 72.1523V75ZM141.198 75.0781C140.685 75.0781 140.282 74.8789 139.988 74.4805C139.696 74.082 139.55 73.5299 139.55 72.8242C139.55 72.1081 139.698 71.5508 139.995 71.1523C140.295 70.7513 140.706 70.5508 141.23 70.5508C141.779 70.5508 142.198 70.7643 142.488 71.1914H142.527C142.467 70.8659 142.437 70.5755 142.437 70.3203V68.9219H143.632V75H142.718L142.488 74.4336H142.437C142.166 74.8633 141.753 75.0781 141.198 75.0781ZM141.616 74.1289C141.921 74.1289 142.144 74.0404 142.284 73.8633C142.428 73.6862 142.506 73.3854 142.519 72.9609V72.832C142.519 72.3633 142.446 72.0273 142.3 71.8242C142.157 71.6211 141.922 71.5195 141.597 71.5195C141.331 71.5195 141.124 71.6328 140.976 71.8594C140.83 72.0833 140.757 72.4102 140.757 72.8398C140.757 73.2695 140.831 73.5924 140.98 73.8086C141.128 74.0221 141.34 74.1289 141.616 74.1289Z" fill="#4657AE"/>
<path d="M129.531 74.6328L128.908 73.8509L128.905 73.853L129.531 74.6328ZM126.367 74.7344H125.367V75.3586L125.928 75.6328L126.367 74.7344ZM126.367 73.6094L126.774 72.6961L125.367 72.0685V73.6094H126.367ZM127.344 73.9727L127.088 74.9394L127.09 74.94L127.344 73.9727ZM128.688 73.9258L128.109 73.11L128.102 73.1151L128.688 73.9258ZM128.809 73.1758L127.992 73.7525L128 73.764L128.809 73.1758ZM128.531 72.9219L127.972 73.7512L127.981 73.7566L128.531 72.9219ZM127.793 72.5352L128.222 71.6321L128.218 71.6302L127.793 72.5352ZM127.008 72.0625L126.353 72.8186L127.008 72.0625ZM126.945 69.6406L126.302 68.8753L126.299 68.8777L126.945 69.6406ZM129.215 69.3125L128.961 70.2798L128.964 70.2804L129.215 69.3125ZM130.062 69.6094L130.986 69.9926L131.363 69.0835L130.46 68.6919L130.062 69.6094ZM129.672 70.5508L129.292 71.4759L130.214 71.854L130.596 70.934L129.672 70.5508ZM128.914 70.2891L128.672 71.2592L128.674 71.2599L128.914 70.2891ZM127.691 71.0742L126.839 71.5968L126.843 71.6031L126.847 71.6093L127.691 71.0742ZM127.926 71.3047L127.348 72.1211L127.36 72.1291L127.371 72.1367L127.926 71.3047ZM128.695 71.7031L129.127 70.8009L129.126 70.8007L128.695 71.7031ZM129.793 72.4727L129 73.0816L129.003 73.0855L129.793 72.4727ZM129.09 73.4141C129.09 73.6542 129.021 73.761 128.908 73.8509L130.155 75.4147C130.787 74.9108 131.09 74.2052 131.09 73.4141H129.09ZM128.905 73.853C128.772 73.9604 128.507 74.0781 127.984 74.0781V76.0781C128.785 76.0781 129.551 75.899 130.157 75.4126L128.905 73.853ZM127.984 74.0781C127.502 74.0781 127.117 73.9879 126.806 73.836L125.928 75.6328C126.555 75.9391 127.248 76.0781 127.984 76.0781V74.0781ZM127.367 74.7344V73.6094H125.367V74.7344H127.367ZM125.96 74.5227C126.371 74.7061 126.751 74.8501 127.088 74.9394L127.6 73.006C127.406 72.9546 127.134 72.8564 126.774 72.6961L125.96 74.5227ZM127.09 74.94C127.421 75.0268 127.753 75.0781 128.078 75.0781V73.0781C127.961 73.0781 127.803 73.0592 127.597 73.0053L127.09 74.94ZM128.078 75.0781C128.449 75.0781 128.893 75.0108 129.273 74.7365L128.102 73.1151C128.154 73.0777 128.19 73.0691 128.187 73.0699C128.186 73.0702 128.177 73.0724 128.158 73.0744C128.139 73.0764 128.113 73.0781 128.078 73.0781V75.0781ZM129.266 74.7415C129.714 74.4237 129.902 73.9442 129.902 73.4727H127.902C127.902 73.4539 127.906 73.3904 127.945 73.3079C127.986 73.2207 128.048 73.1532 128.109 73.11L129.266 74.7415ZM129.902 73.4727C129.902 73.1614 129.811 72.854 129.617 72.5876L128 73.764C127.969 73.7218 127.943 73.6714 127.925 73.6156C127.908 73.5603 127.902 73.5108 127.902 73.4727H129.902ZM129.626 72.5991C129.471 72.3797 129.274 72.2138 129.082 72.0871L127.981 73.7566C128.005 73.7727 128.016 73.7822 128.017 73.7835C128.019 73.7847 128.008 73.775 127.992 73.7525L129.626 72.5991ZM129.09 72.0926C128.899 71.9637 128.586 71.8049 128.222 71.6321L127.364 73.4383C127.745 73.6196 127.924 73.7186 127.972 73.7511L129.09 72.0926ZM128.218 71.6302C127.905 71.4827 127.737 71.3709 127.662 71.3064L126.353 72.8186C126.628 73.0561 126.983 73.2595 127.367 73.4401L128.218 71.6302ZM127.662 71.3064C127.581 71.2363 127.522 71.1601 127.477 71.0742L125.702 71.9961C125.866 72.3113 126.085 72.5866 126.353 72.8186L127.662 71.3064ZM127.477 71.0742C127.46 71.0404 127.434 70.9697 127.434 70.832H125.434C125.434 71.2308 125.512 71.6289 125.702 71.9961L127.477 71.0742ZM127.434 70.832C127.434 70.578 127.506 70.4766 127.592 70.4036L126.299 68.8777C125.703 69.3828 125.434 70.0757 125.434 70.832H127.434ZM127.589 70.406C127.699 70.3138 127.917 70.207 128.367 70.207V68.207C127.609 68.207 126.88 68.3893 126.302 68.8753L127.589 70.406ZM128.367 70.207C128.585 70.207 128.781 70.2327 128.961 70.2798L129.468 68.3452C129.112 68.2517 128.744 68.207 128.367 68.207V70.207ZM128.964 70.2804C129.178 70.336 129.411 70.4169 129.665 70.5268L130.46 68.6919C130.125 68.5466 129.794 68.4296 129.466 68.3446L128.964 70.2804ZM129.139 69.2261L128.748 70.1675L130.596 70.934L130.986 69.9926L129.139 69.2261ZM130.051 69.6256C129.725 69.4915 129.421 69.3842 129.154 69.3182L128.674 71.2599C128.808 71.2928 129.01 71.36 129.292 71.4759L130.051 69.6256ZM129.157 69.3189C128.884 69.2508 128.607 69.2148 128.328 69.2148V71.2148C128.434 71.2148 128.548 71.2284 128.672 71.2592L129.157 69.3189ZM128.328 69.2148C127.956 69.2148 127.511 69.3012 127.143 69.6214L128.458 71.1286C128.4 71.1796 128.345 71.2027 128.315 71.2117C128.289 71.2197 128.289 71.2148 128.328 71.2148V69.2148ZM127.143 69.6214C126.789 69.9303 126.617 70.3513 126.617 70.793H128.617C128.617 70.8276 128.611 70.8892 128.579 70.9617C128.546 71.0357 128.5 71.0919 128.458 71.1286L127.143 69.6214ZM126.617 70.793C126.617 71.06 126.681 71.3394 126.839 71.5968L128.544 70.5517C128.603 70.6476 128.617 70.7394 128.617 70.793H126.617ZM126.847 71.6093C126.989 71.8334 127.176 71.9991 127.348 72.1211L128.503 70.4883C128.486 70.4758 128.482 70.4717 128.488 70.4774C128.494 70.4831 128.513 70.503 128.536 70.5392L126.847 71.6093ZM127.371 72.1367C127.552 72.257 127.878 72.4209 128.264 72.6056L129.126 70.8007C128.929 70.7068 128.775 70.6305 128.66 70.571C128.603 70.5412 128.558 70.5174 128.526 70.4989C128.491 70.4793 128.478 70.4711 128.48 70.4726L127.371 72.1367ZM128.264 72.6053C128.754 72.8397 128.947 73.0133 129 73.0816L130.586 71.8637C130.243 71.4164 129.704 71.077 129.127 70.8009L128.264 72.6053ZM129.003 73.0855C129.044 73.1392 129.09 73.2281 129.09 73.4141H131.09C131.09 72.8553 130.937 72.3165 130.583 71.8598L129.003 73.0855ZM131.846 71.6406L132.589 72.3103L132.594 72.3042L131.846 71.6406ZM131.6 72.3203L130.602 72.2497L130.527 73.3203H131.6V72.3203ZM133.272 72.3203V73.3203H134.29L134.272 72.3026L133.272 72.3203ZM133.041 71.6406L132.305 72.3174L132.311 72.3234L133.041 71.6406ZM130.912 71.1523L130.175 70.4771L130.175 70.4773L130.912 71.1523ZM134.389 73.1133V74.1133H135.389V73.1133H134.389ZM131.573 73.1133V72.1133H130.533L130.573 73.1517L131.573 73.1133ZM134.143 73.8477H135.143V72.2736L133.718 72.9424L134.143 73.8477ZM134.143 74.7695L134.59 75.664L135.143 75.3876V74.7695H134.143ZM133.475 75L133.271 74.0211L133.26 74.0233L133.475 75ZM132.44 70.3984C131.955 70.3984 131.464 70.5645 131.098 70.977L132.594 72.3042C132.565 72.337 132.524 72.3668 132.48 72.3849C132.439 72.4015 132.42 72.3984 132.44 72.3984V70.3984ZM131.103 70.971C130.763 71.3483 130.633 71.8161 130.602 72.2497L132.598 72.3909C132.603 72.3161 132.614 72.2797 132.617 72.2701C132.62 72.263 132.614 72.2824 132.589 72.3103L131.103 70.971ZM131.6 73.3203H133.272V71.3203H131.6V73.3203ZM134.272 72.3026C134.264 71.8495 134.141 71.3531 133.772 70.9579L132.311 72.3234C132.296 72.3074 132.284 72.2913 132.276 72.2771C132.268 72.2631 132.264 72.2535 132.263 72.2508C132.262 72.2468 132.271 72.2713 132.272 72.338L134.272 72.3026ZM133.778 70.9638C133.41 70.5644 132.926 70.3984 132.44 70.3984V72.3984C132.459 72.3984 132.443 72.4014 132.406 72.3866C132.366 72.3706 132.33 72.3446 132.305 72.3174L133.778 70.9638ZM132.608 74.0781C132.093 74.0781 131.822 73.941 131.659 73.782L130.259 75.2102C130.889 75.8273 131.717 76.0781 132.608 76.0781V74.0781ZM131.659 73.782C131.506 73.6314 131.366 73.3697 131.366 72.8477H129.366C129.366 73.7475 129.621 74.5848 130.259 75.2102L131.659 73.782ZM131.366 72.8477C131.366 72.2759 131.507 71.9845 131.65 71.8274L130.175 70.4773C129.589 71.1171 129.366 71.9559 129.366 72.8477H131.366ZM131.65 71.8276C131.792 71.6723 132.009 71.5508 132.432 71.5508V69.5508C131.563 69.5508 130.767 69.8303 130.175 70.4771L131.65 71.8276ZM132.432 71.5508C132.853 71.5508 133.048 71.6645 133.158 71.7772L134.588 70.379C134.011 69.7886 133.246 69.5508 132.432 69.5508V71.5508ZM133.158 71.7772C133.275 71.8964 133.389 72.1052 133.389 72.5352H135.389C135.389 71.7255 135.159 70.963 134.588 70.379L133.158 71.7772ZM133.389 72.5352V73.1133H135.389V72.5352H133.389ZM134.389 72.1133H131.573V74.1133H134.389V72.1133ZM130.573 73.1517C130.593 73.6701 130.755 74.1967 131.161 74.6085L132.585 73.204C132.595 73.2138 132.596 73.2206 132.593 73.2108C132.588 73.1976 132.575 73.1567 132.572 73.0748L130.573 73.1517ZM131.161 74.6085C131.584 75.0369 132.132 75.1914 132.662 75.1914V73.1914C132.585 73.1914 132.554 73.1805 132.551 73.1796C132.55 73.1793 132.555 73.181 132.563 73.186C132.571 73.1912 132.579 73.1975 132.585 73.204L131.161 74.6085ZM132.662 75.1914C132.995 75.1914 133.32 75.1568 133.636 75.0832L133.181 73.1355C133.028 73.1713 132.856 73.1914 132.662 73.1914V75.1914ZM133.636 75.0832C133.949 75.0102 134.26 74.8975 134.568 74.7529L133.718 72.9424C133.516 73.0374 133.337 73.0992 133.181 73.1355L133.636 75.0832ZM133.143 73.8477V74.7695H135.143V73.8477H133.143ZM133.696 73.8751C133.567 73.9393 133.427 73.9885 133.271 74.0211L133.679 75.9789C133.997 75.9125 134.302 75.8081 134.59 75.664L133.696 73.8751ZM133.26 74.0233C133.116 74.0551 132.903 74.0781 132.608 74.0781V76.0781C132.994 76.0781 133.36 76.0491 133.69 75.9767L133.26 74.0233ZM138.989 75V76H139.989V75H138.989ZM137.798 75H136.798V76H137.798V75ZM137.63 71.7422L136.812 72.3184L136.817 72.3247L137.63 71.7422ZM136.372 71.8398L137.202 72.3968L137.205 72.3923L136.372 71.8398ZM136.149 75V76H137.149V75H136.149ZM134.958 75H133.958V76H134.958V75ZM134.958 70.6328V69.6328H133.958V70.6328H134.958ZM135.868 70.6328L136.829 70.3572L136.622 69.6328H135.868V70.6328ZM136.028 71.1914L135.067 71.467L135.275 72.1914H136.028V71.1914ZM136.095 71.1914V72.1914H136.647L136.941 71.7242L136.095 71.1914ZM136.641 70.7148L137.06 71.6231L137.064 71.621L136.641 70.7148ZM138.595 70.9648L137.871 71.6547L137.874 71.6581L138.595 70.9648ZM138.989 74H137.798V76H138.989V74ZM138.798 75V72.4492H136.798V75H138.798ZM138.798 72.4492C138.798 72.047 138.732 71.5634 138.443 71.1597L136.817 72.3247C136.78 72.2736 136.777 72.2442 136.783 72.2673C136.788 72.2907 136.798 72.3476 136.798 72.4492H138.798ZM138.447 71.166C138.099 70.6726 137.57 70.5039 137.095 70.5039V72.5039C137.111 72.5039 137.072 72.5068 137.005 72.477C136.93 72.4437 136.861 72.3871 136.812 72.3183L138.447 71.166ZM137.095 70.5039C136.518 70.5039 135.918 70.7152 135.538 71.2874L137.205 72.3923C137.194 72.409 137.177 72.4297 137.154 72.45C137.13 72.4703 137.106 72.485 137.085 72.4947C137.045 72.5137 137.037 72.5039 137.095 72.5039V70.5039ZM135.541 71.2829C135.219 71.7629 135.149 72.3871 135.149 72.9453H137.149C137.149 72.7312 137.165 72.58 137.185 72.4797C137.206 72.3751 137.225 72.3637 137.202 72.3968L135.541 71.2829ZM135.149 72.9453V75H137.149V72.9453H135.149ZM136.149 74H134.958V76H136.149V74ZM135.958 75V70.6328H133.958V75H135.958ZM134.958 71.6328H135.868V69.6328H134.958V71.6328ZM134.907 70.9084L135.067 71.467L136.989 70.9158L136.829 70.3572L134.907 70.9084ZM136.028 72.1914H136.095V70.1914H136.028V72.1914ZM136.941 71.7242C136.968 71.6813 137 71.6508 137.06 71.6231L136.223 69.8066C135.82 69.9924 135.487 70.2796 135.248 70.6586L136.941 71.7242ZM137.064 71.621C137.148 71.582 137.266 71.5508 137.438 71.5508V69.5508C137.017 69.5508 136.604 69.629 136.219 69.8087L137.064 71.621ZM137.438 71.5508C137.767 71.5508 137.853 71.6361 137.871 71.6547L139.319 70.275C138.81 69.7415 138.125 69.5508 137.438 69.5508V71.5508ZM137.874 71.6581C137.9 71.6858 137.989 71.7963 137.989 72.1523H139.989C139.989 71.4719 139.815 70.7908 139.315 70.2716L137.874 71.6581ZM137.989 72.1523V75H139.989V72.1523H137.989ZM139.988 74.4805L139.181 75.0712L139.183 75.0746L139.988 74.4805ZM139.995 71.1523L139.194 70.554L139.193 70.5549L139.995 71.1523ZM142.487 71.1914L141.659 71.7519L141.957 72.1914H142.487V71.1914ZM142.527 71.1914V72.1914H143.727L143.51 71.0104L142.527 71.1914ZM142.437 68.9219V67.9219H141.437V68.9219H142.437ZM143.632 68.9219H144.632V67.9219H143.632V68.9219ZM143.632 75V76H144.632V75H143.632ZM142.718 75L141.792 75.3769L142.045 76H142.718V75ZM142.487 74.4336L143.414 74.0567L143.16 73.4336H142.487V74.4336ZM142.437 74.4336V73.4336H141.885L141.591 73.9004L142.437 74.4336ZM142.284 73.8633L141.507 73.2344L141.501 73.2414L142.284 73.8633ZM142.519 72.9609L143.518 72.9916L143.519 72.9763V72.9609H142.519ZM142.3 71.8242L141.483 72.4005L141.488 72.4074L142.3 71.8242ZM140.976 71.8594L140.139 71.3113L140.138 71.3137L140.976 71.8594ZM140.98 73.8086L140.155 74.3747L140.159 74.3794L140.98 73.8086ZM141.198 74.0781C140.989 74.0781 140.89 74.019 140.792 73.8864L139.183 75.0746C139.674 75.7388 140.381 76.0781 141.198 76.0781V74.0781ZM140.794 73.8898C140.672 73.7223 140.55 73.4056 140.55 72.8242H138.55C138.55 73.6543 138.72 74.4418 139.181 75.0711L140.794 73.8898ZM140.55 72.8242C140.55 72.2317 140.675 71.9143 140.797 71.7498L139.193 70.5549C138.722 71.1873 138.55 71.9844 138.55 72.8242H140.55ZM140.797 71.7507C140.897 71.6157 141.005 71.5508 141.23 71.5508V69.5508C140.408 69.5508 139.692 69.8869 139.194 70.554L140.797 71.7507ZM141.23 71.5508C141.473 71.5508 141.57 71.6204 141.659 71.7519L143.316 70.6309C142.827 69.9083 142.085 69.5508 141.23 69.5508V71.5508ZM142.487 72.1914H142.527V70.1914H142.487V72.1914ZM143.51 71.0104C143.458 70.7281 143.437 70.5001 143.437 70.3203H141.437C141.437 70.651 141.475 71.0037 141.543 71.3724L143.51 71.0104ZM143.437 70.3203V68.9219H141.437V70.3203H143.437ZM142.437 69.9219H143.632V67.9219H142.437V69.9219ZM142.632 68.9219V75H144.632V68.9219H142.632ZM143.632 74H142.718V76H143.632V74ZM143.644 74.6231L143.414 74.0567L141.561 74.8105L141.792 75.3769L143.644 74.6231ZM142.487 73.4336H142.437V75.4336H142.487V73.4336ZM141.591 73.9004C141.522 74.0089 141.447 74.0781 141.198 74.0781V76.0781C142.059 76.0781 142.809 75.7176 143.283 74.9668L141.591 73.9004ZM141.616 75.1289C142.113 75.1289 142.676 74.9777 143.067 74.4852L141.501 73.2414C141.522 73.2159 141.546 73.1922 141.573 73.1723C141.6 73.1525 141.625 73.1403 141.642 73.1333C141.676 73.12 141.675 73.1289 141.616 73.1289V75.1289ZM143.062 74.4922C143.418 74.0513 143.504 73.4708 143.518 72.9916L141.519 72.9303C141.514 73.0931 141.497 73.1961 141.483 73.2535C141.467 73.3133 141.462 73.2893 141.507 73.2344L143.062 74.4922ZM143.519 72.9609V72.832H141.519V72.9609H143.519ZM143.519 72.832C143.519 72.3112 143.448 71.7082 143.112 71.241L141.488 72.4074C141.457 72.3645 141.469 72.3594 141.487 72.4406C141.504 72.5189 141.519 72.6451 141.519 72.832H143.519ZM143.117 71.2479C142.731 70.6997 142.136 70.5195 141.597 70.5195V72.5195C141.659 72.5195 141.657 72.5296 141.619 72.5133C141.599 72.5047 141.574 72.4906 141.548 72.4692C141.521 72.4476 141.499 72.4236 141.483 72.4005L143.117 71.2479ZM141.597 70.5195C140.986 70.5195 140.468 70.8095 140.139 71.3113L141.812 72.4074C141.81 72.411 141.783 72.4486 141.722 72.4818C141.661 72.5153 141.61 72.5195 141.597 72.5195V70.5195ZM140.138 71.3137C139.84 71.7711 139.757 72.3236 139.757 72.8398H141.757C141.757 72.6788 141.771 72.5654 141.788 72.4902C141.804 72.4151 141.82 72.3951 141.814 72.405L140.138 71.3137ZM139.757 72.8398C139.757 73.3544 139.84 73.9162 140.155 74.3747L141.804 73.2425C141.817 73.2613 141.803 73.2503 141.787 73.1803C141.771 73.1102 141.757 73.0002 141.757 72.8398H139.757ZM140.159 74.3794C140.507 74.8808 141.037 75.1289 141.616 75.1289V73.1289C141.609 73.1289 141.645 73.1282 141.7 73.1555C141.756 73.1839 141.789 73.221 141.801 73.2378L140.159 74.3794Z" fill="#4657AE"/>
<path d="M40.7188 72.4854H39.1641V71.79H40.7188V70.1963H41.4219V71.79H42.9805V72.4854H41.4219V74.0713H40.7188V72.4854ZM47.3672 70.5596C47.3672 70.9215 47.2617 71.2236 47.0508 71.4658C46.8398 71.7054 46.543 71.8669 46.1602 71.9502V71.9814C46.6185 72.0387 46.9622 72.182 47.1914 72.4111C47.4206 72.6377 47.5352 72.9398 47.5352 73.3174C47.5352 73.8669 47.3411 74.2913 46.9531 74.5908C46.5651 74.8877 46.013 75.0361 45.2969 75.0361C44.6641 75.0361 44.1302 74.9333 43.6953 74.7275V73.9111C43.9375 74.0309 44.194 74.1234 44.4648 74.1885C44.7357 74.2536 44.9961 74.2861 45.2461 74.2861C45.6888 74.2861 46.0195 74.2041 46.2383 74.04C46.457 73.876 46.5664 73.6221 46.5664 73.2783C46.5664 72.9736 46.4453 72.7497 46.2031 72.6064C45.9609 72.4632 45.5807 72.3916 45.0625 72.3916H44.5664V71.6455H45.0703C45.9818 71.6455 46.4375 71.3304 46.4375 70.7002C46.4375 70.4554 46.3581 70.2666 46.1992 70.1338C46.0404 70.001 45.806 69.9346 45.4961 69.9346C45.2799 69.9346 45.0716 69.9658 44.8711 70.0283C44.6706 70.0882 44.4336 70.2067 44.1602 70.3838L43.7109 69.7432C44.2344 69.3577 44.8424 69.165 45.5352 69.165C46.1107 69.165 46.5599 69.2887 46.8828 69.5361C47.2057 69.7835 47.3672 70.1247 47.3672 70.5596ZM50.2109 69.1729C50.7526 69.1729 51.181 69.2979 51.4961 69.5479C51.8112 69.7952 51.9688 70.1273 51.9688 70.5439C51.9688 71.1299 51.6172 71.596 50.9141 71.9424C51.362 72.1663 51.6797 72.402 51.8672 72.6494C52.0573 72.8968 52.1523 73.1729 52.1523 73.4775C52.1523 73.9489 51.9792 74.3265 51.6328 74.6104C51.2865 74.8942 50.8177 75.0361 50.2266 75.0361C49.6068 75.0361 49.1263 74.9033 48.7852 74.6377C48.444 74.3721 48.2734 73.9958 48.2734 73.5088C48.2734 73.1911 48.362 72.9059 48.5391 72.6533C48.7188 72.3981 49.0117 72.1715 49.418 71.9736C49.069 71.7653 48.8203 71.5452 48.6719 71.3135C48.5234 71.0817 48.4492 70.8213 48.4492 70.5322C48.4492 70.1182 48.612 69.7887 48.9375 69.5439C49.263 69.2965 49.6875 69.1729 50.2109 69.1729ZM49.1523 73.4775C49.1523 73.7484 49.2474 73.9593 49.4375 74.1104C49.6276 74.2588 49.8854 74.333 50.2109 74.333C50.5469 74.333 50.8073 74.2562 50.9922 74.1025C51.1797 73.9463 51.2734 73.7354 51.2734 73.4697C51.2734 73.2588 51.1875 73.0661 51.0156 72.8916C50.8438 72.7171 50.5833 72.5557 50.2344 72.4072L50.1211 72.3564C49.7773 72.5075 49.5299 72.6742 49.3789 72.8564C49.2279 73.0361 49.1523 73.2432 49.1523 73.4775ZM50.2031 69.8799C49.9427 69.8799 49.7331 69.945 49.5742 70.0752C49.4154 70.2028 49.3359 70.3773 49.3359 70.5986C49.3359 70.734 49.3646 70.8551 49.4219 70.9619C49.4792 71.0687 49.5625 71.1663 49.6719 71.2549C49.7812 71.3408 49.9661 71.445 50.2266 71.5674C50.5391 71.4294 50.7591 71.2848 50.8867 71.1338C51.0169 70.9801 51.082 70.8018 51.082 70.5986C51.082 70.3773 51.0013 70.2028 50.8398 70.0752C50.681 69.945 50.4688 69.8799 50.2031 69.8799Z" fill="#4C4F5F"/>
<path d="M40.7188 72.4854H41.7188V71.4854H40.7188V72.4854ZM39.1641 72.4854H38.1641V73.4854H39.1641V72.4854ZM39.1641 71.79V70.79H38.1641V71.79H39.1641ZM40.7188 71.79V72.79H41.7188V71.79H40.7188ZM40.7188 70.1963V69.1963H39.7188V70.1963H40.7188ZM41.4219 70.1963H42.4219V69.1963H41.4219V70.1963ZM41.4219 71.79H40.4219V72.79H41.4219V71.79ZM42.9805 71.79H43.9805V70.79H42.9805V71.79ZM42.9805 72.4854V73.4854H43.9805V72.4854H42.9805ZM41.4219 72.4854V71.4854H40.4219V72.4854H41.4219ZM41.4219 74.0713V75.0713H42.4219V74.0713H41.4219ZM40.7188 74.0713H39.7188V75.0713H40.7188V74.0713ZM40.7188 71.4854H39.1641V73.4854H40.7188V71.4854ZM40.1641 72.4854V71.79H38.1641V72.4854H40.1641ZM39.1641 72.79H40.7188V70.79H39.1641V72.79ZM41.7188 71.79V70.1963H39.7188V71.79H41.7188ZM40.7188 71.1963H41.4219V69.1963H40.7188V71.1963ZM40.4219 70.1963V71.79H42.4219V70.1963H40.4219ZM41.4219 72.79H42.9805V70.79H41.4219V72.79ZM41.9805 71.79V72.4854H43.9805V71.79H41.9805ZM42.9805 71.4854H41.4219V73.4854H42.9805V71.4854ZM40.4219 72.4854V74.0713H42.4219V72.4854H40.4219ZM41.4219 73.0713H40.7188V75.0713H41.4219V73.0713ZM41.7188 74.0713V72.4854H39.7188V74.0713H41.7188ZM47.0508 71.4658L47.8013 72.1266L47.8049 72.1226L47.0508 71.4658ZM46.1602 71.9502L45.9475 70.9731L45.1602 71.1445V71.9502H46.1602ZM46.1602 71.9814H45.1602V72.8642L46.0361 72.9737L46.1602 71.9814ZM47.1914 72.4111L46.4843 73.1183L46.4884 73.1223L47.1914 72.4111ZM46.9531 74.5908L47.5608 75.385L47.5641 75.3825L46.9531 74.5908ZM43.6953 74.7275H42.6953V75.3607L43.2677 75.6315L43.6953 74.7275ZM43.6953 73.9111L44.1387 73.0148L42.6953 72.3009V73.9111H43.6953ZM44.5664 72.3916H43.5664V73.3916H44.5664V72.3916ZM44.5664 71.6455V70.6455H43.5664V71.6455H44.5664ZM44.8711 70.0283L45.1573 70.9866L45.1687 70.983L44.8711 70.0283ZM44.1602 70.3838L43.3414 70.9579L43.8948 71.7471L44.7037 71.2231L44.1602 70.3838ZM43.7109 69.7432L43.118 68.9379L42.3312 69.5173L42.8922 70.3173L43.7109 69.7432ZM46.3672 70.5596C46.3672 70.7129 46.3288 70.7722 46.2967 70.809L47.8049 72.1226C48.1947 71.6751 48.3672 71.1302 48.3672 70.5596H46.3672ZM46.3002 70.805C46.2597 70.851 46.1701 70.9246 45.9475 70.9731L46.3729 72.9273C46.9158 72.8091 47.42 72.5598 47.8013 72.1266L46.3002 70.805ZM45.1602 71.9502V71.9814H47.1602V71.9502H45.1602ZM46.0361 72.9737C46.3651 73.0149 46.467 73.1009 46.4843 73.1182L47.8985 71.704C47.4575 71.263 46.8718 71.0626 46.2842 70.9892L46.0361 72.9737ZM46.4884 73.1223C46.4949 73.1288 46.5352 73.1574 46.5352 73.3174H48.5352C48.5352 72.7222 48.3462 72.1466 47.8945 71.7L46.4884 73.1223ZM46.5352 73.3174C46.5352 73.5998 46.4528 73.7138 46.3421 73.7992L47.5641 75.3825C48.2295 74.8689 48.5352 74.1339 48.5352 73.3174H46.5352ZM46.3455 73.7966C46.1966 73.9106 45.8917 74.0361 45.2969 74.0361V76.0361C46.1343 76.0361 46.9337 75.8648 47.5608 75.385L46.3455 73.7966ZM45.2969 74.0361C44.7673 74.0361 44.3889 73.9494 44.1229 73.8236L43.2677 75.6315C43.8715 75.9171 44.5608 76.0361 45.2969 76.0361V74.0361ZM44.6953 74.7275V73.9111H42.6953V74.7275H44.6953ZM43.252 74.8075C43.563 74.9613 43.89 75.0788 44.2311 75.1608L44.6986 73.2162C44.498 73.168 44.312 73.1005 44.1387 73.0148L43.252 74.8075ZM44.2311 75.1608C44.5699 75.2422 44.909 75.2861 45.2461 75.2861V73.2861C45.0832 73.2861 44.9014 73.2649 44.6986 73.2162L44.2311 75.1608ZM45.2461 75.2861C45.7818 75.2861 46.3685 75.1923 46.8383 74.84L45.6383 73.24C45.6589 73.2246 45.6518 73.2376 45.5854 73.254C45.5182 73.2707 45.409 73.2861 45.2461 73.2861V75.2861ZM46.8383 74.84C47.3728 74.4392 47.5664 73.8472 47.5664 73.2783H45.5664C45.5664 73.3462 45.5554 73.3554 45.566 73.3309C45.5714 73.3183 45.5808 73.3011 45.5953 73.2826C45.6098 73.2642 45.6251 73.2499 45.6383 73.24L46.8383 74.84ZM47.5664 73.2783C47.5664 72.6556 47.288 72.0863 46.7122 71.7457L45.6941 73.4672C45.6759 73.4564 45.6306 73.4215 45.5959 73.3575C45.5633 73.2972 45.5664 73.2595 45.5664 73.2783H47.5664ZM46.7122 71.7457C46.2339 71.4629 45.6317 71.3916 45.0625 71.3916V73.3916C45.279 73.3916 45.4387 73.4068 45.5512 73.428C45.6669 73.4498 45.7028 73.4724 45.6941 73.4672L46.7122 71.7457ZM45.0625 71.3916H44.5664V73.3916H45.0625V71.3916ZM45.5664 72.3916V71.6455H43.5664V72.3916H45.5664ZM44.5664 72.6455H45.0703V70.6455H44.5664V72.6455ZM45.0703 72.6455C45.6104 72.6455 46.1929 72.5578 46.6644 72.2317C47.2028 71.8595 47.4375 71.2913 47.4375 70.7002H45.4375C45.4375 70.7372 45.4311 70.7213 45.4513 70.6795C45.4737 70.6329 45.5067 70.6006 45.527 70.5866C45.5408 70.5771 45.523 70.5937 45.4439 70.612C45.3647 70.6302 45.2437 70.6455 45.0703 70.6455V72.6455ZM47.4375 70.7002C47.4375 70.219 47.2689 69.7247 46.8406 69.3666L45.5578 70.901C45.5162 70.8662 45.479 70.817 45.4562 70.7628C45.4352 70.7129 45.4375 70.6855 45.4375 70.7002H47.4375ZM46.8406 69.3666C46.4313 69.0244 45.9282 68.9346 45.4961 68.9346V70.9346C45.5826 70.9346 45.6235 70.9442 45.6317 70.9465C45.6372 70.9481 45.6036 70.9393 45.5578 70.901L46.8406 69.3666ZM45.4961 68.9346C45.182 68.9346 44.8732 68.9802 44.5735 69.0736L45.1687 70.983C45.2701 70.9514 45.3779 70.9346 45.4961 70.9346V68.9346ZM44.5849 69.0702C44.2575 69.1679 43.9307 69.341 43.6166 69.5444L44.7037 71.2231C44.9365 71.0724 45.0836 71.0085 45.1573 70.9865L44.5849 69.0702ZM44.9789 69.8097L44.5297 69.169L42.8922 70.3173L43.3414 70.9579L44.9789 69.8097ZM44.3039 70.5484C44.6439 70.2981 45.0409 70.165 45.5352 70.165V68.165C44.644 68.165 43.8249 68.4174 43.118 68.9379L44.3039 70.5484ZM45.5352 70.165C45.9797 70.165 46.1857 70.2618 46.2746 70.3299L47.491 68.7423C46.9341 68.3157 46.2417 68.165 45.5352 68.165V70.165ZM46.2746 70.3299C46.3314 70.3735 46.3672 70.4109 46.3672 70.5596H48.3672C48.3672 69.8384 48.08 69.1936 47.491 68.7423L46.2746 70.3299ZM51.4961 69.5479L50.8746 70.3313L50.8786 70.3344L51.4961 69.5479ZM50.9141 71.9424L50.4722 71.0453L48.6646 71.9357L50.4668 72.8368L50.9141 71.9424ZM51.8672 72.6494L51.0702 73.2534L51.0743 73.2587L51.8672 72.6494ZM51.6328 74.6104L50.9989 73.8369L51.6328 74.6104ZM48.5391 72.6533L47.7214 72.0776L47.7202 72.0793L48.5391 72.6533ZM49.418 71.9736L49.8559 72.8726L51.5182 72.0628L49.9306 71.115L49.418 71.9736ZM48.9375 69.5439L49.5385 70.3432L49.5426 70.3401L48.9375 69.5439ZM49.4375 74.1104L48.8154 74.8933L48.8221 74.8985L49.4375 74.1104ZM50.9922 74.1025L51.6313 74.8716L51.6324 74.8708L50.9922 74.1025ZM51.0156 72.8916L51.728 72.1898L51.0156 72.8916ZM50.2344 72.4072L49.8253 73.3197L49.8341 73.3237L49.8429 73.3274L50.2344 72.4072ZM50.1211 72.3564L50.5301 71.4439L50.1252 71.2624L49.7188 71.4409L50.1211 72.3564ZM49.3789 72.8564L50.1444 73.4999L50.1489 73.4945L49.3789 72.8564ZM49.5742 70.0752L50.2005 70.8549L50.2081 70.8486L49.5742 70.0752ZM49.4219 70.9619L50.303 70.4891L49.4219 70.9619ZM49.6719 71.2549L49.0427 72.0321L49.0483 72.0367L49.0541 72.0412L49.6719 71.2549ZM50.2266 71.5674L49.8012 72.4724L50.2137 72.6663L50.6306 72.4821L50.2266 71.5674ZM50.8867 71.1338L50.1238 70.4873L50.1228 70.4884L50.8867 71.1338ZM50.8398 70.0752L50.2059 70.8486L50.2128 70.8542L50.2198 70.8598L50.8398 70.0752ZM50.2109 70.1729C50.6049 70.1729 50.7889 70.2633 50.8746 70.3312L52.1176 68.7645C51.573 68.3324 50.9003 68.1729 50.2109 68.1729V70.1729ZM50.8786 70.3344C50.9412 70.3836 50.9688 70.42 50.9688 70.5439H52.9688C52.9688 69.8346 52.6812 69.2069 52.1136 68.7613L50.8786 70.3344ZM50.9688 70.5439C50.9688 70.6185 50.9688 70.8007 50.4722 71.0453L51.356 72.8395C52.2656 72.3914 52.9688 71.6412 52.9688 70.5439H50.9688ZM50.4668 72.8368C50.8523 73.0295 51.0154 73.1811 51.0702 73.2534L52.6642 72.0454C52.344 71.6229 51.8717 71.3032 51.3613 71.048L50.4668 72.8368ZM51.0743 73.2587C51.1336 73.3359 51.1523 73.3989 51.1523 73.4775H53.1523C53.1523 72.9468 52.981 72.4577 52.6601 72.0401L51.0743 73.2587ZM51.1523 73.4775C51.1523 73.6674 51.0999 73.7542 50.9989 73.8369L52.2667 75.3838C52.8585 74.8988 53.1523 74.2304 53.1523 73.4775H51.1523ZM50.9989 73.8369C50.8816 73.9331 50.6611 74.0361 50.2266 74.0361V76.0361C50.9743 76.0361 51.6914 75.8553 52.2667 75.3838L50.9989 73.8369ZM50.2266 74.0361C49.7356 74.0361 49.5032 73.9294 49.3995 73.8487L48.1708 75.4267C48.7494 75.8773 49.478 76.0361 50.2266 76.0361V74.0361ZM49.3995 73.8487C49.3347 73.7982 49.2734 73.7317 49.2734 73.5088H47.2734C47.2734 74.2598 47.5533 74.946 48.1708 75.4267L49.3995 73.8487ZM49.2734 73.5088C49.2734 73.3899 49.3024 73.3065 49.3579 73.2273L47.7202 72.0793C47.4215 72.5054 47.2734 72.9922 47.2734 73.5088H49.2734ZM49.3567 73.229C49.4053 73.16 49.538 73.0275 49.8559 72.8726L48.98 71.0746C48.4855 71.3156 48.0322 71.6362 47.7214 72.0776L49.3567 73.229ZM49.9306 71.115C49.6563 70.9513 49.5486 70.8281 49.514 70.7742L47.8298 71.8528C48.0921 72.2623 48.4817 72.5793 48.9054 72.8323L49.9306 71.115ZM49.514 70.7742C49.474 70.7117 49.4492 70.6402 49.4492 70.5322H47.4492C47.4492 71.0024 47.5729 71.4517 47.8298 71.8528L49.514 70.7742ZM49.4492 70.5322C49.4492 70.4592 49.4627 70.4279 49.4678 70.4176C49.4727 70.4077 49.487 70.3819 49.5385 70.3432L48.3365 68.7447C47.7549 69.1821 47.4492 69.81 47.4492 70.5322H49.4492ZM49.5426 70.3401C49.6506 70.258 49.8443 70.1729 50.2109 70.1729V68.1729C49.5307 68.1729 48.8754 68.3351 48.3324 68.7478L49.5426 70.3401ZM48.1523 73.4775C48.1523 74.0133 48.3569 74.529 48.8154 74.8933L50.0596 73.3274C50.083 73.346 50.1141 73.3809 50.1353 73.428C50.1551 73.4719 50.1523 73.4952 50.1523 73.4775H48.1523ZM48.8221 74.8985C49.2406 75.2253 49.7399 75.333 50.2109 75.333V73.333C50.031 73.333 50.0146 73.2923 50.0529 73.3222L48.8221 74.8985ZM50.2109 75.333C50.6886 75.333 51.2071 75.2242 51.6313 74.8716L50.3531 73.3334C50.3779 73.3128 50.3919 73.3113 50.3753 73.3163C50.3557 73.322 50.3048 73.333 50.2109 73.333V75.333ZM51.6324 74.8708C52.0698 74.5062 52.2734 74.0024 52.2734 73.4697H50.2734C50.2734 73.4836 50.2714 73.4613 50.2893 73.421C50.3083 73.3784 50.3349 73.3485 50.352 73.3343L51.6324 74.8708ZM52.2734 73.4697C52.2734 72.9538 52.0522 72.5189 51.728 72.1898L50.3032 73.5934C50.3184 73.6088 50.3087 73.6034 50.2957 73.5743C50.2815 73.5425 50.2734 73.5046 50.2734 73.4697H52.2734ZM51.728 72.1898C51.4282 71.8855 51.0361 71.6615 50.6258 71.487L49.8429 73.3274C50.1306 73.4498 50.2593 73.5487 50.3032 73.5934L51.728 72.1898ZM50.6434 71.4947L50.5301 71.4439L49.712 73.269L49.8253 73.3197L50.6434 71.4947ZM49.7188 71.4409C49.3074 71.6217 48.9008 71.8662 48.6089 72.2184L50.1489 73.4945C50.1489 73.4945 50.1504 73.4927 50.1537 73.4894C50.157 73.486 50.162 73.4812 50.1691 73.4749C50.1835 73.4623 50.2053 73.4451 50.2365 73.4241C50.2999 73.3813 50.3928 73.3293 50.5234 73.272L49.7188 71.4409ZM48.6134 72.213C48.3112 72.5726 48.1523 73.0074 48.1523 73.4775H50.1523C50.1523 73.4728 50.1527 73.4725 50.1522 73.4755C50.1516 73.4787 50.1505 73.4835 50.1484 73.4892C50.1464 73.4948 50.1442 73.4992 50.1426 73.5018C50.1411 73.5044 50.1412 73.5037 50.1444 73.4999L48.6134 72.213ZM50.2031 68.8799C49.7748 68.8799 49.3214 68.9894 48.9403 69.3018L50.2081 70.8486C50.1957 70.8588 50.183 70.8671 50.1712 70.8733C50.1596 70.8795 50.151 70.8825 50.1472 70.8837C50.14 70.8859 50.1553 70.8799 50.2031 70.8799V68.8799ZM48.948 69.2956C48.5304 69.631 48.3359 70.1041 48.3359 70.5986H50.3359C50.3359 70.6089 50.3336 70.6546 50.3056 70.7161C50.2765 70.78 50.2351 70.827 50.2005 70.8548L48.948 69.2956ZM48.3359 70.5986C48.3359 70.8793 48.3966 71.1661 48.5407 71.4347L50.303 70.4891C50.3166 70.5143 50.3254 70.5391 50.3306 70.5608C50.3356 70.582 50.3359 70.5956 50.3359 70.5986H48.3359ZM48.5407 71.4347C48.6702 71.6761 48.8464 71.8732 49.0427 72.0321L50.3011 70.4776C50.2895 70.4683 50.2863 70.4641 50.288 70.4661C50.29 70.4684 50.296 70.476 50.303 70.4891L48.5407 71.4347ZM49.0541 72.0412C49.2574 72.201 49.5288 72.3444 49.8012 72.4724L50.6519 70.6624C50.5367 70.6082 50.4485 70.5629 50.3834 70.5262C50.3149 70.4876 50.2893 70.4682 50.2897 70.4686L49.0541 72.0412ZM50.6306 72.4821C50.9948 72.3213 51.378 72.1018 51.6506 71.7791L50.1228 70.4884C50.1378 70.4707 50.1315 70.4839 50.077 70.5196C50.0243 70.5543 49.9424 70.5997 49.8225 70.6526L50.6306 72.4821ZM51.6496 71.7803C51.9343 71.4443 52.082 71.0363 52.082 70.5986H50.082C50.082 70.5914 50.0836 70.57 50.0938 70.5419C50.1041 70.5137 50.1173 70.495 50.1238 70.4873L51.6496 71.7803ZM52.082 70.5986C52.082 70.098 51.8815 69.6238 51.4599 69.2906L50.2198 70.8598C50.1863 70.8333 50.144 70.7868 50.1139 70.7217C50.0848 70.6588 50.082 70.6111 50.082 70.5986H52.082ZM51.4738 69.3018C51.0893 68.9867 50.6311 68.8799 50.2031 68.8799V70.8799C50.2554 70.8799 50.2737 70.8864 50.2683 70.8847C50.2652 70.8838 50.2568 70.8809 50.2449 70.8747C50.2329 70.8683 50.2194 70.8597 50.2059 70.8486L51.4738 69.3018Z" fill="#4657AE"/>
<mask id="path-11-outside-1" maskUnits="userSpaceOnUse" x="85.3334" y="73.6866" width="13.7821" height="17.0015" fill="black">
<rect fill="white" x="85.3334" y="73.6866" width="13.7821" height="17.0015"/>
<path d="M87.6898 76.671L95.981 82.9938L93.1371 83.845L95.1406 87.1409L93.5228 88.0596L91.5194 84.7637L89.3681 86.749L87.6898 76.671Z"/>
</mask>
<path d="M87.6898 76.671L95.981 82.9938L93.1371 83.845L95.1406 87.1409L93.5228 88.0596L91.5194 84.7637L89.3681 86.749L87.6898 76.671Z" fill="white"/>
<path d="M87.6898 76.671L88.2948 75.8854C87.9669 75.6353 87.5213 75.6061 87.1698 75.8117C86.8183 76.0172 86.6318 76.4161 86.6988 76.8188L87.6898 76.671ZM95.981 82.9938L96.2845 83.9471C96.6427 83.8399 96.9076 83.5426 96.971 83.1766C97.0345 82.8105 96.8859 82.4369 96.586 82.2082L95.981 82.9938ZM89.3681 86.749L88.3771 86.8967C88.4378 87.2608 88.6957 87.565 89.0479 87.6876C89.4 87.8102 89.7887 87.7312 90.0585 87.4822L89.3681 86.749ZM91.5194 84.7637L92.3777 84.2594C92.2201 84.0001 91.9537 83.8236 91.653 83.7791C91.3522 83.7346 91.0494 83.827 90.829 84.0304L91.5194 84.7637ZM93.1371 83.845L92.8335 82.8917C92.5396 82.9796 92.3048 83.1971 92.1966 83.4815C92.0883 83.766 92.1186 84.0859 92.2787 84.3493L93.1371 83.845ZM93.5228 88.0596L92.6645 88.5639C92.9497 89.033 93.5587 89.1939 94.032 88.9252L93.5228 88.0596ZM95.1406 87.1409L95.6497 88.0065C95.8816 87.8749 96.049 87.6558 96.1147 87.3983C96.1803 87.1408 96.1386 86.8665 95.9989 86.6366L95.1406 87.1409ZM87.0848 77.4566L95.3759 83.7794L96.586 82.2082L88.2948 75.8854L87.0848 77.4566ZM90.3591 86.6012L88.6808 76.5233L86.6988 76.8188L88.3771 86.8967L90.3591 86.6012ZM90.829 84.0304L88.6777 86.0157L90.0585 87.4822L92.2098 85.4969L90.829 84.0304ZM95.6774 82.0404L92.8335 82.8917L93.4407 84.7984L96.2845 83.9471L95.6774 82.0404ZM94.3812 87.5553L92.3777 84.2594L90.661 85.2679L92.6645 88.5639L94.3812 87.5553ZM92.2787 84.3493L94.2822 87.6452L95.9989 86.6366L93.9954 83.3407L92.2787 84.3493ZM94.6314 86.2753L93.0137 87.194L94.032 88.9252L95.6497 88.0065L94.6314 86.2753Z" fill="#4657AE" mask="url(#path-11-outside-1)"/>
<rect x="81.6644" y="15.1053" width="23.1232" height="23.1232" rx="3" fill="#282F6C"/>
<path d="M81.5718 33.8819V34.6715C81.5718 36.6876 83.2026 38.3172 85.22 38.3172H101.242C103.259 38.3172 104.873 36.6876 104.873 34.6715V33.8819H81.5718Z" fill="#FAB400"/>
<path d="M85.7914 24.2889L83.7235 22.1888L83.7571 22.1552L85.7914 20.0552L88.0442 17.7199L88.7671 16.9807H97.6101L98.2994 17.6863L100.586 20.0048L102.704 22.172L102.721 22.2056L100.569 24.4065L98.2826 26.7585L96.9545 28.1361L96.5342 28.573L95.5087 29.6314L94.6176 30.5386L93.7266 31.4626L93.239 31.9498L93.1046 31.8154L92.5329 31.2274L91.6924 30.3706L90.8181 29.4802L89.5068 28.1361L88.0274 26.6409L85.7914 24.2889ZM101.426 21.8864L100.569 21.0632L99.8966 20.408V21.9032L101.426 21.8864ZM98.0641 25.6833L98.2994 25.4481L100.586 23.18L101.141 22.6424H99.6948L98.2994 25.2465L98.0641 25.6833ZM96.9713 21.7352H97.8455L96.9713 20.9456L96.551 20.576L95.7776 19.8872L96.2988 21.7352H96.9713ZM96.551 25.7841L95.5255 26.8257L95.2565 27.0945L94.6513 28.7074L94.1973 29.917L94.6513 29.413L95.5423 28.4554L96.5678 27.3465L96.8704 27.0105L96.9881 26.7249L97.9464 24.4233L96.9881 25.3809L96.551 25.7841ZM95.7776 18.6103L96.5342 18.0727L96.8368 17.8543L96.5342 17.8879L95.5087 17.9887L95.2397 18.0223L95.5087 18.3247L95.7776 18.6103ZM96.2316 19.3664L96.5342 19.6352L96.9545 20.0048L98.2994 21.164L99.14 21.8864V19.736L98.2994 18.8456L97.6101 18.1063L96.9545 18.6943L96.5342 19.0808L96.2316 19.3664ZM95.5087 21.7352H95.6936L95.5087 21.2648L95.1556 20.408L94.6176 21.0296L94.0124 21.7352H95.5087ZM95.391 25.9689L95.5087 25.8513L96.5342 24.7761L96.9545 24.3393L98.2826 22.9448L98.518 22.7096H96.4501L95.5087 25.6329L95.391 25.9689ZM93.6425 22.7096L93.7434 23.18L94.4159 26.2881L94.6344 25.6161L95.5255 23.0456L95.6432 22.7096H93.6425ZM93.155 24.2889L93.1214 24.4401L92.5498 27.0273L92.3985 27.7161L92.5498 28.2537L93.1214 30.2698L93.155 30.3874L93.7434 27.9681L93.8443 27.5649L93.7434 27.0945L93.155 24.2889ZM92.5329 20.7608L93.1046 21.3656L93.1718 21.4328L93.7266 20.828L94.6176 19.8536L95.2229 19.2152L94.6176 18.5767L94.0124 17.9383H92.264L91.6924 18.5935L91.1207 19.2656L91.6924 19.8704L92.5329 20.7608ZM91.9277 26.3049L92.5329 23.4488L92.6843 22.7432H90.7005L90.8181 23.0792L91.6924 25.6497L91.9277 26.3049ZM91.6924 21.7688H92.3144L91.6924 21.0632L91.1712 20.4416L90.8181 21.2984L90.6164 21.7856L91.6924 21.7688ZM90.5491 18.6439L90.8181 18.3415L91.0871 18.0391L90.8181 18.0223L89.5068 17.9047H89.49L89.5068 17.9215L90.5491 18.6439ZM90.8181 28.489L91.6924 29.4466L92.1631 29.9506L91.6924 28.741L91.0871 27.1281L90.8181 26.8593L89.5068 25.5489L88.414 24.4569L89.49 27.0609L89.5068 27.0777L90.8181 28.489ZM90.028 21.7688L90.566 19.904L89.5236 20.8448L88.5149 21.752H90.028V21.7688ZM89.5236 19.904L90.112 19.4L89.5236 18.8624L88.7166 18.1399L88.0274 18.8792L87.1868 19.7864V21.9368L88.0274 21.1976L89.5236 19.904ZM87.8088 22.7432L88.0274 22.9784L89.5068 24.5241L90.8181 25.9017L90.9358 26.0193L90.8181 25.6665L89.8599 22.7432H87.8088ZM86.6656 22.676H85.2198L85.7914 23.2472L88.0442 25.4985L88.2795 25.7169L88.0442 25.2801L86.6656 22.676ZM86.4302 21.92V20.4248L85.7914 21.0632L84.9172 21.92H86.4302Z" fill="white"/>
<path d="M83.7235 36.738V35.4779H84.0093H84.7827H85.0853V36.738H84.7827V35.7299H84.0093V36.738H83.7235Z" fill="#103755"/>
<path d="M86.7498 36.3011C86.7498 36.3683 86.7498 36.4355 86.733 36.5027C86.7162 36.5531 86.6994 36.6035 86.6658 36.6371C86.6322 36.6707 86.5817 36.7043 86.5313 36.7043C86.464 36.7211 86.38 36.7211 86.3127 36.7211H85.7579C85.6907 36.7211 85.6066 36.7211 85.5394 36.7043C85.4889 36.6875 85.4385 36.6707 85.4049 36.6203C85.3713 36.5867 85.3376 36.5363 85.3208 36.4859C85.304 36.4187 85.2872 36.3515 85.2872 36.2843V35.8979C85.2872 35.8307 85.2872 35.7467 85.3208 35.6795C85.3376 35.6291 85.3544 35.5787 85.4049 35.5451C85.4385 35.5115 85.4889 35.4947 85.5394 35.4779C85.6066 35.4611 85.6907 35.4611 85.7579 35.4611H86.3127C86.3968 35.4611 86.4808 35.4779 86.5649 35.4947C86.6322 35.5115 86.6826 35.5619 86.7162 35.6291C86.7498 35.7131 86.7666 35.8139 86.7666 35.8979V36.3011H86.7498ZM85.573 36.2843C85.573 36.3347 85.573 36.3683 85.5898 36.4187C85.6066 36.4523 85.6234 36.4691 85.6571 36.4859C85.7075 36.5027 85.7579 36.5027 85.7916 36.5027H86.195C86.2455 36.5027 86.2959 36.5027 86.3464 36.4859C86.38 36.4691 86.3968 36.4523 86.4136 36.4187C86.4304 36.3683 86.4304 36.3347 86.4304 36.2843V35.9651C86.4304 35.9147 86.4304 35.8643 86.4136 35.8307C86.3968 35.7971 86.38 35.7803 86.3464 35.7635C86.2959 35.7467 86.2455 35.7467 86.195 35.7467H85.8084C85.7579 35.7467 85.7075 35.7467 85.6571 35.7635C85.6234 35.7803 85.6066 35.7971 85.5898 35.8307C85.573 35.8811 85.573 35.9147 85.573 35.9651V36.2843Z" fill="#103755"/>
<path d="M87.3212 36.7379C87.2372 36.7379 87.1531 36.7211 87.069 36.7043C87.0186 36.6875 86.9682 36.6371 86.9345 36.5867C86.9009 36.5195 86.8841 36.4523 86.9009 36.3851H87.2035C87.2035 36.4187 87.2203 36.4523 87.254 36.4691C87.2876 36.4859 87.3212 36.5027 87.3548 36.5027H87.8592C87.9096 36.5027 87.9601 36.5027 88.0105 36.4691C88.0441 36.4355 88.0609 36.4019 88.0609 36.3683C88.0609 36.3347 88.0609 36.3179 88.0441 36.2843C88.0273 36.2675 88.0105 36.2507 87.9769 36.2339C87.9433 36.2171 87.8928 36.2171 87.8424 36.2171H87.2876V35.9987H87.8592C87.9264 36.0155 87.9937 35.9651 88.0105 35.8979C88.0105 35.8811 88.0105 35.8643 88.0105 35.8643C88.0105 35.7803 87.9601 35.7299 87.8592 35.7299H87.3548C87.3212 35.7299 87.2708 35.7299 87.2372 35.7635C87.2203 35.7803 87.2035 35.8139 87.2035 35.8475H86.9009C86.9009 35.7803 86.9177 35.7131 86.9513 35.6459C86.985 35.5955 87.0354 35.5451 87.0858 35.5283C87.1699 35.4947 87.254 35.4947 87.338 35.4947H87.8424C87.9264 35.4947 88.0273 35.5115 88.1114 35.5283C88.1786 35.5451 88.2291 35.5955 88.2627 35.6459C88.2963 35.7131 88.3131 35.7803 88.3131 35.8475C88.3131 35.9147 88.2963 35.9651 88.2627 36.0155C88.2291 36.0491 88.1954 36.0827 88.145 36.0995C88.1954 36.1163 88.2459 36.1499 88.2795 36.2003C88.3131 36.2507 88.3299 36.3011 88.3299 36.3683C88.3299 36.4355 88.3131 36.5195 88.2795 36.5867C88.2459 36.6371 88.1954 36.6875 88.145 36.7043C88.0609 36.7379 87.9937 36.7547 87.9096 36.7379H87.3212Z" fill="#103755"/>
<path d="M89.8601 36.738V35.7299H89.8265L89.07 36.738H88.5656V35.4779H88.8682V36.486H88.9019L89.6584 35.4779H90.1627V36.738H89.8601Z" fill="#103755"/>
<path d="M90.3976 36.738V35.4779H90.7002V35.9483H90.8683L91.4231 35.4779H91.8602L91.1205 36.0659L91.8938 36.738H91.4567L90.8683 36.2004H90.7002V36.738H90.3976Z" fill="#103755"/>
<path d="M93.3398 36.738V35.7299H93.3061L92.5496 36.738H92.0453V35.4779H92.3311V36.486H92.3815L93.138 35.4779H93.6424V36.738H93.3398Z" fill="#103755"/>
<path d="M94.8699 36.738C94.7858 36.738 94.7018 36.7212 94.6177 36.7044C94.5673 36.6876 94.5168 36.6372 94.4832 36.5868C94.4496 36.5196 94.4328 36.4524 94.4496 36.3852H94.769C94.769 36.4188 94.7858 36.4524 94.8195 36.4692C94.8531 36.486 94.8867 36.5028 94.9203 36.5028H95.4247C95.4751 36.5028 95.5256 36.5028 95.576 36.4692C95.6096 36.4356 95.6264 36.402 95.6096 36.3516C95.6096 36.318 95.6096 36.3012 95.5928 36.2676C95.576 36.2508 95.5592 36.2339 95.5255 36.2171C95.4919 36.2003 95.4415 36.2004 95.3911 36.2004H94.8363V35.9819H95.4247C95.4919 35.9987 95.5592 35.9483 95.576 35.8811C95.576 35.8643 95.576 35.8475 95.576 35.8475C95.576 35.7635 95.5255 35.7131 95.4247 35.7131H94.9203C94.8867 35.7131 94.8363 35.7131 94.8026 35.7467C94.7858 35.7635 94.769 35.7971 94.769 35.8307H94.4664C94.4664 35.7635 94.4832 35.6963 94.5168 35.6291C94.5505 35.5787 94.6009 35.5283 94.6513 35.5115C94.7354 35.4779 94.8194 35.4779 94.8867 35.4779H95.3911C95.4751 35.4779 95.576 35.4947 95.66 35.5115C95.7273 35.5283 95.7777 35.5787 95.8114 35.6291C95.845 35.6963 95.8618 35.7635 95.8618 35.8307C95.8618 35.8979 95.845 35.9483 95.8114 35.9987C95.7777 36.0323 95.7441 36.0659 95.6937 36.0995C95.7441 36.1163 95.7945 36.1499 95.8282 36.1835C95.8618 36.234 95.8786 36.2844 95.8786 36.3516C95.8786 36.4188 95.8618 36.5028 95.8282 36.57C95.7945 36.6204 95.7441 36.6708 95.6937 36.6876C95.6096 36.7212 95.5424 36.738 95.4583 36.7212H94.8699V36.738Z" fill="#103755"/>
<path d="M97.6436 36.738H97.3409V35.7467H97.2401L96.9038 36.0155L96.7525 35.7803L97.1392 35.4779H97.6436V36.738Z" fill="#103755"/>
<path d="M99.0897 36.5028C99.1401 36.5028 99.1905 36.5028 99.241 36.486C99.2746 36.486 99.2914 36.4524 99.3082 36.4356C99.325 36.402 99.3418 36.3684 99.325 36.3348V36.1667C99.3082 36.1835 99.2914 36.2003 99.2578 36.2171C99.2242 36.234 99.1905 36.2507 99.1569 36.2507C99.1065 36.2676 99.0392 36.2676 98.9888 36.2676H98.7534C98.6525 36.2676 98.5685 36.2676 98.4676 36.234C98.4004 36.2172 98.3331 36.1836 98.2995 36.1163C98.2659 36.0491 98.2323 35.9819 98.2491 35.8979C98.2491 35.8139 98.2491 35.7467 98.2659 35.6627C98.2827 35.6123 98.2995 35.5619 98.3331 35.5283C98.3667 35.4947 98.4172 35.4611 98.4676 35.4611C98.5517 35.4443 98.6189 35.4443 98.703 35.4443H99.1401C99.2242 35.4443 99.3082 35.4611 99.3923 35.4779C99.4595 35.4947 99.51 35.5451 99.5436 35.5955C99.5772 35.6459 99.594 35.7299 99.594 35.7971V36.3516C99.6108 36.4524 99.5604 36.5532 99.4931 36.6372C99.3923 36.7044 99.2578 36.738 99.1401 36.7212H98.703C98.6189 36.7212 98.5181 36.7044 98.434 36.6876C98.3667 36.6708 98.3163 36.6204 98.2827 36.57C98.2491 36.5028 98.2323 36.4356 98.2323 36.3684H98.5181C98.5181 36.402 98.5181 36.4188 98.5349 36.4524C98.5517 36.4692 98.5685 36.486 98.6021 36.486C98.6525 36.486 98.6862 36.486 98.7366 36.486L99.0897 36.5028ZM98.5685 35.8643C98.5685 35.9147 98.5853 35.9651 98.6189 35.9987C98.6694 36.0323 98.7366 36.0491 98.8039 36.0491H99.1233C99.1737 36.0491 99.2242 36.0491 99.2578 36.0323C99.2914 36.0155 99.3082 35.9987 99.325 35.9651C99.3418 35.9315 99.3418 35.8979 99.3418 35.8643C99.3418 35.8139 99.325 35.7803 99.2914 35.7467C99.241 35.7131 99.1737 35.6963 99.1065 35.7131H98.8039C98.7366 35.7131 98.6862 35.7131 98.6189 35.7467C98.5685 35.7803 98.5517 35.8139 98.5685 35.8643Z" fill="#103755"/>
<path d="M100.636 36.5028C100.687 36.5028 100.737 36.5028 100.788 36.486C100.821 36.486 100.838 36.4524 100.855 36.4356C100.872 36.402 100.889 36.3684 100.872 36.3348V36.1667C100.855 36.1835 100.838 36.2003 100.805 36.2171C100.771 36.234 100.737 36.2507 100.704 36.2507C100.653 36.2676 100.586 36.2676 100.536 36.2676H100.317C100.216 36.2676 100.132 36.2676 100.031 36.234C99.964 36.2172 99.8967 36.1836 99.8631 36.1163C99.8295 36.0491 99.7958 35.9819 99.8127 35.8979C99.8127 35.8139 99.8127 35.7467 99.8295 35.6627C99.8463 35.6123 99.8631 35.5619 99.8967 35.5283C99.9303 35.4947 99.9808 35.4611 100.031 35.4611C100.115 35.4443 100.183 35.4443 100.267 35.4443H100.704C100.788 35.4443 100.872 35.4611 100.956 35.4779C101.023 35.4947 101.074 35.5451 101.107 35.5955C101.141 35.6459 101.158 35.7299 101.158 35.7971V36.3516C101.174 36.4524 101.124 36.5532 101.057 36.6372C100.956 36.7044 100.821 36.738 100.704 36.7212H100.267C100.183 36.7212 100.082 36.7044 99.9976 36.6876C99.9303 36.6708 99.8799 36.6204 99.8463 36.57C99.8126 36.5028 99.7958 36.4356 99.7958 36.3684H100.082C100.082 36.402 100.082 36.4188 100.098 36.4524C100.115 36.4692 100.132 36.486 100.166 36.486C100.216 36.486 100.25 36.486 100.3 36.486L100.636 36.5028ZM100.115 35.8643C100.115 35.9147 100.132 35.9651 100.166 35.9987C100.216 36.0323 100.283 36.0491 100.351 36.0491H100.67C100.72 36.0491 100.771 36.0491 100.805 36.0323C100.838 36.0155 100.855 35.9987 100.872 35.9651C100.889 35.9315 100.889 35.8979 100.889 35.8643C100.889 35.8139 100.872 35.7803 100.838 35.7467C100.788 35.7131 100.72 35.6963 100.653 35.7131H100.351C100.283 35.7131 100.233 35.7131 100.166 35.7467C100.132 35.7803 100.115 35.8139 100.115 35.8643Z" fill="#103755"/>
<path d="M102.721 35.8979C102.721 35.9651 102.704 36.0491 102.67 36.1163C102.637 36.1667 102.586 36.2171 102.519 36.2507C102.452 36.2844 102.368 36.3012 102.284 36.3012L101.897 36.318C101.847 36.318 101.813 36.318 101.762 36.3348C101.746 36.3348 101.712 36.3516 101.695 36.3684C101.678 36.3852 101.678 36.4188 101.678 36.4356V36.5028H102.738V36.738H101.376V36.4524C101.376 36.402 101.376 36.3516 101.393 36.3012C101.409 36.2676 101.426 36.2171 101.46 36.1835C101.493 36.1499 101.544 36.1163 101.594 36.0995C101.678 36.0659 101.762 36.0659 101.83 36.0491L102.233 36.0323C102.284 36.0323 102.351 36.0155 102.384 35.9819C102.418 35.9483 102.435 35.8979 102.435 35.8475C102.435 35.8139 102.435 35.7803 102.418 35.7467C102.401 35.7299 102.368 35.7131 102.351 35.6963C102.3 35.6795 102.25 35.6795 102.2 35.6795H101.998C101.931 35.6795 101.863 35.6795 101.796 35.6963C101.762 35.6963 101.729 35.7299 101.712 35.7635C101.695 35.8139 101.695 35.8643 101.695 35.9147H101.393C101.393 35.8307 101.409 35.7467 101.426 35.6627C101.443 35.5955 101.493 35.5451 101.561 35.5115C101.645 35.4611 101.746 35.4443 101.847 35.4611H102.3C102.368 35.4611 102.452 35.4611 102.519 35.4779C102.569 35.4947 102.62 35.5115 102.653 35.5451C102.687 35.5787 102.721 35.6291 102.721 35.6627C102.721 35.7635 102.721 35.8307 102.721 35.8979Z" fill="#103755"/>
</svg>
