<svg width="398" height="231" viewBox="0 0 398 231" fill="none" xmlns="http://www.w3.org/2000/svg">
<path fill-rule="evenodd" clip-rule="evenodd" d="M202.042 220.951C263.016 220.951 312.444 171.637 312.444 110.806C312.444 49.9744 263.016 0.660858 202.042 0.660858C141.069 0.660858 91.6406 49.9744 91.6406 110.806C91.6406 171.637 141.069 220.951 202.042 220.951ZM202.04 187.889C244.711 187.889 279.303 153.377 279.303 110.806C279.303 68.2342 244.711 33.7231 202.04 33.7231C159.369 33.7231 124.778 68.2342 124.778 110.806C124.778 153.377 159.369 187.889 202.04 187.889Z" fill="url(#paint0_linear)" fill-opacity="0.5"/>
<path d="M245.25 27.5812C234.581 22.05 222.662 18.4858 209.935 17.4085C200.962 16.649 192.178 17.1756 183.764 18.8347M294.414 94.1995C293.043 86.5346 290.727 79.1641 287.583 72.2245C286.395 69.6013 285.088 67.0396 283.669 64.5469M111.84 136.497C114.433 145.497 118.352 153.979 123.39 161.695M239.132 196.697C225.412 202.596 210.076 205.302 194.145 203.953C189.762 203.582 185.474 202.916 181.3 201.976" stroke="white" stroke-width="2" stroke-linecap="round" stroke-dasharray="5 5"/>
<g clip-path="url(#clip0)">
<g style="mix-blend-mode:multiply" opacity="0.5">
<path d="M155.757 121.647C145.199 128.934 132.418 133.185 118.677 133.185C104.937 133.185 92.1558 128.934 81.5977 121.647C65.0281 110.26 53.9648 91.3835 53.2575 69.8754C53.2575 70.6345 53.207 71.343 53.207 72.1021C53.207 108.337 82.507 137.689 118.677 137.689C154.848 137.689 184.148 108.337 184.148 72.1021C184.148 71.343 184.097 70.5839 184.097 69.8754C183.339 91.3835 172.276 110.209 155.757 121.647Z" fill="#4657AE"/>
</g>
<path d="M81.5977 121.697C81.6482 121.596 81.6987 121.545 81.7998 121.444C82.7091 120.28 83.8204 119.116 85.1844 118.155C85.8916 117.649 86.6494 117.193 87.4072 116.839C88.1649 116.485 88.9732 116.131 89.832 115.877L97.3591 113.55L107.816 110.311C109.079 109.906 109.837 108.742 110.039 107.426C110.19 106.616 110.291 105.554 110.342 104.339C102.512 104.744 95.0353 105.655 88.2154 107.021C87.4072 90.422 88.0134 67.0415 88.3165 62.588C88.7206 55.8573 90.3372 49.0759 93.9744 43.5091C99.2787 35.3107 108.877 31.2115 118.273 31.2115C127.669 31.2115 137.268 35.2601 142.572 43.5091C146.159 49.0759 147.775 55.8573 148.23 62.588C148.482 66.9909 150.251 90.4726 150.15 107.072C143.077 105.604 135.297 104.643 127.063 104.238C127.164 105.452 127.265 106.566 127.366 107.325C127.619 108.641 128.326 109.805 129.589 110.209L140.046 113.448L147.523 115.776C148.937 116.232 150.352 116.839 151.615 117.649C152.019 117.902 152.423 118.205 152.827 118.509C153.484 119.015 154.039 119.521 154.545 120.078C154.999 120.584 155.403 121.039 155.807 121.545C172.377 110.108 183.39 91.2823 184.097 69.7743C184.097 69.0152 184.148 68.3066 184.148 67.5475C184.148 31.3128 154.848 1.96054 118.677 1.96054C82.507 1.96054 53.207 31.4646 53.207 67.6488C53.207 68.4079 53.2575 69.167 53.2575 69.8755C53.9648 91.3836 65.0281 110.26 81.5977 121.697Z" fill="url(#paint1_linear)"/>
<path d="M101.651 91.6872C99.9337 90.0171 98.6708 87.8916 98.0141 85.6143C97.711 84.5009 97.3068 83.0839 96.8522 81.5151C96.1449 81.5151 95.4377 81.2115 94.7304 80.7054C93.1139 85.2601 91.8005 90.3714 91.3458 94.9766C91.1437 94.1163 90.9417 93.2054 90.7901 92.3451C89.8303 86.7783 89.123 81.1609 89.4261 75.2398C89.9818 65.169 90.6891 53.2257 96.8017 45.0779C102.914 36.9301 114.887 32.9828 125.243 34.0961C128.627 34.4504 132.618 36.3228 132.568 39.6629C132.568 39.8654 132.568 40.1184 132.568 40.3714C133.275 40.9281 133.932 41.586 134.538 42.2439C140.044 48.0637 143.783 56.7682 145.046 65.9281C145.147 66.6366 144.742 67.1427 144.237 67.3957C144.338 67.4463 144.389 67.4463 144.49 67.4463C146.915 68.4585 147.723 72.0516 146.308 75.3916C145.046 78.3775 142.52 81.5151 140.246 81.5657C139.842 83.1345 139.438 84.5516 139.085 85.6649C138.428 87.9422 137.215 90.0677 135.447 91.7378C132.871 94.2175 129.587 95.9888 126.607 97.254C126.607 99.5313 126.708 102.112 126.859 104.238C135.094 104.643 142.873 105.604 149.946 107.072C149.996 90.422 148.279 66.9908 148.026 62.588C147.622 55.8572 146.005 49.0759 142.368 43.5091C137.064 35.3107 127.466 31.2115 118.069 31.2115C108.673 31.2115 99.0749 35.2601 93.7706 43.5091C90.1839 49.0759 88.5674 55.8572 88.1127 62.588C87.8601 66.9908 87.2034 90.3714 88.0117 107.021C94.8315 105.655 102.258 104.693 110.138 104.339C110.29 102.163 110.34 99.5313 110.391 97.3046C107.511 95.9382 104.228 94.1669 101.651 91.6872Z" fill="url(#paint2_linear)"/>
<path d="M118.676 124.835C126.607 124.835 133.932 120.634 140.045 113.448L129.588 110.209C128.325 109.804 127.567 108.64 127.365 107.325C127.213 106.515 127.112 105.452 127.062 104.238C126.91 102.061 126.86 99.4805 126.809 97.2538C129.79 95.9886 133.073 94.2173 135.65 91.7376C137.367 90.0675 138.63 87.942 139.287 85.6647C139.59 84.5514 139.994 83.1343 140.449 81.5655C142.672 81.5149 145.248 78.3773 146.511 75.3914C147.925 72.0008 147.117 68.4583 144.692 67.4461C144.591 67.3955 144.541 67.3955 144.44 67.3955C143.783 67.6991 142.874 67.5473 142.469 66.6364C139.337 58.9441 134.841 52.7194 130.497 48.6202C119.383 54.0352 105.39 59.602 99.4793 70.0777C98.0649 72.608 96.2968 76.4542 94.7812 80.7558C95.4885 81.2619 96.1957 81.5655 96.903 81.5655C97.3071 83.1343 97.7112 84.5514 98.0649 85.6647C98.7216 87.942 99.934 90.0675 101.702 91.7376C104.278 94.2173 107.562 95.9886 110.543 97.2538C110.492 99.5311 110.442 102.112 110.29 104.288C110.189 105.452 110.088 106.565 109.987 107.375C109.785 108.691 109.027 109.855 107.764 110.26L97.3071 113.499C103.369 120.634 110.745 124.835 118.676 124.835ZM137.014 78.9339C137.014 80.857 135.448 82.4258 133.528 82.4258C131.608 82.4258 130.042 80.857 130.042 78.9339C130.042 77.0109 131.608 75.442 133.528 75.442C135.448 75.442 137.014 77.0109 137.014 78.9339ZM130.851 65.7255C131.911 65.7255 132.871 66.3833 133.477 67.3955L135.397 67.1425L133.983 69.0655C133.983 69.2174 134.033 69.3692 134.033 69.521C134.033 69.9259 133.983 70.2801 133.882 70.6344C133.477 69.0655 132.316 67.9522 130.901 67.9522C129.487 67.9522 128.325 69.1161 127.921 70.6344C127.819 70.2801 127.769 69.9259 127.769 69.521C127.668 67.4461 129.082 65.7255 130.851 65.7255ZM124.839 86.0696C123.778 88.4481 121.404 90.0675 118.625 90.0675C115.847 90.0675 113.523 88.3975 112.412 86.0696H124.839ZM102.51 82.4765C100.591 82.4765 99.0247 80.9076 99.0247 78.9846C99.0247 77.0615 100.591 75.4927 102.51 75.4927C104.43 75.4927 105.996 77.0615 105.996 78.9846C105.996 80.9076 104.43 82.4765 102.51 82.4765ZM109.482 70.3813C109.078 71.8995 107.916 73.0129 106.501 73.0129C105.087 73.0129 103.925 71.8995 103.521 70.3813C103.42 70.0271 103.369 69.6728 103.369 69.268C103.369 69.1667 103.369 69.1161 103.369 69.0149L101.955 67.0919L103.672 67.5979C104.177 66.3834 105.238 65.523 106.501 65.523C108.219 65.523 109.633 67.1931 109.633 69.268C109.633 69.6728 109.583 70.0777 109.482 70.3813ZM110.543 97.2032C114.938 99.0756 118.676 99.7841 118.676 99.7841C118.676 99.7841 122.414 99.0756 126.809 97.2032C126.809 98.2153 126.809 99.2781 126.86 100.391C121.555 102.213 115.796 102.213 110.543 100.391C110.492 99.2781 110.543 98.2153 110.543 97.2032Z" fill="#E5B295"/>
<path d="M152.776 118.61C152.372 118.307 151.968 118.003 151.564 117.75C150.301 116.94 148.937 116.282 147.472 115.877L139.995 113.549C133.933 120.736 126.558 124.936 118.627 124.936C110.695 124.936 103.371 120.736 97.2579 113.549L89.7309 115.877C88.9226 116.13 88.1143 116.434 87.306 116.839C86.5483 117.193 85.7905 117.649 85.0833 118.155C83.7193 119.167 82.608 120.28 81.6986 121.444C81.6481 121.545 81.5976 121.596 81.4966 121.697C92.0547 128.985 104.785 133.236 118.576 133.236C132.367 133.236 145.148 128.985 155.656 121.697C155.252 121.191 154.848 120.685 154.393 120.23C153.989 119.622 153.383 119.116 152.776 118.61Z" fill="#CCE5F2"/>
<path d="M126.809 100.391C126.809 99.2781 126.758 98.2154 126.758 97.2032C122.414 99.0251 118.625 99.7842 118.625 99.7842C118.625 99.7842 114.887 99.0757 110.492 97.2032C110.492 98.2154 110.492 99.2781 110.441 100.391C115.746 102.213 121.555 102.213 126.809 100.391Z" fill="#D39E7A"/>
<path d="M118.679 90.0679C121.457 90.0679 123.781 88.3979 124.892 86.0699H112.516C113.526 88.4485 115.9 90.0679 118.679 90.0679Z" fill="white"/>
<path d="M102.513 82.4263C104.438 82.4263 105.999 80.8629 105.999 78.9344C105.999 77.0059 104.438 75.4425 102.513 75.4425C100.588 75.4425 99.0273 77.0059 99.0273 78.9344C99.0273 80.8629 100.588 82.4263 102.513 82.4263Z" fill="#E0916E"/>
<path d="M129.992 78.9344C129.992 80.8575 131.558 82.4263 133.478 82.4263C135.398 82.4263 136.964 80.8575 136.964 78.9344C136.964 77.0113 135.398 75.4425 133.478 75.4425C131.558 75.4425 129.992 77.0113 129.992 78.9344Z" fill="#E0916E"/>
<path d="M145.2 65.8776C143.988 56.7176 140.199 48.0132 134.693 42.1934C134.036 41.5355 133.379 40.8776 132.723 40.3209C132.824 43.3067 133.379 47.1529 130.803 48.4181C130.702 48.4687 130.601 48.5193 130.5 48.5699C134.844 52.6691 139.29 58.9444 142.473 66.5861C142.826 67.497 143.735 67.6488 144.443 67.3452C144.897 67.0921 145.302 66.5861 145.2 65.8776Z" fill="#843B13"/>
<path d="M132.721 40.3208C132.721 40.0678 132.721 39.8654 132.721 39.6124C132.771 36.3229 128.78 34.3998 125.396 34.0456C115.04 32.9322 103.067 36.8796 96.9544 45.0273C90.8418 53.1751 90.0841 65.1184 89.5789 75.1892C89.2758 81.1103 89.983 86.7277 90.9429 92.2945C91.0944 93.1548 91.2965 94.0658 91.4986 94.9261C91.9027 90.3208 93.2667 85.2601 94.8832 80.6548C96.3987 76.3532 98.1668 72.4565 99.5813 69.9767C105.391 59.501 119.384 53.9848 130.498 48.5698C130.599 48.5192 130.7 48.4686 130.801 48.418C133.377 47.1528 132.771 43.3067 132.721 40.3208Z" fill="url(#paint3_linear)"/>
<path d="M130.851 67.9524C132.265 67.9524 133.427 69.1164 133.831 70.6346C133.932 70.2803 133.983 69.9261 133.983 69.5212C133.983 69.3694 133.983 69.2176 133.932 69.0658L135.347 67.1427L133.427 67.3957C132.871 66.3836 131.911 65.7257 130.8 65.7257C129.082 65.7257 127.668 67.4463 127.668 69.5718C127.668 69.9767 127.718 70.3309 127.82 70.6852C128.224 69.1164 129.436 67.9524 130.851 67.9524Z" fill="#332113"/>
<path d="M106.504 65.5738C105.291 65.5738 104.23 66.4341 103.675 67.6487L101.957 67.1426L103.372 69.0657C103.372 69.1669 103.372 69.2175 103.372 69.3188C103.372 69.7236 103.422 70.0779 103.523 70.4321C103.927 71.9503 105.089 73.0637 106.504 73.0637C107.918 73.0637 109.08 71.9503 109.484 70.4321C109.585 70.0779 109.636 69.7236 109.636 69.3188C109.636 67.2439 108.221 65.5738 106.504 65.5738Z" fill="#332113"/>
</g>
<g clip-path="url(#clip1)">
<g style="mix-blend-mode:multiply" opacity="0.5">
<path d="M323.787 192.717C316.563 197.502 308.128 200.581 299.025 201.413C297.355 201.58 295.643 201.663 293.931 201.663C292.219 201.663 290.507 201.58 288.836 201.413C283.199 200.872 277.813 199.499 272.802 197.377C272.384 197.211 271.925 197.003 271.507 196.795C270.839 196.462 270.129 196.17 269.461 195.838C267.624 194.88 265.828 193.882 264.075 192.717C249.961 183.396 240.482 167.626 239.897 149.608C239.897 150.233 239.856 150.815 239.856 151.439C239.856 181.232 264.075 205.366 293.931 205.366C323.829 205.366 348.048 181.232 348.048 151.439C348.048 150.815 348.006 150.191 348.006 149.608C347.38 167.626 337.901 183.354 323.787 192.717Z" fill="#4657AE"/>
</g>
<path d="M264.116 192.717C264.951 191.385 266.037 190.095 267.499 188.972C267.499 185.643 268.835 182.314 271.173 179.901C273.929 177.113 277.854 175.698 280.235 172.536C280.819 171.703 281.278 170.455 281.738 169.207C281.78 169.248 281.863 169.29 281.905 169.332C281.445 168.999 281.028 168.624 280.61 168.208C279.232 166.918 278.272 165.254 277.771 163.465C277.52 162.591 277.186 161.509 276.894 160.261C275.14 160.219 273.136 157.764 272.134 155.434C271.257 153.312 271.507 151.106 272.593 149.9C271.8 147.569 271.34 145.073 271.34 142.493C271.34 133.463 276.56 125.724 284.16 121.979C284.786 116.944 288.92 111.909 293.973 111.909C298.9 111.909 302.992 116.694 303.744 121.646C311.719 125.266 317.273 133.255 317.273 142.535C317.273 145.364 316.73 148.11 315.77 150.607C316.48 151.855 316.521 153.686 315.77 155.475C314.809 157.806 312.763 160.261 311.009 160.302C310.675 161.55 310.383 162.632 310.133 163.506C309.59 165.295 308.671 166.96 307.293 168.25C305.289 170.164 302.7 171.579 300.32 172.577C300.361 175.324 300.445 178.736 300.737 180.483C300.904 181.523 301.489 182.439 302.491 182.73L315.978 186.933L316.563 187.099C318.066 187.557 319.486 188.306 320.739 189.263C322.075 190.303 323.035 191.51 323.829 192.717C337.943 183.396 347.421 167.626 348.006 149.608C348.006 148.984 348.048 148.402 348.048 147.777C348.048 117.984 323.829 93.8504 293.931 93.8504C264.075 93.8504 239.856 117.984 239.856 147.777C239.856 148.402 239.897 149.026 239.897 149.608C240.482 167.626 249.961 183.396 264.116 192.717Z" fill="url(#paint4_linear)"/>
<path d="M282.824 170.039C282.949 170.122 283.032 170.164 283.157 170.247C283.032 170.164 282.907 170.081 282.824 170.039Z" fill="#EFECEA"/>
<path d="M283.992 170.788C284.118 170.871 284.243 170.913 284.368 170.997C284.243 170.913 284.118 170.871 283.992 170.788Z" fill="#EFECEA"/>
<path d="M293.931 201.413H288.836C290.507 201.58 292.219 201.663 293.931 201.663C295.643 201.663 297.355 201.58 299.025 201.413H293.931Z" fill="#EFECEA"/>
<path d="M285.246 171.454C285.371 171.537 285.497 171.579 285.622 171.621C285.497 171.579 285.371 171.537 285.246 171.454Z" fill="#EFECEA"/>
<path d="M286.5 172.078C286.583 172.12 286.708 172.161 286.792 172.203C286.708 172.203 286.625 172.161 286.5 172.078Z" fill="#EFECEA"/>
<path d="M303.702 121.646C302.95 116.736 298.9 111.951 293.973 111.951C288.92 111.951 284.786 116.944 284.16 122.021C287.208 120.481 290.632 119.649 294.265 119.649C297.647 119.649 300.821 120.356 303.702 121.646Z" fill="#EFECEA"/>
<path d="M303.702 121.646C302.95 116.736 298.9 111.951 293.973 111.951C288.92 111.951 284.786 116.944 284.16 122.021C287.208 120.481 290.632 119.649 294.265 119.649C297.647 119.649 300.821 120.356 303.702 121.646Z" fill="url(#paint5_linear)"/>
<path d="M273.052 149.525C272.76 148.568 272.551 147.569 272.384 146.571C272.05 144.74 271.006 140.995 272.676 139.58C272.676 139.247 272.718 138.914 272.718 138.54C272.718 133.671 277.395 128.678 284.577 126.223C284.243 125.349 284.076 124.351 284.076 123.269C284.076 122.853 284.117 122.437 284.159 122.021C276.559 125.765 271.34 133.547 271.34 142.534C271.34 145.156 271.799 147.611 272.593 149.941C272.718 149.775 272.885 149.65 273.052 149.525Z" fill="#EFECEA"/>
<path d="M273.052 149.525C272.76 148.568 272.551 147.569 272.384 146.571C272.05 144.74 271.006 140.995 272.676 139.58C272.676 139.247 272.718 138.914 272.718 138.54C272.718 133.671 277.395 128.678 284.577 126.223C284.243 125.349 284.076 124.351 284.076 123.269C284.076 122.853 284.117 122.437 284.159 122.021C276.559 125.765 271.34 133.547 271.34 142.534C271.34 145.156 271.799 147.611 272.593 149.941C272.718 149.775 272.885 149.65 273.052 149.525Z" fill="url(#paint6_linear)"/>
<path d="M303.328 126.265C310.51 128.72 315.145 133.713 315.145 138.54C315.145 138.914 315.145 139.247 315.187 139.58C316.857 140.953 315.814 144.74 315.479 146.571C315.312 147.569 315.062 148.568 314.811 149.525C315.187 149.775 315.521 150.149 315.772 150.607C316.732 148.11 317.275 145.364 317.275 142.535C317.275 133.255 311.721 125.266 303.746 121.688C303.829 122.229 303.871 122.77 303.871 123.311C303.871 124.351 303.662 125.349 303.328 126.265Z" fill="#EFECEA"/>
<path d="M303.328 126.265C310.51 128.72 315.145 133.713 315.145 138.54C315.145 138.914 315.145 139.247 315.187 139.58C316.857 140.953 315.814 144.74 315.479 146.571C315.312 147.569 315.062 148.568 314.811 149.525C315.187 149.775 315.521 150.149 315.772 150.607C316.732 148.11 317.275 145.364 317.275 142.535C317.275 133.255 311.721 125.266 303.746 121.688C303.829 122.229 303.871 122.77 303.871 123.311C303.871 124.351 303.662 125.349 303.328 126.265Z" fill="url(#paint7_linear)"/>
<path d="M284.577 126.223C287.375 125.266 290.507 124.725 293.931 124.725C297.355 124.725 300.529 125.308 303.326 126.265C303.66 125.391 303.827 124.392 303.827 123.269C303.827 122.728 303.786 122.187 303.702 121.646C300.821 120.356 297.647 119.607 294.265 119.607C290.632 119.607 287.166 120.481 284.118 121.979C284.076 122.395 284.035 122.811 284.035 123.227C284.035 124.351 284.243 125.349 284.577 126.223Z" fill="#EFECEA"/>
<path d="M284.577 126.223C287.375 125.266 290.507 124.725 293.931 124.725C297.355 124.725 300.529 125.308 303.326 126.265C303.66 125.391 303.827 124.392 303.827 123.269C303.827 122.728 303.786 122.187 303.702 121.646C300.821 120.356 297.647 119.607 294.265 119.607C290.632 119.607 287.166 120.481 284.118 121.979C284.076 122.395 284.035 122.811 284.035 123.227C284.035 124.351 284.243 125.349 284.577 126.223Z" fill="url(#paint8_linear)"/>
<path d="M284.577 126.223C287.375 125.266 290.507 124.725 293.931 124.725C297.355 124.725 300.529 125.308 303.326 126.265C303.66 125.391 303.827 124.392 303.827 123.269C303.827 122.728 303.786 122.187 303.702 121.646C300.821 120.356 297.647 119.607 294.265 119.607C290.632 119.607 287.166 120.481 284.118 121.979C284.076 122.395 284.035 122.811 284.035 123.227C284.035 124.351 284.243 125.349 284.577 126.223Z" fill="url(#paint9_linear)"/>
<path d="M294.891 195.546C302.575 193.757 309.673 190.761 315.979 186.933L302.491 182.73C301.489 182.439 300.904 181.523 300.737 180.483C300.445 178.736 300.32 175.324 300.32 172.577C302.658 171.579 305.247 170.205 307.293 168.25C308.671 166.96 309.632 165.295 310.133 163.506C310.383 162.632 310.717 161.551 311.01 160.302C312.763 160.261 314.768 157.806 315.77 155.475C316.522 153.686 316.48 151.855 315.77 150.607C315.519 150.149 315.227 149.816 314.81 149.525C314.601 150.274 314.392 151.023 314.1 151.73C313.64 152.937 311.803 155.392 311.845 156.599C311.761 152.438 311.678 148.277 311.594 144.116C311.594 143.991 311.594 143.824 311.594 143.7C308.254 144.49 301.99 145.697 294.349 145.697C285.872 145.697 279.567 144.532 276.268 143.7C276.268 143.824 276.268 143.991 276.268 144.116C276.184 148.277 276.101 152.438 276.017 156.599C276.059 155.392 274.18 152.979 273.762 151.73C273.512 150.981 273.261 150.274 273.053 149.525C272.886 149.65 272.719 149.775 272.551 149.941C271.424 151.148 271.174 153.353 272.092 155.475C273.053 157.806 275.099 160.261 276.852 160.302C277.187 161.551 277.479 162.632 277.729 163.506C278.272 165.295 279.191 166.96 280.569 168.25C280.986 168.624 281.404 168.999 281.863 169.373C282.156 169.623 282.49 169.831 282.782 170.039C282.907 170.122 282.991 170.164 283.116 170.247C283.408 170.455 283.701 170.622 283.993 170.788C284.118 170.871 284.243 170.913 284.369 170.996C284.661 171.163 284.953 171.329 285.246 171.454C285.371 171.537 285.496 171.579 285.621 171.62C285.914 171.787 286.248 171.911 286.54 172.078C286.624 172.12 286.749 172.161 286.832 172.203C287.166 172.369 287.542 172.494 287.876 172.66C287.918 172.66 287.96 172.702 288.002 172.702C288.419 172.869 288.795 172.993 289.171 173.16C289.213 173.16 289.213 173.16 289.254 173.201C289.588 173.326 289.922 173.451 290.256 173.534C290.34 173.576 290.423 173.576 290.549 173.618C290.799 173.701 291.05 173.784 291.259 173.826C292.887 174.325 293.973 174.533 293.973 174.533C293.973 174.533 296.938 173.95 300.362 172.536C300.362 173.326 300.362 174.158 300.403 175.032C297.564 175.989 294.516 176.281 291.551 175.948C291.718 178.403 291.551 180.608 291.092 181.69C289.547 185.56 286.29 188.722 282.323 190.137C279.942 191.011 277.312 191.26 275.057 192.425C273.303 193.299 271.8 195.005 271.508 196.878C271.925 197.086 272.384 197.294 272.802 197.46C280.903 197.627 288.419 197.044 294.891 195.546ZM308.337 158.305C308.337 159.803 307.085 161.051 305.581 161.051C304.078 161.051 302.825 159.803 302.825 158.305C302.825 156.807 304.078 155.559 305.581 155.559C307.085 155.559 308.337 156.765 308.337 158.305ZM303.118 148.402C304.496 148.402 305.581 149.692 305.581 151.314C305.581 152.937 304.454 154.227 303.118 154.227C301.74 154.227 300.654 152.937 300.654 151.314C300.654 149.692 301.74 148.402 303.118 148.402ZM299.568 163.589C298.608 165.712 296.436 167.21 293.973 167.21C291.467 167.21 289.338 165.712 288.377 163.589H299.568ZM283.993 148.402C285.371 148.402 286.457 149.692 286.457 151.314C286.457 152.937 285.329 154.227 283.993 154.227C282.657 154.227 281.529 152.937 281.529 151.314C281.529 149.692 282.615 148.402 283.993 148.402ZM278.481 158.305C278.481 156.807 279.734 155.559 281.237 155.559C282.74 155.559 283.993 156.807 283.993 158.305C283.993 159.803 282.74 161.051 281.237 161.051C279.734 161.051 278.481 159.803 278.481 158.305Z" fill="#E5B295"/>
<path d="M267.499 189.013C266.037 190.137 264.91 191.427 264.116 192.758C265.828 193.882 267.624 194.922 269.503 195.879C268.292 193.923 267.582 191.635 267.499 189.346C267.499 189.221 267.499 189.097 267.499 189.013Z" fill="#E5B295"/>
<path d="M291.511 175.947C294.476 176.322 297.482 176.031 300.364 175.032C300.364 174.158 300.322 173.326 300.322 172.535C296.898 173.992 293.933 174.533 293.933 174.533C293.933 174.533 292.847 174.325 291.219 173.825C291.261 173.825 291.302 173.867 291.302 173.867C291.428 174.574 291.469 175.282 291.511 175.947Z" fill="#D39E7A"/>
<path d="M290.258 173.576C290.341 173.618 290.424 173.618 290.549 173.659C290.424 173.618 290.341 173.618 290.258 173.576Z" fill="#D39E7A"/>
<path d="M289.172 173.201C289.215 173.201 289.215 173.201 289.257 173.245C289.215 173.201 289.215 173.201 289.172 173.201Z" fill="#D39E7A"/>
<path d="M287.876 172.702C287.917 172.702 287.958 172.743 288 172.743C287.958 172.743 287.917 172.702 287.876 172.702Z" fill="#D39E7A"/>
<path d="M283.995 154.227C285.373 154.227 286.459 152.937 286.459 151.314C286.459 149.692 285.331 148.402 283.995 148.402C282.659 148.402 281.531 149.692 281.531 151.314C281.531 152.937 282.617 154.227 283.995 154.227Z" fill="#332113"/>
<path d="M303.116 154.227C304.494 154.227 305.58 152.937 305.58 151.314C305.58 149.692 304.452 148.402 303.116 148.402C301.738 148.402 300.652 149.692 300.652 151.314C300.652 152.937 301.738 154.227 303.116 154.227Z" fill="#332113"/>
<path d="M293.931 167.21C296.436 167.21 298.566 165.712 299.526 163.589H288.293C289.296 165.753 291.425 167.21 293.931 167.21Z" fill="white"/>
<path d="M281.237 161.051C282.759 161.051 283.993 159.822 283.993 158.305C283.993 156.788 282.759 155.559 281.237 155.559C279.715 155.559 278.481 156.788 278.481 158.305C278.481 159.822 279.715 161.051 281.237 161.051Z" fill="#D68572"/>
<path d="M305.58 161.051C307.102 161.051 308.336 159.821 308.336 158.305C308.336 156.788 307.102 155.558 305.58 155.558C304.058 155.558 302.824 156.788 302.824 158.305C302.824 159.821 304.058 161.051 305.58 161.051Z" fill="#D68572"/>
<path d="M320.739 189.263C319.486 188.264 318.066 187.557 316.563 187.099L315.979 186.933C309.673 190.803 302.575 193.757 294.891 195.546C288.461 197.044 280.903 197.627 272.844 197.419C277.855 199.541 283.241 200.914 288.878 201.455L293.973 201.705L299.067 201.455C308.17 200.623 316.605 197.502 323.829 192.758C323.036 191.51 322.033 190.303 320.739 189.263Z" fill="#FF4F7F"/>
<path d="M274.889 149.067C274.847 147.569 274.847 145.614 275.098 143.408C274.096 143.159 273.595 142.951 273.595 142.951C272.634 141.786 272.634 140.787 272.676 139.58C271.006 140.953 272.05 144.74 272.384 146.571C272.551 147.569 272.801 148.568 273.052 149.525C273.219 149.442 273.344 149.317 273.511 149.234C273.971 149.067 274.43 149.026 274.889 149.067Z" fill="#EFECEA"/>
<path d="M274.889 149.067C274.847 147.569 274.847 145.614 275.098 143.408C274.096 143.159 273.595 142.951 273.595 142.951C272.634 141.786 272.634 140.787 272.676 139.58C271.006 140.953 272.05 144.74 272.384 146.571C272.551 147.569 272.801 148.568 273.052 149.525C273.219 149.442 273.344 149.317 273.511 149.234C273.971 149.067 274.43 149.026 274.889 149.067Z" fill="url(#paint10_linear)"/>
<path d="M274.889 149.067C274.847 147.569 274.847 145.614 275.098 143.408C274.096 143.159 273.595 142.951 273.595 142.951C272.634 141.786 272.634 140.787 272.676 139.58C271.006 140.953 272.05 144.74 272.384 146.571C272.551 147.569 272.801 148.568 273.052 149.525C273.219 149.442 273.344 149.317 273.511 149.234C273.971 149.067 274.43 149.026 274.889 149.067Z" fill="url(#paint11_linear)"/>
<path d="M274.888 149.067C274.429 149.026 273.969 149.067 273.51 149.275C273.343 149.359 273.218 149.442 273.051 149.567C273.26 150.316 273.468 151.065 273.761 151.772C274.22 152.979 276.057 155.434 276.016 156.64C276.099 152.479 276.183 148.318 276.266 144.157C276.266 144.033 276.266 143.908 276.266 143.741C275.849 143.616 275.431 143.533 275.097 143.45C274.846 145.614 274.846 147.569 274.888 149.067Z" fill="#E5B295"/>
<path d="M274.888 149.067C274.429 149.026 273.969 149.067 273.51 149.275C273.343 149.359 273.218 149.442 273.051 149.567C273.26 150.316 273.468 151.065 273.761 151.772C274.22 152.979 276.057 155.434 276.016 156.64C276.099 152.479 276.183 148.318 276.266 144.157C276.266 144.033 276.266 143.908 276.266 143.741C275.849 143.616 275.431 143.533 275.097 143.45C274.846 145.614 274.846 147.569 274.888 149.067Z" fill="url(#paint12_linear)"/>
<path d="M315.184 139.622C315.225 140.829 315.184 141.786 314.265 142.992C314.265 142.992 313.722 143.159 312.762 143.408C313.012 145.614 313.054 147.611 312.971 149.109C313.43 149.067 313.889 149.109 314.349 149.317C314.516 149.4 314.641 149.484 314.808 149.608C315.1 148.651 315.309 147.653 315.476 146.654C315.81 144.74 316.896 140.995 315.184 139.622Z" fill="#EFECEA"/>
<path d="M315.184 139.622C315.225 140.829 315.184 141.786 314.265 142.992C314.265 142.992 313.722 143.159 312.762 143.408C313.012 145.614 313.054 147.611 312.971 149.109C313.43 149.067 313.889 149.109 314.349 149.317C314.516 149.4 314.641 149.484 314.808 149.608C315.1 148.651 315.309 147.653 315.476 146.654C315.81 144.74 316.896 140.995 315.184 139.622Z" fill="url(#paint13_linear)"/>
<path d="M315.184 139.622C315.225 140.829 315.184 141.786 314.265 142.992C314.265 142.992 313.722 143.159 312.762 143.408C313.012 145.614 313.054 147.611 312.971 149.109C313.43 149.067 313.889 149.109 314.349 149.317C314.516 149.4 314.641 149.484 314.808 149.608C315.1 148.651 315.309 147.653 315.476 146.654C315.81 144.74 316.896 140.995 315.184 139.622Z" fill="url(#paint14_linear)"/>
<path d="M312.973 149.067C313.014 147.569 313.014 145.572 312.764 143.367C312.43 143.45 312.054 143.533 311.595 143.658C311.595 143.824 311.595 143.949 311.595 144.074C311.678 148.235 311.762 152.396 311.845 156.557C311.803 155.351 313.682 152.937 314.1 151.689C314.35 150.94 314.601 150.232 314.81 149.483C314.643 149.4 314.518 149.275 314.35 149.192C313.933 149.067 313.432 149.026 312.973 149.067Z" fill="#E5B295"/>
<path d="M312.973 149.067C313.014 147.569 313.014 145.572 312.764 143.367C312.43 143.45 312.054 143.533 311.595 143.658C311.595 143.824 311.595 143.949 311.595 144.074C311.678 148.235 311.762 152.396 311.845 156.557C311.803 155.351 313.682 152.937 314.1 151.689C314.35 150.94 314.601 150.232 314.81 149.483C314.643 149.4 314.518 149.275 314.35 149.192C313.933 149.067 313.432 149.026 312.973 149.067Z" fill="url(#paint15_linear)"/>
<path d="M312.098 139.747C312.515 139.122 313.225 138.831 314.436 139.206C314.728 139.289 314.979 139.455 315.188 139.622C315.188 139.289 315.146 138.956 315.146 138.581C315.146 133.755 310.469 128.72 303.329 126.306C303.12 126.847 302.869 127.388 302.535 127.846C308.256 130.051 310.928 134.961 312.098 139.747Z" fill="#EFECEA"/>
<path d="M312.098 139.747C312.515 139.122 313.225 138.831 314.436 139.206C314.728 139.289 314.979 139.455 315.188 139.622C315.188 139.289 315.146 138.956 315.146 138.581C315.146 133.755 310.469 128.72 303.329 126.306C303.12 126.847 302.869 127.388 302.535 127.846C308.256 130.051 310.928 134.961 312.098 139.747Z" fill="url(#paint16_linear)"/>
<path d="M312.098 139.747C312.515 139.122 313.225 138.831 314.436 139.206C314.728 139.289 314.979 139.455 315.188 139.622C315.188 139.289 315.146 138.956 315.146 138.581C315.146 133.755 310.469 128.72 303.329 126.306C303.12 126.847 302.869 127.388 302.535 127.846C308.256 130.051 310.928 134.961 312.098 139.747Z" fill="url(#paint17_linear)"/>
<path d="M275.766 139.747C276.935 134.961 279.608 130.051 285.37 127.804C285.036 127.347 284.786 126.806 284.577 126.265C277.395 128.678 272.718 133.713 272.718 138.581C272.718 138.956 272.718 139.289 272.676 139.622C272.885 139.455 273.135 139.289 273.428 139.206C274.639 138.831 275.349 139.122 275.766 139.747Z" fill="#EFECEA"/>
<path d="M275.766 139.747C276.935 134.961 279.608 130.051 285.37 127.804C285.036 127.347 284.786 126.806 284.577 126.265C277.395 128.678 272.718 133.713 272.718 138.581C272.718 138.956 272.718 139.289 272.676 139.622C272.885 139.455 273.135 139.289 273.428 139.206C274.639 138.831 275.349 139.122 275.766 139.747Z" fill="url(#paint18_linear)"/>
<path d="M275.766 139.747C276.935 134.961 279.608 130.051 285.37 127.804C285.036 127.347 284.786 126.806 284.577 126.265C277.395 128.678 272.718 133.713 272.718 138.581C272.718 138.956 272.718 139.289 272.676 139.622C272.885 139.455 273.135 139.289 273.428 139.206C274.639 138.831 275.349 139.122 275.766 139.747Z" fill="url(#paint19_linear)"/>
<path d="M293.931 126.515C297.397 126.39 300.236 126.889 302.533 127.804C302.867 127.347 303.117 126.806 303.326 126.265C300.528 125.308 297.355 124.725 293.931 124.725C290.507 124.725 287.333 125.308 284.577 126.223C284.786 126.764 285.037 127.305 285.371 127.763C287.667 126.847 290.507 126.39 293.931 126.515Z" fill="#EFECEA"/>
<path d="M293.931 126.515C297.397 126.39 300.236 126.889 302.533 127.804C302.867 127.347 303.117 126.806 303.326 126.265C300.528 125.308 297.355 124.725 293.931 124.725C290.507 124.725 287.333 125.308 284.577 126.223C284.786 126.764 285.037 127.305 285.371 127.763C287.667 126.847 290.507 126.39 293.931 126.515Z" fill="url(#paint20_linear)"/>
<path d="M293.931 126.515C297.397 126.39 300.236 126.889 302.533 127.804C302.867 127.347 303.117 126.806 303.326 126.265C300.528 125.308 297.355 124.725 293.931 124.725C290.507 124.725 287.333 125.308 284.577 126.223C284.786 126.764 285.037 127.305 285.371 127.763C287.667 126.847 290.507 126.39 293.931 126.515Z" fill="url(#paint21_linear)"/>
<path d="M293.931 126.515C297.397 126.39 300.236 126.889 302.533 127.804C302.867 127.347 303.117 126.806 303.326 126.265C300.528 125.308 297.355 124.725 293.931 124.725C290.507 124.725 287.333 125.308 284.577 126.223C284.786 126.764 285.037 127.305 285.371 127.763C287.667 126.847 290.507 126.39 293.931 126.515Z" fill="url(#paint22_linear)"/>
<path d="M312.093 139.747C310.924 134.962 308.251 130.093 302.531 127.805C300.192 126.889 297.353 126.39 293.929 126.515C290.505 126.39 287.665 126.848 285.327 127.763C279.564 130.01 276.934 134.92 275.723 139.705C276.349 140.662 276.266 142.41 276.224 143.658C279.564 144.449 285.87 145.655 294.305 145.655C301.946 145.655 308.168 144.449 311.55 143.658C311.55 142.41 311.467 140.704 312.093 139.747Z" fill="#E5B295"/>
<path d="M312.093 139.747C310.924 134.962 308.251 130.093 302.531 127.805C300.192 126.889 297.353 126.39 293.929 126.515C290.505 126.39 287.665 126.848 285.327 127.763C279.564 130.01 276.934 134.92 275.723 139.705C276.349 140.662 276.266 142.41 276.224 143.658C279.564 144.449 285.87 145.655 294.305 145.655C301.946 145.655 308.168 144.449 311.55 143.658C311.55 142.41 311.467 140.704 312.093 139.747Z" fill="url(#paint23_linear)"/>
<path d="M273.597 142.951C273.597 142.951 274.14 143.117 275.1 143.408C275.226 142.243 275.434 140.995 275.769 139.747C275.351 139.122 274.641 138.831 273.43 139.206C273.138 139.289 272.887 139.455 272.679 139.622C272.637 140.787 272.679 141.785 273.597 142.951Z" fill="#EFECEA"/>
<path d="M273.597 142.951C273.597 142.951 274.14 143.117 275.1 143.408C275.226 142.243 275.434 140.995 275.769 139.747C275.351 139.122 274.641 138.831 273.43 139.206C273.138 139.289 272.887 139.455 272.679 139.622C272.637 140.787 272.679 141.785 273.597 142.951Z" fill="url(#paint24_linear)"/>
<path d="M273.597 142.951C273.597 142.951 274.14 143.117 275.1 143.408C275.226 142.243 275.434 140.995 275.769 139.747C275.351 139.122 274.641 138.831 273.43 139.206C273.138 139.289 272.887 139.455 272.679 139.622C272.637 140.787 272.679 141.785 273.597 142.951Z" fill="url(#paint25_linear)"/>
<path d="M273.597 142.951C273.597 142.951 274.14 143.117 275.1 143.408C275.226 142.243 275.434 140.995 275.769 139.747C275.351 139.122 274.641 138.831 273.43 139.206C273.138 139.289 272.887 139.455 272.679 139.622C272.637 140.787 272.679 141.785 273.597 142.951Z" fill="url(#paint26_linear)"/>
<path d="M275.766 139.746C275.474 140.995 275.265 142.243 275.098 143.408C275.432 143.491 275.808 143.616 276.267 143.699C276.309 142.451 276.392 140.703 275.766 139.746Z" fill="#E5B295"/>
<path d="M275.766 139.746C275.474 140.995 275.265 142.243 275.098 143.408C275.432 143.491 275.808 143.616 276.267 143.699C276.309 142.451 276.392 140.703 275.766 139.746Z" fill="url(#paint27_linear)"/>
<path d="M275.766 139.746C275.474 140.995 275.265 142.243 275.098 143.408C275.432 143.491 275.808 143.616 276.267 143.699C276.309 142.451 276.392 140.703 275.766 139.746Z" fill="url(#paint28_linear)"/>
<path d="M312.094 139.747C312.387 140.995 312.596 142.243 312.763 143.408C313.723 143.159 314.266 142.992 314.266 142.992C315.226 141.827 315.226 140.829 315.184 139.622C314.976 139.455 314.725 139.289 314.433 139.206C313.222 138.831 312.512 139.123 312.094 139.747Z" fill="#EFECEA"/>
<path d="M312.094 139.747C312.387 140.995 312.596 142.243 312.763 143.408C313.723 143.159 314.266 142.992 314.266 142.992C315.226 141.827 315.226 140.829 315.184 139.622C314.976 139.455 314.725 139.289 314.433 139.206C313.222 138.831 312.512 139.123 312.094 139.747Z" fill="url(#paint29_linear)"/>
<path d="M312.094 139.747C312.387 140.995 312.596 142.243 312.763 143.408C313.723 143.159 314.266 142.992 314.266 142.992C315.226 141.827 315.226 140.829 315.184 139.622C314.976 139.455 314.725 139.289 314.433 139.206C313.222 138.831 312.512 139.123 312.094 139.747Z" fill="url(#paint30_linear)"/>
<path d="M312.094 139.747C312.387 140.995 312.596 142.243 312.763 143.408C313.723 143.159 314.266 142.992 314.266 142.992C315.226 141.827 315.226 140.829 315.184 139.622C314.976 139.455 314.725 139.289 314.433 139.206C313.222 138.831 312.512 139.123 312.094 139.747Z" fill="url(#paint31_linear)"/>
<path d="M312.096 139.746C311.47 140.703 311.553 142.451 311.595 143.699C312.013 143.616 312.43 143.491 312.764 143.408C312.597 142.201 312.388 140.995 312.096 139.746Z" fill="#E5B295"/>
<path d="M312.096 139.746C311.47 140.703 311.553 142.451 311.595 143.699C312.013 143.616 312.43 143.491 312.764 143.408C312.597 142.201 312.388 140.995 312.096 139.746Z" fill="url(#paint32_linear)"/>
<path d="M312.096 139.746C311.47 140.703 311.553 142.451 311.595 143.699C312.013 143.616 312.43 143.491 312.764 143.408C312.597 142.201 312.388 140.995 312.096 139.746Z" fill="url(#paint33_linear)"/>
<path d="M271.256 187.099L285.37 182.73C286.372 182.439 286.957 181.524 287.124 180.483C287.416 178.652 287.5 175.282 287.542 172.577C287.291 172.494 287.04 172.369 286.832 172.244C286.748 172.203 286.623 172.161 286.539 172.12C286.247 171.995 285.955 171.828 285.621 171.662C285.495 171.62 285.37 171.537 285.245 171.495C284.953 171.329 284.66 171.204 284.368 171.038C284.243 170.954 284.117 170.913 283.992 170.83C283.7 170.663 283.408 170.455 283.115 170.289C282.99 170.205 282.907 170.164 282.781 170.081C282.447 169.873 282.155 169.623 281.863 169.415C281.821 169.373 281.737 169.332 281.696 169.29C281.236 170.538 280.819 171.828 280.192 172.619C277.812 175.781 273.887 177.196 271.131 179.984C268.793 182.356 267.456 185.685 267.456 189.055C267.498 189.013 267.54 188.972 267.582 188.93C268.751 188.098 269.962 187.515 271.256 187.099Z" fill="#EFECEA"/>
<path d="M271.256 187.099L285.37 182.73C286.372 182.439 286.957 181.524 287.124 180.483C287.416 178.652 287.5 175.282 287.542 172.577C287.291 172.494 287.04 172.369 286.832 172.244C286.748 172.203 286.623 172.161 286.539 172.12C286.247 171.995 285.955 171.828 285.621 171.662C285.495 171.62 285.37 171.537 285.245 171.495C284.953 171.329 284.66 171.204 284.368 171.038C284.243 170.954 284.117 170.913 283.992 170.83C283.7 170.663 283.408 170.455 283.115 170.289C282.99 170.205 282.907 170.164 282.781 170.081C282.447 169.873 282.155 169.623 281.863 169.415C281.821 169.373 281.737 169.332 281.696 169.29C281.236 170.538 280.819 171.828 280.192 172.619C277.812 175.781 273.887 177.196 271.131 179.984C268.793 182.356 267.456 185.685 267.456 189.055C267.498 189.013 267.54 188.972 267.582 188.93C268.751 188.098 269.962 187.515 271.256 187.099Z" fill="url(#paint34_linear)"/>
<path d="M275.058 192.384C277.313 191.218 279.944 190.969 282.324 190.095C286.249 188.68 289.506 185.518 291.093 181.648C291.51 180.566 291.677 178.402 291.552 175.906C290.216 175.739 288.838 175.448 287.543 174.99C287.543 174.117 287.585 173.284 287.585 172.494C287.669 172.535 287.794 172.577 287.877 172.619C287.543 172.494 287.168 172.327 286.834 172.161C287.084 172.286 287.335 172.369 287.543 172.494C287.502 175.198 287.418 178.569 287.126 180.4C286.959 181.44 286.374 182.355 285.372 182.647L271.258 187.016C269.964 187.432 268.711 188.014 267.625 188.805C267.584 188.847 267.542 188.888 267.5 188.93C267.5 189.055 267.5 189.138 267.5 189.263C267.542 191.551 268.293 193.84 269.504 195.796C270.173 196.129 270.841 196.461 271.55 196.753C271.801 194.963 273.304 193.257 275.058 192.384Z" fill="#E5B295"/>
<path d="M275.058 192.384C277.313 191.218 279.944 190.969 282.324 190.095C286.249 188.68 289.506 185.518 291.093 181.648C291.51 180.566 291.677 178.402 291.552 175.906C290.216 175.739 288.838 175.448 287.543 174.99C287.543 174.117 287.585 173.284 287.585 172.494C287.669 172.535 287.794 172.577 287.877 172.619C287.543 172.494 287.168 172.327 286.834 172.161C287.084 172.286 287.335 172.369 287.543 172.494C287.502 175.198 287.418 178.569 287.126 180.4C286.959 181.44 286.374 182.355 285.372 182.647L271.258 187.016C269.964 187.432 268.711 188.014 267.625 188.805C267.584 188.847 267.542 188.888 267.5 188.93C267.5 189.055 267.5 189.138 267.5 189.263C267.542 191.551 268.293 193.84 269.504 195.796C270.173 196.129 270.841 196.461 271.55 196.753C271.801 194.963 273.304 193.257 275.058 192.384Z" fill="url(#paint35_linear)"/>
<path d="M287.5 175.032C288.794 175.49 290.131 175.781 291.509 175.948C291.467 175.282 291.425 174.616 291.342 173.909C291.3 173.909 291.258 173.867 291.258 173.867C291.049 173.784 290.799 173.742 290.548 173.659C290.465 173.617 290.381 173.617 290.256 173.576C289.922 173.451 289.588 173.368 289.254 173.243C289.212 173.243 289.212 173.243 289.17 173.201C288.794 173.077 288.419 172.91 288.001 172.744C287.959 172.744 287.918 172.702 287.876 172.702C287.792 172.66 287.667 172.619 287.583 172.577C287.542 173.326 287.542 174.158 287.5 175.032Z" fill="#D39E7A"/>
<path d="M287.5 175.032C288.794 175.49 290.131 175.781 291.509 175.948C291.467 175.282 291.425 174.616 291.342 173.909C291.3 173.909 291.258 173.867 291.258 173.867C291.049 173.784 290.799 173.742 290.548 173.659C290.465 173.617 290.381 173.617 290.256 173.576C289.922 173.451 289.588 173.368 289.254 173.243C289.212 173.243 289.212 173.243 289.17 173.201C288.794 173.077 288.419 172.91 288.001 172.744C287.959 172.744 287.918 172.702 287.876 172.702C287.792 172.66 287.667 172.619 287.583 172.577C287.542 173.326 287.542 174.158 287.5 175.032Z" fill="url(#paint36_linear)"/>
<path d="M281.906 169.332C282.199 169.581 282.533 169.79 282.825 169.998C282.491 169.79 282.199 169.581 281.906 169.332Z" fill="#E5B295"/>
<path d="M281.906 169.332C282.199 169.581 282.533 169.79 282.825 169.998C282.491 169.79 282.199 169.581 281.906 169.332Z" fill="url(#paint37_linear)"/>
<path d="M284.368 170.996C284.66 171.162 284.953 171.329 285.245 171.454C284.953 171.329 284.66 171.162 284.368 170.996Z" fill="#E5B295"/>
<path d="M284.368 170.996C284.66 171.162 284.953 171.329 285.245 171.454C284.953 171.329 284.66 171.162 284.368 170.996Z" fill="url(#paint38_linear)"/>
<path d="M283.156 170.247C283.449 170.455 283.741 170.621 284.033 170.788C283.699 170.621 283.449 170.413 283.156 170.247Z" fill="#E5B295"/>
<path d="M283.156 170.247C283.449 170.455 283.741 170.621 284.033 170.788C283.699 170.621 283.449 170.413 283.156 170.247Z" fill="url(#paint39_linear)"/>
<path d="M285.622 171.662C285.914 171.828 286.206 171.953 286.54 172.119C286.206 171.953 285.914 171.828 285.622 171.662Z" fill="#E5B295"/>
<path d="M285.622 171.662C285.914 171.828 286.206 171.953 286.54 172.119C286.206 171.953 285.914 171.828 285.622 171.662Z" fill="url(#paint40_linear)"/>
<path d="M290.508 173.659C290.758 173.742 290.967 173.826 291.218 173.868C291.009 173.826 290.758 173.742 290.508 173.659Z" fill="#E5B295"/>
<path d="M290.508 173.659C290.758 173.742 290.967 173.826 291.218 173.868C291.009 173.826 290.758 173.742 290.508 173.659Z" fill="url(#paint41_linear)"/>
<path d="M289.254 173.201C289.588 173.327 289.922 173.452 290.256 173.535C289.922 173.452 289.588 173.327 289.254 173.201Z" fill="#E5B295"/>
<path d="M289.254 173.201C289.588 173.327 289.922 173.452 290.256 173.535C289.922 173.452 289.588 173.327 289.254 173.201Z" fill="url(#paint42_linear)"/>
<path d="M288 172.744C288.418 172.91 288.793 173.035 289.169 173.202C288.793 173.077 288.418 172.91 288 172.744Z" fill="#E5B295"/>
<path d="M288 172.744C288.418 172.91 288.793 173.035 289.169 173.202C288.793 173.077 288.418 172.91 288 172.744Z" fill="url(#paint43_linear)"/>
</g>
<ellipse cx="294.052" cy="148.232" rx="53.4304" ry="53.3062" stroke="#99F3FF" stroke-width="4"/>
<path d="M325.351 90.2542L324.892 91.1423L325.807 91.616L326.253 90.6867L325.351 90.2542ZM329.901 83.0823C330.14 82.5844 329.93 81.9871 329.432 81.7482C328.934 81.5093 328.337 81.7194 328.098 82.2173L329.901 83.0823ZM317.364 84.995C316.873 84.7412 316.27 84.933 316.016 85.4235C315.762 85.914 315.954 86.5174 316.445 86.7712L317.364 84.995ZM314.435 61.2399C319.234 70.3584 322.625 80.1563 324.366 90.4214L326.337 90.087C324.56 79.6053 321.099 69.6066 316.205 60.3084L314.435 61.2399ZM328.098 82.2173L324.45 89.8217L326.253 90.6867L329.901 83.0823L328.098 82.2173ZM325.811 89.3661L317.364 84.995L316.445 86.7712L324.892 91.1423L325.811 89.3661Z" fill="#99F3FF"/>
<path d="M74.9768 142.337C74.6599 142.79 74.7697 143.413 75.222 143.73C75.6744 144.047 76.298 143.937 76.6148 143.485L74.9768 142.337ZM80.8669 135.672L81.439 134.852C80.9867 134.536 80.3643 134.647 80.0479 135.098L80.8669 135.672ZM87.5526 141.555C88.0056 141.871 88.6289 141.76 88.9449 141.307C89.2608 140.854 89.1498 140.23 88.6968 139.914L87.5526 141.555ZM108.663 189.773C94.9059 174.437 85.6959 155.992 82.6481 136.146L80.6713 136.45C83.7834 156.714 93.1819 175.511 107.174 191.108L108.663 189.773ZM76.6148 143.485L81.6859 136.246L80.0479 135.098L74.9768 142.337L76.6148 143.485ZM80.2948 136.492L87.5526 141.555L88.6968 139.914L81.439 134.852L80.2948 136.492Z" fill="#FFCE3A"/>
<rect width="64" height="31.368" rx="3" transform="matrix(0.966076 0.258257 -0.259382 0.965775 269.441 25.5949)" fill="white"/>
<rect width="63.1586" height="32.1362" rx="3" transform="matrix(0.966076 0.258257 -0.259382 0.965775 273.441 23.5949)" fill="white"/>
<path d="M310.876 33.5206L332.129 39.2022C333.73 39.6301 334.679 41.2742 334.249 42.8743L327.505 67.9845C327.076 69.5846 325.43 70.5349 323.829 70.107V70.107M307.011 32.4875L304.113 31.7128M272.42 26.3458V26.3458C272.85 24.7457 274.496 23.7954 276.097 24.2233L297.35 29.905" stroke="#4657AE" stroke-linecap="round" stroke-linejoin="round"/>
<path d="M323.403 39.9744L328.454 41.3247C330.055 41.7526 331.004 43.3966 330.574 44.9968L323.83 70.1069C323.4 71.7071 321.755 72.6574 320.154 72.2295L264.121 57.2506C262.521 56.8227 261.572 55.1786 262.001 53.5785L268.745 28.4683C269.175 26.8682 270.821 25.9179 272.422 26.3458L319.87 39.0299" stroke="#4657AE" stroke-linecap="round" stroke-linejoin="round"/>
<path d="M326.002 47.9166C326.002 47.9166 326.002 47.9166 326.002 47.9166C324.538 47.5254 323.7 45.911 324.13 44.3109L274.667 31.0881C274.237 32.6882 272.703 33.6682 271.239 33.2771L266.57 50.661C268.034 51.0523 268.872 52.6666 268.442 54.2667L317.905 67.4895C318.335 65.8893 319.87 64.9093 321.333 65.3005L326.002 47.9166Z" fill="#FFCE3A"/>
<path d="M274.958 31.1653C274.529 32.7655 272.938 33.7307 271.406 33.3211M317.909 67.491L268.446 54.2682M326.006 47.9181L321.337 65.302M274.671 31.0896L284.387 33.6869M287.92 34.6314L323.554 44.1574M269.168 41.0048L271.243 33.2786M268.13 44.8679L268.39 43.9021M266.574 50.6625L267.352 47.7652M325.847 47.8758C324.318 47.467 323.427 45.8385 323.857 44.2384M317.631 67.4161C318.061 65.8159 319.648 64.8501 321.177 65.2589M266.737 50.705C268.27 51.1146 269.163 52.7438 268.733 54.3439" stroke="#4657AE" stroke-linecap="round" stroke-linejoin="round"/>
<ellipse rx="6.96407" ry="7" transform="matrix(0.966076 0.258257 -0.259382 0.965775 295.768 49.1495)" stroke="#4657AE"/>
<path d="M165.063 190.687L186.317 196.369C187.917 196.797 188.867 198.441 188.437 200.041L181.693 225.151C181.263 226.751 179.617 227.702 178.016 227.274V227.274M161.199 189.654L158.301 188.88M126.608 183.513V183.513C127.038 181.913 128.684 180.962 130.284 181.39L151.538 187.072" stroke="#4657AE" stroke-linecap="round" stroke-linejoin="round"/>
<path d="M144.588 182.108L189.993 194.246C191.594 194.674 192.543 196.318 192.113 197.919L185.369 223.029C184.939 224.629 183.294 225.579 181.693 225.151V225.151M140.723 181.075L133.961 179.268C132.36 178.84 130.714 179.79 130.284 181.39V181.39" stroke="#4657AE" stroke-linecap="round" stroke-linejoin="round"/>
<path d="M177.59 197.141L182.642 198.492C184.242 198.919 185.191 200.563 184.762 202.164L178.018 227.274C177.588 228.874 175.942 229.824 174.341 229.396L118.309 214.417C116.708 213.99 115.759 212.345 116.189 210.745L122.933 185.635C123.363 184.035 125.009 183.085 126.609 183.513L174.057 196.197" stroke="#4657AE" stroke-linecap="round" stroke-linejoin="round"/>
<path d="M180.19 205.083C180.19 205.083 180.19 205.083 180.19 205.083C178.726 204.692 177.888 203.077 178.318 201.477L128.855 188.254C128.425 189.854 126.89 190.834 125.427 190.443L120.758 207.827C122.222 208.219 123.059 209.833 122.63 211.433L172.093 224.656C172.523 223.056 174.057 222.076 175.521 222.467L180.19 205.083Z" fill="#FFCE3A"/>
<path d="M138.571 190.852L129.145 188.332C128.715 189.932 126.959 190.853 125.427 190.443L123.352 198.17M142.104 191.796L178.041 201.403C177.611 203.003 178.661 204.674 180.19 205.083L175.521 222.467C173.992 222.058 172.246 222.982 171.816 224.582L122.92 211.51C123.349 209.91 122.29 208.237 120.758 207.827L121.536 204.93M122.315 202.033L122.574 201.067" stroke="#4657AE" stroke-linecap="round" stroke-linejoin="round"/>
<ellipse rx="6.99778" ry="7" transform="matrix(0.966076 0.258257 -0.259382 0.965775 150.988 206.325)" stroke="#4657AE"/>
<g style="mix-blend-mode:multiply" opacity="0.5">
<rect x="327.054" y="137.687" width="70.8922" height="27.7264" rx="4" fill="#4657AE"/>
</g>
<rect x="327.054" y="135.417" width="70.8922" height="27.7264" rx="4" fill="url(#paint44_linear)"/>
<path d="M335.086 150.43H332.441V148.933H335.086V146.267H336.583V148.933H339.229V150.43H336.583V153.062H335.086V150.43ZM344.315 148.229C345.281 148.229 346.049 148.5 346.618 149.043C347.192 149.585 347.48 150.328 347.48 151.271C347.48 152.388 347.136 153.247 346.447 153.848C345.759 154.45 344.775 154.751 343.494 154.751C342.382 154.751 341.484 154.571 340.801 154.211V152.385C341.161 152.577 341.58 152.734 342.059 152.857C342.537 152.976 342.991 153.035 343.419 153.035C344.709 153.035 345.354 152.506 345.354 151.449C345.354 150.442 344.686 149.938 343.351 149.938C343.109 149.938 342.843 149.963 342.551 150.013C342.259 150.059 342.022 150.109 341.84 150.164L340.999 149.713L341.375 144.62H346.796V146.411H343.228L343.043 148.373L343.282 148.325C343.56 148.261 343.904 148.229 344.315 148.229ZM355.888 149.617C355.888 151.362 355.6 152.654 355.026 153.493C354.457 154.331 353.577 154.751 352.388 154.751C351.235 154.751 350.364 154.318 349.776 153.452C349.193 152.586 348.901 151.308 348.901 149.617C348.901 147.853 349.186 146.554 349.756 145.72C350.325 144.882 351.203 144.463 352.388 144.463C353.541 144.463 354.411 144.9 354.999 145.775C355.591 146.65 355.888 147.931 355.888 149.617ZM351 149.617C351 150.843 351.105 151.722 351.314 152.256C351.528 152.784 351.886 153.049 352.388 153.049C352.88 153.049 353.235 152.78 353.454 152.242C353.673 151.704 353.782 150.829 353.782 149.617C353.782 148.391 353.67 147.511 353.447 146.978C353.228 146.44 352.875 146.172 352.388 146.172C351.891 146.172 351.535 146.44 351.321 146.978C351.107 147.511 351 148.391 351 149.617ZM369.983 144.62V151.087C369.983 151.825 369.816 152.472 369.484 153.028C369.156 153.584 368.679 154.01 368.055 154.306C367.431 154.603 366.692 154.751 365.84 154.751C364.555 154.751 363.557 154.423 362.846 153.766C362.135 153.106 361.78 152.203 361.78 151.059V144.62H363.892V150.738C363.892 151.508 364.047 152.073 364.357 152.433C364.667 152.793 365.179 152.973 365.895 152.973C366.587 152.973 367.089 152.793 367.399 152.433C367.713 152.069 367.87 151.499 367.87 150.724V144.62H369.983ZM378.828 154.614L378.103 152.235H374.46L373.735 154.614H371.452L374.979 144.579H377.57L381.111 154.614H378.828ZM377.598 150.458C376.928 148.302 376.549 147.083 376.463 146.801C376.381 146.518 376.322 146.295 376.285 146.131C376.135 146.714 375.704 148.156 374.993 150.458H377.598ZM390.845 154.614H388.733V150.301H384.775V154.614H382.656V144.62H384.775V148.537H388.733V144.62H390.845V154.614Z" fill="#4657AE"/>
<ellipse cx="118.486" cy="67.1513" rx="65.2128" ry="65.0612" stroke="#FFCE3A" stroke-width="4"/>
<g style="mix-blend-mode:multiply" opacity="0.5">
<rect x="0.53064" y="54.2011" width="79.8701" height="27.7264" rx="4" fill="#4657AE"/>
</g>
<rect x="0.53064" y="51.9315" width="79.8701" height="27.7264" rx="4" fill="url(#paint45_linear)"/>
<path d="M7.69641 67.6232H5.0509V66.1262H7.69641V63.4601H9.19348V66.1262H11.839V67.6232H9.19348V70.2551H7.69641V67.6232ZM18.5106 71.8068H16.3983V66.0236L16.4188 65.0734L16.453 64.0344C16.1021 64.3853 15.8582 64.6154 15.7215 64.7248L14.5731 65.6476L13.5545 64.3762L16.7743 61.8127H18.5106V71.8068ZM28.4976 66.8098C28.4976 68.5552 28.2105 69.8472 27.6363 70.6857C27.0666 71.5243 26.1871 71.9435 24.9976 71.9435C23.8446 71.9435 22.9742 71.5106 22.3863 70.6447C21.803 69.7788 21.5113 68.5005 21.5113 66.8098C21.5113 65.0461 21.7961 63.7473 22.3658 62.9133C22.9354 62.0747 23.8127 61.6555 24.9976 61.6555C26.1506 61.6555 27.0211 62.093 27.6089 62.968C28.2014 63.843 28.4976 65.1236 28.4976 66.8098ZM23.6099 66.8098C23.6099 68.0357 23.7147 68.9152 23.9244 69.4484C24.1386 69.9771 24.4963 70.2414 24.9976 70.2414C25.4898 70.2414 25.8453 69.9725 26.064 69.4348C26.2828 68.897 26.3922 68.022 26.3922 66.8098C26.3922 65.5838 26.2805 64.7043 26.0572 64.1711C25.8384 63.6333 25.4853 63.3644 24.9976 63.3644C24.5009 63.3644 24.1454 63.6333 23.9312 64.1711C23.717 64.7043 23.6099 65.5838 23.6099 66.8098ZM36.7757 66.8098C36.7757 68.5552 36.4886 69.8472 35.9143 70.6857C35.3447 71.5243 34.4651 71.9435 33.2757 71.9435C32.1227 71.9435 31.2522 71.5106 30.6643 70.6447C30.081 69.7788 29.7893 68.5005 29.7893 66.8098C29.7893 65.0461 30.0742 63.7473 30.6438 62.9133C31.2135 62.0747 32.0908 61.6555 33.2757 61.6555C34.4287 61.6555 35.2991 62.093 35.887 62.968C36.4794 63.843 36.7757 65.1236 36.7757 66.8098ZM31.888 66.8098C31.888 68.0357 31.9928 68.9152 32.2024 69.4484C32.4166 69.9771 32.7744 70.2414 33.2757 70.2414C33.7679 70.2414 34.1233 69.9725 34.3421 69.4348C34.5608 68.897 34.6702 68.022 34.6702 66.8098C34.6702 65.5838 34.5585 64.7043 34.3352 64.1711C34.1165 63.6333 33.7633 63.3644 33.2757 63.3644C32.7789 63.3644 32.4235 63.6333 32.2093 64.1711C31.9951 64.7043 31.888 65.5838 31.888 66.8098ZM50.8708 61.8127V68.2795C50.8708 69.0178 50.7045 69.6649 50.3718 70.2209C50.0437 70.7769 49.5674 71.203 48.9431 71.4992C48.3187 71.7954 47.5805 71.9435 46.7282 71.9435C45.4431 71.9435 44.445 71.6154 43.7341 70.9592C43.0232 70.2984 42.6677 69.396 42.6677 68.2521V61.8127H44.78V67.9308C44.78 68.701 44.935 69.2661 45.2449 69.6262C45.5547 69.9862 46.0674 70.1662 46.7829 70.1662C47.4756 70.1662 47.9769 69.9862 48.2868 69.6262C48.6013 69.2616 48.7585 68.6919 48.7585 67.9172V61.8127H50.8708ZM59.7163 71.8068L58.9916 69.4279H55.3481L54.6235 71.8068H52.3403L55.8676 61.7717H58.4584L61.9995 71.8068H59.7163ZM58.4858 67.6506C57.8159 65.495 57.4376 64.2759 57.351 63.9933C57.269 63.7108 57.2097 63.4875 57.1733 63.3234C57.0229 63.9068 56.5922 65.3491 55.8813 67.6506H58.4858ZM71.7336 71.8068H69.6213V67.4933H65.6632V71.8068H63.5441V61.8127H65.6632V65.7297H69.6213V61.8127H71.7336V71.8068Z" fill="white"/>
<defs>
<linearGradient id="paint0_linear" x1="291.409" y1="-8.21914" x2="106.711" y2="221.371" gradientUnits="userSpaceOnUse">
<stop stop-color="#8CD1F7"/>
<stop offset="0.0001" stop-color="#61ADFB"/>
<stop offset="0.9999" stop-color="#CAE5FE"/>
</linearGradient>
<linearGradient id="paint1_linear" x1="118.677" y1="1.96054" x2="118.677" y2="121.697" gradientUnits="userSpaceOnUse">
<stop stop-color="white"/>
<stop offset="1" stop-color="white" stop-opacity="0.32"/>
</linearGradient>
<linearGradient id="paint2_linear" x1="118.932" y1="107.28" x2="118.932" y2="79.7119" gradientUnits="userSpaceOnUse">
<stop stop-color="#6B2405"/>
<stop offset="1" stop-color="#A44F22"/>
</linearGradient>
<linearGradient id="paint3_linear" x1="89.4328" y1="64.4138" x2="132.825" y2="64.4138" gradientUnits="userSpaceOnUse">
<stop stop-color="#BA7959"/>
<stop offset="0.9246" stop-color="#A34C21"/>
</linearGradient>
<linearGradient id="paint4_linear" x1="293.952" y1="93.8504" x2="293.952" y2="192.717" gradientUnits="userSpaceOnUse">
<stop stop-color="white"/>
<stop offset="1" stop-color="white" stop-opacity="0.32"/>
</linearGradient>
<linearGradient id="paint5_linear" x1="293.93" y1="111.842" x2="293.93" y2="131.791" gradientUnits="userSpaceOnUse">
<stop offset="0.3263" stop-color="#3A1E0B"/>
<stop offset="0.5372" stop-color="#3D1F0C"/>
<stop offset="0.6683" stop-color="#45240E"/>
<stop offset="0.7775" stop-color="#542D12"/>
<stop offset="0.8747" stop-color="#683817"/>
<stop offset="0.9632" stop-color="#83471E"/>
<stop offset="1" stop-color="#904F22"/>
</linearGradient>
<linearGradient id="paint6_linear" x1="277.937" y1="119.385" x2="277.937" y2="165.685" gradientUnits="userSpaceOnUse">
<stop offset="0.3263" stop-color="#3A1E0B"/>
<stop offset="0.5372" stop-color="#3D1F0C"/>
<stop offset="0.6683" stop-color="#45240E"/>
<stop offset="0.7775" stop-color="#542D12"/>
<stop offset="0.8747" stop-color="#683817"/>
<stop offset="0.9632" stop-color="#83471E"/>
<stop offset="1" stop-color="#904F22"/>
</linearGradient>
<linearGradient id="paint7_linear" x1="310.302" y1="119.385" x2="310.302" y2="165.685" gradientUnits="userSpaceOnUse">
<stop offset="0.3263" stop-color="#3A1E0B"/>
<stop offset="0.5372" stop-color="#3D1F0C"/>
<stop offset="0.6683" stop-color="#45240E"/>
<stop offset="0.7775" stop-color="#542D12"/>
<stop offset="0.8747" stop-color="#683817"/>
<stop offset="0.9632" stop-color="#83471E"/>
<stop offset="1" stop-color="#904F22"/>
</linearGradient>
<linearGradient id="paint8_linear" x1="293.955" y1="111.842" x2="293.955" y2="131.791" gradientUnits="userSpaceOnUse">
<stop offset="0.3263" stop-color="#3A1E0B"/>
<stop offset="0.5372" stop-color="#3D1F0C"/>
<stop offset="0.6683" stop-color="#45240E"/>
<stop offset="0.7775" stop-color="#542D12"/>
<stop offset="0.8747" stop-color="#683817"/>
<stop offset="0.9632" stop-color="#83471E"/>
<stop offset="1" stop-color="#904F22"/>
</linearGradient>
<linearGradient id="paint9_linear" x1="293.955" y1="119.385" x2="293.955" y2="165.685" gradientUnits="userSpaceOnUse">
<stop offset="0.3263" stop-color="#3A1E0B"/>
<stop offset="0.5372" stop-color="#3D1F0C"/>
<stop offset="0.6683" stop-color="#45240E"/>
<stop offset="0.7775" stop-color="#542D12"/>
<stop offset="0.8747" stop-color="#683817"/>
<stop offset="0.9632" stop-color="#83471E"/>
<stop offset="1" stop-color="#904F22"/>
</linearGradient>
<linearGradient id="paint10_linear" x1="273.427" y1="119.385" x2="273.427" y2="165.685" gradientUnits="userSpaceOnUse">
<stop offset="0.3263" stop-color="#3A1E0B"/>
<stop offset="0.5372" stop-color="#3D1F0C"/>
<stop offset="0.6683" stop-color="#45240E"/>
<stop offset="0.7775" stop-color="#542D12"/>
<stop offset="0.8747" stop-color="#683817"/>
<stop offset="0.9632" stop-color="#83471E"/>
<stop offset="1" stop-color="#904F22"/>
</linearGradient>
<linearGradient id="paint11_linear" x1="273.427" y1="144.096" x2="273.427" y2="153.329" gradientUnits="userSpaceOnUse">
<stop offset="0.3263" stop-color="#3A1E0B"/>
<stop offset="0.5372" stop-color="#3D1F0C"/>
<stop offset="0.6683" stop-color="#45240E"/>
<stop offset="0.7775" stop-color="#542D12"/>
<stop offset="0.8747" stop-color="#683817"/>
<stop offset="0.9632" stop-color="#83471E"/>
<stop offset="1" stop-color="#904F22"/>
</linearGradient>
<linearGradient id="paint12_linear" x1="274.661" y1="144.096" x2="274.661" y2="153.329" gradientUnits="userSpaceOnUse">
<stop offset="0.3263" stop-color="#3A1E0B"/>
<stop offset="0.5372" stop-color="#3D1F0C"/>
<stop offset="0.6683" stop-color="#45240E"/>
<stop offset="0.7775" stop-color="#542D12"/>
<stop offset="0.8747" stop-color="#683817"/>
<stop offset="0.9632" stop-color="#83471E"/>
<stop offset="1" stop-color="#904F22"/>
</linearGradient>
<linearGradient id="paint13_linear" x1="314.438" y1="119.385" x2="314.438" y2="165.685" gradientUnits="userSpaceOnUse">
<stop offset="0.3263" stop-color="#3A1E0B"/>
<stop offset="0.5372" stop-color="#3D1F0C"/>
<stop offset="0.6683" stop-color="#45240E"/>
<stop offset="0.7775" stop-color="#542D12"/>
<stop offset="0.8747" stop-color="#683817"/>
<stop offset="0.9632" stop-color="#83471E"/>
<stop offset="1" stop-color="#904F22"/>
</linearGradient>
<linearGradient id="paint14_linear" x1="314.438" y1="144.096" x2="314.438" y2="153.329" gradientUnits="userSpaceOnUse">
<stop offset="0.3263" stop-color="#3A1E0B"/>
<stop offset="0.5372" stop-color="#3D1F0C"/>
<stop offset="0.6683" stop-color="#45240E"/>
<stop offset="0.7775" stop-color="#542D12"/>
<stop offset="0.8747" stop-color="#683817"/>
<stop offset="0.9632" stop-color="#83471E"/>
<stop offset="1" stop-color="#904F22"/>
</linearGradient>
<linearGradient id="paint15_linear" x1="313.205" y1="144.096" x2="313.205" y2="153.329" gradientUnits="userSpaceOnUse">
<stop offset="0.3263" stop-color="#3A1E0B"/>
<stop offset="0.5372" stop-color="#3D1F0C"/>
<stop offset="0.6683" stop-color="#45240E"/>
<stop offset="0.7775" stop-color="#542D12"/>
<stop offset="0.8747" stop-color="#683817"/>
<stop offset="0.9632" stop-color="#83471E"/>
<stop offset="1" stop-color="#904F22"/>
</linearGradient>
<linearGradient id="paint16_linear" x1="308.874" y1="119.385" x2="308.874" y2="165.685" gradientUnits="userSpaceOnUse">
<stop offset="0.3263" stop-color="#3A1E0B"/>
<stop offset="0.5372" stop-color="#3D1F0C"/>
<stop offset="0.6683" stop-color="#45240E"/>
<stop offset="0.7775" stop-color="#542D12"/>
<stop offset="0.8747" stop-color="#683817"/>
<stop offset="0.9632" stop-color="#83471E"/>
<stop offset="1" stop-color="#904F22"/>
</linearGradient>
<linearGradient id="paint17_linear" x1="308.874" y1="124.619" x2="308.874" y2="145.786" gradientUnits="userSpaceOnUse">
<stop offset="0.3263" stop-color="#3A1E0B"/>
<stop offset="0.5372" stop-color="#3D1F0C"/>
<stop offset="0.6683" stop-color="#45240E"/>
<stop offset="0.7775" stop-color="#542D12"/>
<stop offset="0.8747" stop-color="#683817"/>
<stop offset="0.9632" stop-color="#83471E"/>
<stop offset="1" stop-color="#904F22"/>
</linearGradient>
<linearGradient id="paint18_linear" x1="279.012" y1="119.385" x2="279.012" y2="165.685" gradientUnits="userSpaceOnUse">
<stop offset="0.3263" stop-color="#3A1E0B"/>
<stop offset="0.5372" stop-color="#3D1F0C"/>
<stop offset="0.6683" stop-color="#45240E"/>
<stop offset="0.7775" stop-color="#542D12"/>
<stop offset="0.8747" stop-color="#683817"/>
<stop offset="0.9632" stop-color="#83471E"/>
<stop offset="1" stop-color="#904F22"/>
</linearGradient>
<linearGradient id="paint19_linear" x1="279.012" y1="124.619" x2="279.012" y2="145.786" gradientUnits="userSpaceOnUse">
<stop offset="0.3263" stop-color="#3A1E0B"/>
<stop offset="0.5372" stop-color="#3D1F0C"/>
<stop offset="0.6683" stop-color="#45240E"/>
<stop offset="0.7775" stop-color="#542D12"/>
<stop offset="0.8747" stop-color="#683817"/>
<stop offset="0.9632" stop-color="#83471E"/>
<stop offset="1" stop-color="#904F22"/>
</linearGradient>
<linearGradient id="paint20_linear" x1="293.952" y1="111.842" x2="293.952" y2="131.791" gradientUnits="userSpaceOnUse">
<stop offset="0.3263" stop-color="#3A1E0B"/>
<stop offset="0.5372" stop-color="#3D1F0C"/>
<stop offset="0.6683" stop-color="#45240E"/>
<stop offset="0.7775" stop-color="#542D12"/>
<stop offset="0.8747" stop-color="#683817"/>
<stop offset="0.9632" stop-color="#83471E"/>
<stop offset="1" stop-color="#904F22"/>
</linearGradient>
<linearGradient id="paint21_linear" x1="293.952" y1="119.385" x2="293.952" y2="165.685" gradientUnits="userSpaceOnUse">
<stop offset="0.3263" stop-color="#3A1E0B"/>
<stop offset="0.5372" stop-color="#3D1F0C"/>
<stop offset="0.6683" stop-color="#45240E"/>
<stop offset="0.7775" stop-color="#542D12"/>
<stop offset="0.8747" stop-color="#683817"/>
<stop offset="0.9632" stop-color="#83471E"/>
<stop offset="1" stop-color="#904F22"/>
</linearGradient>
<linearGradient id="paint22_linear" x1="293.952" y1="124.619" x2="293.952" y2="145.787" gradientUnits="userSpaceOnUse">
<stop offset="0.3263" stop-color="#3A1E0B"/>
<stop offset="0.5372" stop-color="#3D1F0C"/>
<stop offset="0.6683" stop-color="#45240E"/>
<stop offset="0.7775" stop-color="#542D12"/>
<stop offset="0.8747" stop-color="#683817"/>
<stop offset="0.9632" stop-color="#83471E"/>
<stop offset="1" stop-color="#904F22"/>
</linearGradient>
<linearGradient id="paint23_linear" x1="293.932" y1="124.619" x2="293.932" y2="145.787" gradientUnits="userSpaceOnUse">
<stop offset="0.3263" stop-color="#3A1E0B"/>
<stop offset="0.5372" stop-color="#3D1F0C"/>
<stop offset="0.6683" stop-color="#45240E"/>
<stop offset="0.7775" stop-color="#542D12"/>
<stop offset="0.8747" stop-color="#683817"/>
<stop offset="0.9632" stop-color="#83471E"/>
<stop offset="1" stop-color="#904F22"/>
</linearGradient>
<linearGradient id="paint24_linear" x1="274.217" y1="119.385" x2="274.217" y2="165.685" gradientUnits="userSpaceOnUse">
<stop offset="0.3263" stop-color="#3A1E0B"/>
<stop offset="0.5372" stop-color="#3D1F0C"/>
<stop offset="0.6683" stop-color="#45240E"/>
<stop offset="0.7775" stop-color="#542D12"/>
<stop offset="0.8747" stop-color="#683817"/>
<stop offset="0.9632" stop-color="#83471E"/>
<stop offset="1" stop-color="#904F22"/>
</linearGradient>
<linearGradient id="paint25_linear" x1="274.217" y1="144.096" x2="274.217" y2="153.329" gradientUnits="userSpaceOnUse">
<stop offset="0.3263" stop-color="#3A1E0B"/>
<stop offset="0.5372" stop-color="#3D1F0C"/>
<stop offset="0.6683" stop-color="#45240E"/>
<stop offset="0.7775" stop-color="#542D12"/>
<stop offset="0.8747" stop-color="#683817"/>
<stop offset="0.9632" stop-color="#83471E"/>
<stop offset="1" stop-color="#904F22"/>
</linearGradient>
<linearGradient id="paint26_linear" x1="274.217" y1="124.619" x2="274.217" y2="145.786" gradientUnits="userSpaceOnUse">
<stop offset="0.3263" stop-color="#3A1E0B"/>
<stop offset="0.5372" stop-color="#3D1F0C"/>
<stop offset="0.6683" stop-color="#45240E"/>
<stop offset="0.7775" stop-color="#542D12"/>
<stop offset="0.8747" stop-color="#683817"/>
<stop offset="0.9632" stop-color="#83471E"/>
<stop offset="1" stop-color="#904F22"/>
</linearGradient>
<linearGradient id="paint27_linear" x1="275.705" y1="144.096" x2="275.705" y2="153.328" gradientUnits="userSpaceOnUse">
<stop offset="0.3263" stop-color="#3A1E0B"/>
<stop offset="0.5372" stop-color="#3D1F0C"/>
<stop offset="0.6683" stop-color="#45240E"/>
<stop offset="0.7775" stop-color="#542D12"/>
<stop offset="0.8747" stop-color="#683817"/>
<stop offset="0.9632" stop-color="#83471E"/>
<stop offset="1" stop-color="#904F22"/>
</linearGradient>
<linearGradient id="paint28_linear" x1="275.705" y1="124.618" x2="275.705" y2="145.786" gradientUnits="userSpaceOnUse">
<stop offset="0.3263" stop-color="#3A1E0B"/>
<stop offset="0.5372" stop-color="#3D1F0C"/>
<stop offset="0.6683" stop-color="#45240E"/>
<stop offset="0.7775" stop-color="#542D12"/>
<stop offset="0.8747" stop-color="#683817"/>
<stop offset="0.9632" stop-color="#83471E"/>
<stop offset="1" stop-color="#904F22"/>
</linearGradient>
<linearGradient id="paint29_linear" x1="313.651" y1="119.385" x2="313.651" y2="165.685" gradientUnits="userSpaceOnUse">
<stop offset="0.3263" stop-color="#3A1E0B"/>
<stop offset="0.5372" stop-color="#3D1F0C"/>
<stop offset="0.6683" stop-color="#45240E"/>
<stop offset="0.7775" stop-color="#542D12"/>
<stop offset="0.8747" stop-color="#683817"/>
<stop offset="0.9632" stop-color="#83471E"/>
<stop offset="1" stop-color="#904F22"/>
</linearGradient>
<linearGradient id="paint30_linear" x1="313.652" y1="144.096" x2="313.652" y2="153.329" gradientUnits="userSpaceOnUse">
<stop offset="0.3263" stop-color="#3A1E0B"/>
<stop offset="0.5372" stop-color="#3D1F0C"/>
<stop offset="0.6683" stop-color="#45240E"/>
<stop offset="0.7775" stop-color="#542D12"/>
<stop offset="0.8747" stop-color="#683817"/>
<stop offset="0.9632" stop-color="#83471E"/>
<stop offset="1" stop-color="#904F22"/>
</linearGradient>
<linearGradient id="paint31_linear" x1="313.651" y1="124.619" x2="313.651" y2="145.787" gradientUnits="userSpaceOnUse">
<stop offset="0.3263" stop-color="#3A1E0B"/>
<stop offset="0.5372" stop-color="#3D1F0C"/>
<stop offset="0.6683" stop-color="#45240E"/>
<stop offset="0.7775" stop-color="#542D12"/>
<stop offset="0.8747" stop-color="#683817"/>
<stop offset="0.9632" stop-color="#83471E"/>
<stop offset="1" stop-color="#904F22"/>
</linearGradient>
<linearGradient id="paint32_linear" x1="312.162" y1="144.096" x2="312.162" y2="153.328" gradientUnits="userSpaceOnUse">
<stop offset="0.3263" stop-color="#3A1E0B"/>
<stop offset="0.5372" stop-color="#3D1F0C"/>
<stop offset="0.6683" stop-color="#45240E"/>
<stop offset="0.7775" stop-color="#542D12"/>
<stop offset="0.8747" stop-color="#683817"/>
<stop offset="0.9632" stop-color="#83471E"/>
<stop offset="1" stop-color="#904F22"/>
</linearGradient>
<linearGradient id="paint33_linear" x1="312.162" y1="124.618" x2="312.162" y2="145.786" gradientUnits="userSpaceOnUse">
<stop offset="0.3263" stop-color="#3A1E0B"/>
<stop offset="0.5372" stop-color="#3D1F0C"/>
<stop offset="0.6683" stop-color="#45240E"/>
<stop offset="0.7775" stop-color="#542D12"/>
<stop offset="0.8747" stop-color="#683817"/>
<stop offset="0.9632" stop-color="#83471E"/>
<stop offset="1" stop-color="#904F22"/>
</linearGradient>
<linearGradient id="paint34_linear" x1="277.523" y1="164.67" x2="277.523" y2="198.672" gradientUnits="userSpaceOnUse">
<stop offset="0.3263" stop-color="#3A1E0B"/>
<stop offset="0.5372" stop-color="#3D1F0C"/>
<stop offset="0.6683" stop-color="#45240E"/>
<stop offset="0.7775" stop-color="#542D12"/>
<stop offset="0.8747" stop-color="#683817"/>
<stop offset="0.9632" stop-color="#83471E"/>
<stop offset="1" stop-color="#904F22"/>
</linearGradient>
<linearGradient id="paint35_linear" x1="279.528" y1="164.67" x2="279.528" y2="198.672" gradientUnits="userSpaceOnUse">
<stop offset="0.3263" stop-color="#3A1E0B"/>
<stop offset="0.5372" stop-color="#3D1F0C"/>
<stop offset="0.6683" stop-color="#45240E"/>
<stop offset="0.7775" stop-color="#542D12"/>
<stop offset="0.8747" stop-color="#683817"/>
<stop offset="0.9632" stop-color="#83471E"/>
<stop offset="1" stop-color="#904F22"/>
</linearGradient>
<linearGradient id="paint36_linear" x1="289.512" y1="164.67" x2="289.512" y2="198.672" gradientUnits="userSpaceOnUse">
<stop offset="0.3263" stop-color="#3A1E0B"/>
<stop offset="0.5372" stop-color="#3D1F0C"/>
<stop offset="0.6683" stop-color="#45240E"/>
<stop offset="0.7775" stop-color="#542D12"/>
<stop offset="0.8747" stop-color="#683817"/>
<stop offset="0.9632" stop-color="#83471E"/>
<stop offset="1" stop-color="#904F22"/>
</linearGradient>
<linearGradient id="paint37_linear" x1="282.361" y1="164.671" x2="282.361" y2="198.672" gradientUnits="userSpaceOnUse">
<stop offset="0.3263" stop-color="#3A1E0B"/>
<stop offset="0.5372" stop-color="#3D1F0C"/>
<stop offset="0.6683" stop-color="#45240E"/>
<stop offset="0.7775" stop-color="#542D12"/>
<stop offset="0.8747" stop-color="#683817"/>
<stop offset="0.9632" stop-color="#83471E"/>
<stop offset="1" stop-color="#904F22"/>
</linearGradient>
<linearGradient id="paint38_linear" x1="284.811" y1="164.67" x2="284.811" y2="198.671" gradientUnits="userSpaceOnUse">
<stop offset="0.3263" stop-color="#3A1E0B"/>
<stop offset="0.5372" stop-color="#3D1F0C"/>
<stop offset="0.6683" stop-color="#45240E"/>
<stop offset="0.7775" stop-color="#542D12"/>
<stop offset="0.8747" stop-color="#683817"/>
<stop offset="0.9632" stop-color="#83471E"/>
<stop offset="1" stop-color="#904F22"/>
</linearGradient>
<linearGradient id="paint39_linear" x1="283.579" y1="164.67" x2="283.579" y2="198.67" gradientUnits="userSpaceOnUse">
<stop offset="0.3263" stop-color="#3A1E0B"/>
<stop offset="0.5372" stop-color="#3D1F0C"/>
<stop offset="0.6683" stop-color="#45240E"/>
<stop offset="0.7775" stop-color="#542D12"/>
<stop offset="0.8747" stop-color="#683817"/>
<stop offset="0.9632" stop-color="#83471E"/>
<stop offset="1" stop-color="#904F22"/>
</linearGradient>
<linearGradient id="paint40_linear" x1="286.06" y1="164.67" x2="286.06" y2="198.673" gradientUnits="userSpaceOnUse">
<stop offset="0.3263" stop-color="#3A1E0B"/>
<stop offset="0.5372" stop-color="#3D1F0C"/>
<stop offset="0.6683" stop-color="#45240E"/>
<stop offset="0.7775" stop-color="#542D12"/>
<stop offset="0.8747" stop-color="#683817"/>
<stop offset="0.9632" stop-color="#83471E"/>
<stop offset="1" stop-color="#904F22"/>
</linearGradient>
<linearGradient id="paint41_linear" x1="290.874" y1="164.649" x2="290.874" y2="198.732" gradientUnits="userSpaceOnUse">
<stop offset="0.3263" stop-color="#3A1E0B"/>
<stop offset="0.5372" stop-color="#3D1F0C"/>
<stop offset="0.6683" stop-color="#45240E"/>
<stop offset="0.7775" stop-color="#542D12"/>
<stop offset="0.8747" stop-color="#683817"/>
<stop offset="0.9632" stop-color="#83471E"/>
<stop offset="1" stop-color="#904F22"/>
</linearGradient>
<linearGradient id="paint42_linear" x1="289.74" y1="164.651" x2="289.74" y2="198.731" gradientUnits="userSpaceOnUse">
<stop offset="0.3263" stop-color="#3A1E0B"/>
<stop offset="0.5372" stop-color="#3D1F0C"/>
<stop offset="0.6683" stop-color="#45240E"/>
<stop offset="0.7775" stop-color="#542D12"/>
<stop offset="0.8747" stop-color="#683817"/>
<stop offset="0.9632" stop-color="#83471E"/>
<stop offset="1" stop-color="#904F22"/>
</linearGradient>
<linearGradient id="paint43_linear" x1="288.588" y1="164.671" x2="288.588" y2="198.672" gradientUnits="userSpaceOnUse">
<stop offset="0.3263" stop-color="#3A1E0B"/>
<stop offset="0.5372" stop-color="#3D1F0C"/>
<stop offset="0.6683" stop-color="#45240E"/>
<stop offset="0.7775" stop-color="#542D12"/>
<stop offset="0.8747" stop-color="#683817"/>
<stop offset="0.9632" stop-color="#83471E"/>
<stop offset="1" stop-color="#904F22"/>
</linearGradient>
<linearGradient id="paint44_linear" x1="391.625" y1="163.144" x2="323.546" y2="163.144" gradientUnits="userSpaceOnUse">
<stop stop-color="#1DE4FF"/>
<stop offset="1" stop-color="#78EFFF"/>
</linearGradient>
<linearGradient id="paint45_linear" x1="73.2788" y1="79.6579" x2="-3.42171" y2="79.6579" gradientUnits="userSpaceOnUse">
<stop stop-color="#FF782D"/>
<stop offset="1" stop-color="#FFC601"/>
</linearGradient>
<clipPath id="clip0">
<rect width="131.193" height="136.184" fill="white" transform="translate(53.207 1.5051)"/>
</clipPath>
<clipPath id="clip1">
<rect width="108.443" height="111.974" fill="white" transform="translate(239.605 93.8504)"/>
</clipPath>
</defs>
</svg>
