<svg width="181" height="120" viewBox="0 0 181 120" fill="none" xmlns="http://www.w3.org/2000/svg">
<path d="M20.374 111.093C26.7063 111.093 31.8396 109.92 31.8396 93.8485C31.8396 87.6853 30.1534 80.226 28.0742 73.3712M28.0742 73.3712C27.4426 71.2888 25.8192 75.7287 25.1513 73.8111M28.0742 73.3712L25.1513 73.8111M25.1513 73.8111C23.6622 69.5355 22.4309 64.6119 21.5915 60.8676C21.3441 59.7641 19.3996 59.7636 19.1263 60.8609C18.5307 63.253 17.6927 66.2253 16.5521 69.5001C15.9097 71.3445 15.2673 67.3073 14.6572 68.8496C14.6034 68.9856 14.5493 69.122 14.479 69.2502C11.5791 74.5332 9.3996 84.3568 8.98123 90.725" stroke="#4657AE"/>
<path d="M38.957 43.2809V89.108M149.66 43.2809V58.0885M149.66 100.214V64.9817M38.957 100.214V92.1716M149.66 61.1522V61.9181" stroke="#4657AE" stroke-linecap="round" stroke-linejoin="round"/>
<path d="M80.8654 100.813H38.375C37.8227 100.813 37.375 101.261 37.375 101.813V110.093C37.375 110.645 37.8227 111.093 38.375 111.093H80.8654" stroke="#4657AE"/>
<path d="M107.746 100.813H150.236C150.789 100.813 151.236 101.261 151.236 101.813V110.092C151.236 110.645 150.789 111.092 150.236 111.092H107.746" stroke="#4657AE"/>
<path d="M35 26.8279C35 25.8436 35.7162 25.0057 36.6884 24.8523L93.2068 15.9392C93.4106 15.9071 93.6181 15.9067 93.8219 15.938L151.914 24.8581C152.89 25.008 153.61 25.8476 153.61 26.8349V41.0898C153.61 42.1944 152.715 43.0898 151.61 43.0898H37C35.8954 43.0898 35 42.1944 35 41.0898V26.8279Z" fill="#FFCE3A" stroke="#4657AE"/>
<path d="M50.7515 32.4599C50.3527 32.4599 50.0439 32.6103 49.8252 32.9111C49.6064 33.2096 49.4971 33.6266 49.4971 34.1621C49.4971 35.2763 49.9152 35.8335 50.7515 35.8335C51.1024 35.8335 51.5273 35.7457 52.0264 35.5703V36.459C51.6162 36.6299 51.1582 36.7153 50.6523 36.7153C49.9255 36.7153 49.3695 36.4954 48.9844 36.0556C48.5993 35.6136 48.4067 34.9801 48.4067 34.1553C48.4067 33.6357 48.5013 33.1811 48.6904 32.7915C48.8796 32.3996 49.1507 32.0999 49.5039 31.8926C49.8594 31.6829 50.2752 31.5781 50.7515 31.5781C51.2368 31.5781 51.7244 31.6955 52.2144 31.9302L51.8726 32.7915C51.6857 32.7026 51.4977 32.6251 51.3086 32.5591C51.1195 32.493 50.9338 32.4599 50.7515 32.4599ZM57.517 36.6469H56.3139L54.5023 34.1142V36.6469H53.4428V31.6499H54.5023V34.0698L56.2934 31.6499H57.4213L55.5995 34.0493L57.517 36.6469ZM61.555 36.6469L61.1927 35.4575H59.3709L59.0086 36.6469H57.867L59.6307 31.6294H60.9261L62.6966 36.6469H61.555ZM60.9397 34.5688C60.6048 33.491 60.4157 32.8815 60.3724 32.7402C60.3313 32.5989 60.3017 32.4873 60.2835 32.4053C60.2083 32.6969 59.993 33.4181 59.6375 34.5688H60.9397ZM64.7385 34.0014H65.0871C65.413 34.0014 65.6568 33.9376 65.8186 33.81C65.9803 33.6802 66.0612 33.4922 66.0612 33.2461C66.0612 32.9977 65.9929 32.8143 65.8562 32.6958C65.7217 32.5773 65.5098 32.518 65.2204 32.518H64.7385V34.0014ZM67.1311 33.2085C67.1311 33.7462 66.9624 34.1575 66.6252 34.4424C66.2902 34.7272 65.8129 34.8696 65.1931 34.8696H64.7385V36.6469H63.6789V31.6499H65.2751C65.8812 31.6499 66.3415 31.7809 66.656 32.0429C66.9727 32.3027 67.1311 32.6912 67.1311 33.2085ZM69.484 33.5674H69.901C70.5527 33.5674 71.0562 33.6995 71.4117 33.9638C71.7672 34.2282 71.9449 34.6019 71.9449 35.0849C71.9449 36.1263 71.2568 36.6469 69.8805 36.6469H68.4244V31.6499H71.5826V32.5249H69.484V33.5674ZM69.484 35.7788H69.8395C70.1972 35.7788 70.4592 35.7218 70.6256 35.6079C70.7919 35.4917 70.8751 35.3174 70.8751 35.0849C70.8751 34.8548 70.7908 34.6896 70.6222 34.5893C70.4535 34.4868 70.1642 34.4355 69.754 34.4355H69.484V35.7788ZM77.3398 36.6469H76.2837V34.4902H74.3047V36.6469H73.2451V31.6499H74.3047V33.6084H76.2837V31.6499H77.3398V36.6469ZM78.9545 31.6499H79.9081V34.063L79.8944 34.709L79.8603 35.4438H79.8808L82.1879 31.6499H83.456V36.6469H82.5126V34.2475C82.5126 33.9262 82.5331 33.45 82.5741 32.8188H82.5468L80.2294 36.6469H78.9545V31.6499ZM89.0218 35.8061H89.7669V38.103H88.7449V36.6469H85.0672V31.6499H86.1268V35.7651H87.9656V31.6499H89.0218V35.8061ZM92.5676 34.7295L91.3986 36.6469H90.2229L91.6447 34.4492C91.3622 34.3353 91.1457 34.1598 90.9953 33.9228C90.8449 33.6836 90.7697 33.4022 90.7697 33.0786C90.7697 32.6206 90.9315 32.2685 91.2551 32.0224C91.5809 31.7741 92.048 31.6499 92.6564 31.6499H94.2834V36.6469H93.2238V34.7295H92.5676ZM93.2238 32.518H92.7009C92.4274 32.518 92.2155 32.567 92.0651 32.665C91.9147 32.763 91.8396 32.9259 91.8396 33.1538C91.8396 33.3748 91.9125 33.5491 92.0583 33.6767C92.2041 33.8043 92.4274 33.8681 92.7282 33.8681H93.2238V32.518ZM102.014 36.6469H100.958V32.5317H99.7344L99.6797 32.9897C99.5384 34.1541 99.4131 34.9721 99.3037 35.4438C99.1966 35.9132 99.0394 36.2436 98.832 36.435C98.6247 36.6264 98.3444 36.7199 97.9912 36.7153C97.7998 36.7153 97.6312 36.6902 97.4854 36.6401V35.7719C97.6175 35.8175 97.7417 35.8403 97.8579 35.8403C97.9787 35.8403 98.0744 35.7856 98.145 35.6762C98.2157 35.5646 98.2817 35.3595 98.3433 35.061C98.4071 34.7602 98.4902 34.2692 98.5928 33.5879C98.6976 32.9043 98.7865 32.2583 98.8594 31.6499H102.014V36.6469ZM108.161 34.1416C108.161 34.9687 107.956 35.6045 107.546 36.0488C107.136 36.4931 106.548 36.7153 105.782 36.7153C105.017 36.7153 104.429 36.4931 104.018 36.0488C103.608 35.6045 103.403 34.9664 103.403 34.1347C103.403 33.303 103.608 32.6684 104.018 32.2309C104.431 31.7912 105.021 31.5713 105.789 31.5713C106.557 31.5713 107.144 31.7923 107.549 32.2344C107.957 32.6764 108.161 33.3122 108.161 34.1416ZM104.514 34.1416C104.514 34.6998 104.62 35.1203 104.832 35.4028C105.044 35.6854 105.361 35.8266 105.782 35.8266C106.628 35.8266 107.05 35.265 107.05 34.1416C107.05 33.0159 106.63 32.4531 105.789 32.4531C105.367 32.4531 105.05 32.5955 104.835 32.8803C104.621 33.1629 104.514 33.5833 104.514 34.1416ZM111.662 36.6469L110.459 32.7265H110.429C110.472 33.5241 110.493 34.0561 110.493 34.3227V36.6469H109.547V31.6499H110.989L112.172 35.4712H112.192L113.447 31.6499H114.889V36.6469H113.901V34.2817C113.901 34.1701 113.902 34.0413 113.905 33.8955C113.909 33.7497 113.925 33.3623 113.952 32.7334H113.922L112.633 36.6469H111.662ZM117.56 33.5674H117.977C118.628 33.5674 119.132 33.6995 119.488 33.9638C119.843 34.2282 120.021 34.6019 120.021 35.0849C120.021 36.1263 119.333 36.6469 117.956 36.6469H116.5V31.6499H119.658V32.5249H117.56V33.5674ZM117.56 35.7788H117.915C118.273 35.7788 118.535 35.7218 118.701 35.6079C118.868 35.4917 118.951 35.3174 118.951 35.0849C118.951 34.8548 118.867 34.6896 118.698 34.5893C118.529 34.4868 118.24 34.4355 117.83 34.4355H117.56V35.7788ZM124.38 36.6469L124.018 35.4575H122.196L121.834 36.6469H120.692L122.456 31.6294H123.751L125.522 36.6469H124.38ZM123.765 34.5688C123.43 33.491 123.241 32.8815 123.197 32.7402C123.156 32.5989 123.127 32.4873 123.108 32.4053C123.033 32.6969 122.818 33.4181 122.463 34.5688H123.765ZM127.563 34.0014H127.912C128.238 34.0014 128.482 33.9376 128.644 33.81C128.805 33.6802 128.886 33.4922 128.886 33.2461C128.886 32.9977 128.818 32.8143 128.681 32.6958C128.547 32.5773 128.335 32.518 128.045 32.518H127.563V34.0014ZM129.956 33.2085C129.956 33.7462 129.787 34.1575 129.45 34.4424C129.115 34.7272 128.638 34.8696 128.018 34.8696H127.563V36.6469H126.504V31.6499H128.1C128.706 31.6499 129.167 31.7809 129.481 32.0429C129.798 32.3027 129.956 32.6912 129.956 33.2085ZM130.655 35.7651H131.041C131.371 35.1043 131.632 34.4446 131.824 33.7861C132.015 33.1253 132.157 32.4132 132.251 31.6499H135.163V35.7651H135.829V38.103H134.808V36.6469H131.677V38.103H130.655V35.7651ZM133.092 32.5317C133.019 33.0535 132.897 33.6061 132.726 34.1894C132.557 34.7728 132.367 35.298 132.155 35.7651H134.107V32.5317H133.092Z" fill="#4657AE"/>
<path d="M9.69867 111.092H163.496M179.706 111.092H167.845" stroke="#4657AE" stroke-linecap="round"/>
<path d="M9.69867 119H35.7929H55.5612M179.706 119H59.1195" stroke="#4657AE" stroke-linecap="round"/>
<rect x="46.0703" y="51.7872" width="27.0137" height="43.6375" rx="3" stroke="#4657AE"/>
<path d="M80.8626 53.7873C80.8626 52.6828 81.758 51.7873 82.8626 51.7873H105.748C106.852 51.7873 107.748 52.6828 107.748 53.7873V111.092H80.8626V53.7873Z" stroke="#4657AE"/>
<rect x="114.866" y="51.7873" width="27.0137" height="43.6375" rx="3" stroke="#4657AE"/>
<circle cx="10.0934" cy="101.999" r="9.09344" stroke="#4657AE"/>
<path d="M176.543 111.093V45.8571C176.543 42.1451 173.534 39.1359 169.822 39.1359H169.642C166.029 39.1359 163.1 42.0646 163.1 45.6774V45.6774" stroke="#4657AE" stroke-linecap="round" stroke-linejoin="round"/>
<path fill-rule="evenodd" clip-rule="evenodd" d="M157.58 51.7877H170.232C170.015 46.4887 167.266 42.2985 163.906 42.2985C160.547 42.2985 157.798 46.4887 157.58 51.7877Z" fill="#FFCE3A"/>
<path d="M157.58 51.7877L157.081 51.7672C157.075 51.9033 157.125 52.0357 157.22 52.134C157.314 52.2322 157.444 52.2877 157.58 52.2877V51.7877ZM170.232 51.7877V52.2877C170.368 52.2877 170.498 52.2322 170.593 52.134C170.687 52.0357 170.737 51.9033 170.732 51.7672L170.232 51.7877ZM157.58 52.2877H170.232V51.2877H157.58V52.2877ZM163.906 42.7985C165.361 42.7985 166.752 43.706 167.831 45.3324C168.906 46.9538 169.627 49.2338 169.732 51.8082L170.732 51.7672C170.62 49.0425 169.857 46.578 168.664 44.7795C167.474 42.9861 165.811 41.7985 163.906 41.7985V42.7985ZM158.08 51.8082C158.185 49.2338 158.906 46.9538 159.982 45.3324C161.061 43.706 162.452 42.7985 163.906 42.7985V41.7985C162.001 41.7985 160.338 42.9861 159.148 44.7795C157.955 46.578 157.192 49.0425 157.081 51.7672L158.08 51.8082Z" fill="#4657AE"/>
<path d="M129.496 68.3932L138.985 58.9044" stroke="#4657AE" stroke-linecap="round"/>
<path d="M122.409 80.621L136.586 66.4443" stroke="#4657AE" stroke-linecap="round"/>
<path d="M51.6059 87.3707L61.0947 77.8819" stroke="#4657AE" stroke-linecap="round"/>
<path d="M52.4258 81.3834L66.6025 67.2067" stroke="#4657AE" stroke-linecap="round"/>
<path d="M103.003 79.4632L103.003 84.2076" stroke="#4657AE" stroke-linecap="round"/>
<rect x="81.3405" y="1.20269" width="25.5946" height="25.5946" rx="4.5" fill="#282F6C" stroke="#4657AE"/>
<path d="M81.741 21.6751V22.515C81.741 24.6593 83.4755 26.3926 85.6213 26.3926H102.663C104.808 26.3926 106.525 24.6593 106.525 22.515V21.6751H81.741Z" fill="#FAB400"/>
<path d="M86.2291 11.4716L84.0296 9.23793L84.0654 9.20219L86.2291 6.96851L88.6252 4.48466L89.3941 3.69841H98.7999L99.5331 4.44893L101.965 6.9149L104.218 9.22006L104.236 9.2558L101.947 11.5967L99.5152 14.0984L98.1025 15.5637L97.6555 16.0283L96.5647 17.1541L95.617 18.119L94.6692 19.1018L94.1507 19.6201L94.0076 19.4771L93.3996 18.8517L92.5056 17.9403L91.5757 16.9933L90.1809 15.5637L88.6073 13.9733L86.2291 11.4716ZM102.859 8.91628L101.947 8.04068L101.232 7.34377V8.93415L102.859 8.91628ZM99.2827 12.9548L99.5331 12.7046L101.965 10.2922L102.555 9.7204H101.017L99.5331 12.4902L99.2827 12.9548ZM98.1204 8.75545H99.0503L98.1204 7.91559L97.6734 7.52246L96.8508 6.78982L97.4052 8.75545H98.1204ZM97.6734 13.062L96.5826 14.1699L96.2965 14.4558L95.6527 16.1713L95.1699 17.4579L95.6527 16.9218L96.6005 15.9032L97.6913 14.7238L98.0131 14.3665L98.1383 14.0627L99.1576 11.6146L98.1383 12.6331L97.6734 13.062ZM96.8508 5.43174L97.6555 4.85992L97.9774 4.62762L97.6555 4.66336L96.5647 4.77057L96.2786 4.80631L96.5647 5.12796L96.8508 5.43174ZM97.3336 6.23587L97.6555 6.52178L98.1025 6.9149L99.5331 8.14789L100.427 8.91628V6.62899L99.5331 5.68191L98.7999 4.89566L98.1025 5.52109L97.6555 5.93209L97.3336 6.23587ZM96.5647 8.75545H96.7614L96.5647 8.25511L96.1892 7.34377L95.617 8.00494L94.9732 8.75545H96.5647ZM96.4395 13.2585L96.5647 13.1335L97.6555 11.9898L98.1025 11.5252L99.5152 10.0421L99.7655 9.79188H97.5661L96.5647 12.9012L96.4395 13.2585ZM94.5798 9.79188L94.6871 10.2922L95.4024 13.5981L95.6349 12.8833L96.5826 10.1493L96.7078 9.79188H94.5798ZM94.0613 11.4716L94.0255 11.6324L93.4175 14.3843L93.2566 15.117L93.4175 15.6888L94.0255 17.8331L94.0613 17.9582L94.6871 15.385L94.7944 14.9561L94.6871 14.4558L94.0613 11.4716ZM93.3996 7.71903L94.0076 8.36233L94.0792 8.4338L94.6692 7.79051L95.617 6.75408L96.2607 6.07504L95.617 5.396L94.9732 4.71697H93.1135L92.5056 5.41387L91.8976 6.12865L92.5056 6.77195L93.3996 7.71903ZM92.7559 13.6159L93.3996 10.5781L93.5606 9.82762H91.4505L91.5757 10.185L92.5056 12.919L92.7559 13.6159ZM92.5056 8.79119H93.1672L92.5056 8.04068L91.9512 7.37951L91.5757 8.29085L91.3611 8.80906L92.5056 8.79119ZM91.2896 5.46748L91.5757 5.14583L91.8618 4.82418L91.5757 4.80631L90.1809 4.68123H90.1631L90.1809 4.6991L91.2896 5.46748ZM91.5757 15.939L92.5056 16.9575L93.0062 17.4936L92.5056 16.207L91.8618 14.4915L91.5757 14.2056L90.1809 12.8118L89.0186 11.6503L90.1631 14.4201L90.1809 14.4379L91.5757 15.939ZM90.7353 8.79119L91.3075 6.80769L90.1988 7.80837L89.1259 8.77332H90.7353V8.79119ZM90.1988 6.80769L90.8247 6.27161L90.1988 5.69978L89.3405 4.9314L88.6073 5.71765L87.7133 6.6826V8.96989L88.6073 8.18363L90.1988 6.80769ZM88.3749 9.82762L88.6073 10.0778L90.1809 11.7218L91.5757 13.1871L91.7009 13.3122L91.5757 12.9369L90.5565 9.82762H88.3749ZM87.1589 9.75614H85.6211L86.2291 10.3637L88.6252 12.7582L88.8756 12.9905L88.6252 12.5259L87.1589 9.75614ZM86.9086 8.95202V7.36164L86.2291 8.04068L85.2992 8.95202H86.9086Z" fill="white"/>
<path d="M84.0297 24.7129V23.3727H84.3337H85.1562H85.4781V24.7129H85.1562V23.6407H84.3337V24.7129H84.0297Z" fill="#103755"/>
<path d="M87.2485 24.2483C87.2485 24.3198 87.2485 24.3912 87.2306 24.4627C87.2128 24.5163 87.1949 24.5699 87.1591 24.6057C87.1233 24.6414 87.0697 24.6771 87.0161 24.6771C86.9445 24.695 86.8551 24.695 86.7836 24.695H86.1935C86.122 24.695 86.0326 24.695 85.961 24.6771C85.9074 24.6593 85.8537 24.6414 85.818 24.5878C85.7822 24.5521 85.7465 24.4985 85.7286 24.4448C85.7107 24.3734 85.6928 24.3019 85.6928 24.2304V23.8194C85.6928 23.7479 85.6928 23.6586 85.7286 23.5871C85.7465 23.5335 85.7643 23.4799 85.818 23.4442C85.8537 23.4084 85.9074 23.3906 85.961 23.3727C86.0326 23.3548 86.122 23.3548 86.1935 23.3548H86.7836C86.873 23.3548 86.9624 23.3727 87.0518 23.3906C87.1233 23.4084 87.177 23.462 87.2128 23.5335C87.2485 23.6229 87.2664 23.7301 87.2664 23.8194V24.2483H87.2485ZM85.9968 24.2304C85.9968 24.284 85.9968 24.3198 86.0147 24.3734C86.0326 24.4091 86.0504 24.427 86.0862 24.4448C86.1399 24.4627 86.1935 24.4627 86.2293 24.4627H86.6584C86.7121 24.4627 86.7657 24.4627 86.8194 24.4448C86.8551 24.427 86.873 24.4091 86.8909 24.3734C86.9088 24.3198 86.9088 24.284 86.9088 24.2304V23.8909C86.9088 23.8373 86.9088 23.7837 86.8909 23.7479C86.873 23.7122 86.8551 23.6943 86.8194 23.6765C86.7657 23.6586 86.7121 23.6586 86.6584 23.6586H86.2471C86.1935 23.6586 86.1399 23.6586 86.0862 23.6765C86.0504 23.6943 86.0326 23.7122 86.0147 23.7479C85.9968 23.8015 85.9968 23.8373 85.9968 23.8909V24.2304Z" fill="#103755"/>
<path d="M87.8563 24.7129C87.7669 24.7129 87.6775 24.695 87.5881 24.6771C87.5344 24.6593 87.4808 24.6057 87.445 24.552C87.4092 24.4806 87.3914 24.4091 87.4092 24.3376H87.7311C87.7311 24.3734 87.749 24.4091 87.7848 24.427C87.8205 24.4448 87.8563 24.4627 87.892 24.4627H88.4285C88.4821 24.4627 88.5358 24.4627 88.5894 24.427C88.6252 24.3912 88.6431 24.3555 88.6431 24.3197C88.6431 24.284 88.6431 24.2661 88.6252 24.2304C88.6073 24.2125 88.5894 24.1947 88.5537 24.1768C88.5179 24.1589 88.4643 24.1589 88.4106 24.1589H87.8205V23.9266H88.4285C88.5 23.9445 88.5715 23.8909 88.5894 23.8194C88.5894 23.8015 88.5894 23.7837 88.5894 23.7837C88.5894 23.6943 88.5358 23.6407 88.4285 23.6407H87.892C87.8563 23.6407 87.8026 23.6407 87.7669 23.6765C87.749 23.6943 87.7311 23.7301 87.7311 23.7658H87.4092C87.4092 23.6943 87.4271 23.6228 87.4629 23.5514C87.4986 23.4978 87.5523 23.4442 87.6059 23.4263C87.6953 23.3905 87.7848 23.3905 87.8742 23.3905H88.4106C88.5 23.3905 88.6073 23.4084 88.6967 23.4263C88.7682 23.4442 88.8219 23.4978 88.8577 23.5514C88.8934 23.6228 88.9113 23.6943 88.9113 23.7658C88.9113 23.8373 88.8934 23.8909 88.8577 23.9445C88.8219 23.9802 88.7861 24.016 88.7325 24.0338C88.7861 24.0517 88.8398 24.0874 88.8755 24.1411C88.9113 24.1947 88.9292 24.2483 88.9292 24.3197C88.9292 24.3912 88.9113 24.4806 88.8755 24.552C88.8398 24.6057 88.7861 24.6593 88.7325 24.6771C88.6431 24.7129 88.5715 24.7307 88.4821 24.7129H87.8563Z" fill="#103755"/>
<path d="M90.5567 24.7129V23.6407H90.5209L89.7163 24.7129H89.1798V23.3727H89.5017V24.4448H89.5374L90.3421 23.3727H90.8786V24.7129H90.5567Z" fill="#103755"/>
<path d="M91.1284 24.7129V23.3727H91.4503V23.873H91.6291L92.2192 23.3727H92.6842L91.8974 23.9981L92.7199 24.7129H92.255L91.6291 24.1411H91.4503V24.7129H91.1284Z" fill="#103755"/>
<path d="M94.2578 24.7129V23.6407H94.2221L93.4174 24.7129H92.881V23.3727H93.1849V24.4448H93.2386L94.0433 23.3727H94.5797V24.7129H94.2578Z" fill="#103755"/>
<path d="M95.8853 24.7129C95.7959 24.7129 95.7065 24.695 95.617 24.6771C95.5634 24.6593 95.5098 24.6057 95.474 24.5521C95.4382 24.4806 95.4203 24.4091 95.4382 24.3376H95.778C95.778 24.3734 95.7959 24.4091 95.8316 24.427C95.8674 24.4448 95.9032 24.4627 95.9389 24.4627H96.4754C96.529 24.4627 96.5827 24.4627 96.6363 24.427C96.6721 24.3912 96.6899 24.3555 96.6721 24.3019C96.6721 24.2661 96.6721 24.2483 96.6542 24.2125C96.6363 24.1947 96.6184 24.1768 96.5827 24.1589C96.5469 24.1411 96.4932 24.1411 96.4396 24.1411H95.8495V23.9088H96.4754C96.5469 23.9266 96.6184 23.873 96.6363 23.8015C96.6363 23.7837 96.6363 23.7658 96.6363 23.7658C96.6363 23.6765 96.5827 23.6229 96.4754 23.6229H95.9389C95.9032 23.6229 95.8495 23.6229 95.8137 23.6586C95.7959 23.6765 95.778 23.7122 95.778 23.7479H95.4561C95.4561 23.6765 95.474 23.605 95.5098 23.5335C95.5455 23.4799 95.5992 23.4263 95.6528 23.4084C95.7422 23.3727 95.8316 23.3727 95.9032 23.3727H96.4396C96.529 23.3727 96.6363 23.3905 96.7257 23.4084C96.7972 23.4263 96.8509 23.4799 96.8866 23.5335C96.9224 23.605 96.9403 23.6765 96.9403 23.7479C96.9403 23.8194 96.9224 23.873 96.8866 23.9266C96.8509 23.9624 96.8151 23.9981 96.7615 24.0338C96.8151 24.0517 96.8688 24.0875 96.9045 24.1232C96.9403 24.1768 96.9582 24.2304 96.9582 24.3019C96.9582 24.3734 96.9403 24.4627 96.9045 24.5342C96.8688 24.5878 96.8151 24.6414 96.7615 24.6593C96.6721 24.695 96.6005 24.7129 96.5111 24.695H95.8853V24.7129Z" fill="#103755"/>
<path d="M98.8355 24.7129H98.5136V23.6586H98.4063L98.0487 23.9445L97.8878 23.6943L98.299 23.3727H98.8355V24.7129Z" fill="#103755"/>
<path d="M100.374 24.4627C100.427 24.4627 100.481 24.4627 100.535 24.4448C100.57 24.4448 100.588 24.4091 100.606 24.3912C100.624 24.3555 100.642 24.3198 100.624 24.284V24.1053C100.606 24.1232 100.588 24.1411 100.552 24.1589C100.517 24.1768 100.481 24.1947 100.445 24.1947C100.391 24.2125 100.32 24.2125 100.266 24.2125H100.016C99.9087 24.2125 99.8193 24.2125 99.712 24.1768C99.6404 24.1589 99.5689 24.1232 99.5331 24.0517C99.4974 23.9802 99.4616 23.9088 99.4795 23.8194C99.4795 23.7301 99.4795 23.6586 99.4974 23.5692C99.5153 23.5156 99.5331 23.462 99.5689 23.4263C99.6047 23.3906 99.6583 23.3548 99.712 23.3548C99.8014 23.3369 99.8729 23.3369 99.9623 23.3369H100.427C100.517 23.3369 100.606 23.3548 100.695 23.3727C100.767 23.3906 100.821 23.4442 100.856 23.4978C100.892 23.5514 100.91 23.6407 100.91 23.7122V24.3019C100.928 24.4091 100.874 24.5163 100.803 24.6057C100.695 24.6771 100.552 24.7129 100.427 24.695H99.9623C99.8729 24.695 99.7656 24.6771 99.6762 24.6593C99.6047 24.6414 99.551 24.5878 99.5153 24.5342C99.4795 24.4627 99.4616 24.3912 99.4616 24.3198H99.7656C99.7656 24.3555 99.7656 24.3734 99.7835 24.4091C99.8014 24.427 99.8193 24.4448 99.855 24.4448C99.9087 24.4448 99.9444 24.4448 99.9981 24.4448L100.374 24.4627ZM99.8193 23.7837C99.8193 23.8373 99.8371 23.8909 99.8729 23.9266C99.9265 23.9624 99.9981 23.9802 100.07 23.9802H100.409C100.463 23.9802 100.517 23.9802 100.552 23.9624C100.588 23.9445 100.606 23.9266 100.624 23.8909C100.642 23.8552 100.642 23.8194 100.642 23.7837C100.642 23.7301 100.624 23.6943 100.588 23.6586C100.535 23.6229 100.463 23.605 100.391 23.6229H100.07C99.9981 23.6229 99.9444 23.6229 99.8729 23.6586C99.8193 23.6943 99.8014 23.7301 99.8193 23.7837Z" fill="#103755"/>
<path d="M102.019 24.4627C102.072 24.4627 102.126 24.4627 102.18 24.4448C102.215 24.4448 102.233 24.4091 102.251 24.3912C102.269 24.3555 102.287 24.3198 102.269 24.284V24.1053C102.251 24.1232 102.233 24.1411 102.198 24.1589C102.162 24.1768 102.126 24.1947 102.09 24.1947C102.037 24.2125 101.965 24.2125 101.911 24.2125H101.679C101.572 24.2125 101.482 24.2125 101.375 24.1768C101.303 24.1589 101.232 24.1232 101.196 24.0517C101.16 23.9802 101.125 23.9088 101.143 23.8194C101.143 23.7301 101.143 23.6586 101.16 23.5692C101.178 23.5156 101.196 23.462 101.232 23.4263C101.268 23.3906 101.321 23.3548 101.375 23.3548C101.464 23.3369 101.536 23.3369 101.625 23.3369H102.09C102.18 23.3369 102.269 23.3548 102.359 23.3727C102.43 23.3906 102.484 23.4442 102.519 23.4978C102.555 23.5514 102.573 23.6407 102.573 23.7122V24.3019C102.591 24.4091 102.537 24.5163 102.466 24.6057C102.359 24.6771 102.215 24.7129 102.09 24.695H101.625C101.536 24.695 101.429 24.6771 101.339 24.6593C101.268 24.6414 101.214 24.5878 101.178 24.5342C101.143 24.4627 101.125 24.3912 101.125 24.3198H101.429C101.429 24.3555 101.429 24.3734 101.447 24.4091C101.464 24.427 101.482 24.4448 101.518 24.4448C101.572 24.4448 101.607 24.4448 101.661 24.4448L102.019 24.4627ZM101.464 23.7837C101.464 23.8373 101.482 23.8909 101.518 23.9266C101.572 23.9624 101.643 23.9802 101.715 23.9802H102.055C102.108 23.9802 102.162 23.9802 102.198 23.9624C102.233 23.9445 102.251 23.9266 102.269 23.8909C102.287 23.8552 102.287 23.8194 102.287 23.7837C102.287 23.7301 102.269 23.6943 102.233 23.6586C102.18 23.6229 102.108 23.605 102.037 23.6229H101.715C101.643 23.6229 101.59 23.6229 101.518 23.6586C101.482 23.6943 101.464 23.7301 101.464 23.7837Z" fill="#103755"/>
<path d="M104.236 23.8194C104.236 23.8909 104.218 23.9802 104.182 24.0517C104.146 24.1053 104.093 24.1589 104.021 24.1947C103.95 24.2304 103.86 24.2483 103.771 24.2483L103.36 24.2662C103.306 24.2662 103.27 24.2662 103.216 24.284C103.199 24.284 103.163 24.3019 103.145 24.3198C103.127 24.3376 103.127 24.3734 103.127 24.3912V24.4627H104.254V24.7129H102.805V24.4091C102.805 24.3555 102.805 24.3019 102.823 24.2483C102.841 24.2125 102.859 24.1589 102.895 24.1232C102.93 24.0875 102.984 24.0517 103.038 24.0339C103.127 23.9981 103.216 23.9981 103.288 23.9802L103.717 23.9624C103.771 23.9624 103.842 23.9445 103.878 23.9088C103.914 23.873 103.932 23.8194 103.932 23.7658C103.932 23.7301 103.932 23.6943 103.914 23.6586C103.896 23.6407 103.86 23.6229 103.842 23.605C103.789 23.5871 103.735 23.5871 103.681 23.5871H103.467C103.395 23.5871 103.324 23.5871 103.252 23.605C103.216 23.605 103.181 23.6407 103.163 23.6765C103.145 23.7301 103.145 23.7837 103.145 23.8373H102.823C102.823 23.7479 102.841 23.6586 102.859 23.5692C102.877 23.4978 102.93 23.4442 103.002 23.4084C103.091 23.3548 103.199 23.3369 103.306 23.3548H103.789C103.86 23.3548 103.95 23.3548 104.021 23.3727C104.075 23.3906 104.128 23.4084 104.164 23.4442C104.2 23.4799 104.236 23.5335 104.236 23.5692C104.236 23.6765 104.236 23.7479 104.236 23.8194Z" fill="#103755"/>
</svg>
