<svg width="42" height="34" viewBox="0 0 42 34" fill="none" xmlns="http://www.w3.org/2000/svg">
<path d="M33.8782 14.6359C34.178 15.1006 34.4819 15.5653 34.7901 16.0301C35.0899 16.4948 35.3938 16.9596 35.7019 17.4243C35.7602 17.5055 35.8393 17.5903 35.9393 17.6788C36.0392 17.76 36.1724 17.8006 36.339 17.8006C36.5139 17.8006 36.6679 17.7415 36.8012 17.6235C36.9344 17.5055 37.001 17.3727 37.001 17.2252C37.001 17.1661 36.9927 17.1108 36.976 17.0592C36.9511 17.0002 36.9261 16.9522 36.9011 16.9153C36.5264 16.3621 36.1558 15.8162 35.7894 15.2776C35.423 14.7391 35.0524 14.1969 34.6776 13.651L36.7137 10.6745C36.772 10.5712 36.8012 10.4679 36.8012 10.3646C36.8012 10.2171 36.7387 10.088 36.6138 9.97734C36.4806 9.85931 36.3265 9.80029 36.1516 9.80029C35.9934 9.80029 35.856 9.84455 35.7394 9.93308C35.6228 10.0216 35.5271 10.1249 35.4521 10.2429L33.8782 12.6552L32.3043 10.2429C32.2377 10.147 32.1461 10.0511 32.0295 9.95521C31.9046 9.85931 31.7588 9.80767 31.5923 9.80029C31.4257 9.80029 31.28 9.85562 31.1551 9.96627C31.0218 10.0769 30.9552 10.2134 30.9552 10.3757C30.9552 10.4568 30.9844 10.5564 31.0427 10.6745L33.0663 13.651L30.8553 16.9153C30.8303 16.9522 30.8095 17.0002 30.7928 17.0592C30.7678 17.1108 30.7554 17.1661 30.7554 17.2252C30.7554 17.3727 30.822 17.5055 30.9552 17.6235C31.0885 17.7415 31.2384 17.8006 31.4049 17.8006C31.5715 17.8006 31.7047 17.7637 31.8046 17.6899C31.9046 17.6088 31.9878 17.5202 32.0545 17.4243L33.8782 14.6359Z" fill="#4657AE"/>
<path d="M25.2931 14.6359C25.5929 15.1006 25.8968 15.5653 26.2049 16.0301C26.5047 16.4948 26.8087 16.9596 27.1168 17.4243C27.1751 17.5055 27.2542 17.5903 27.3541 17.6788C27.4541 17.76 27.5873 17.8006 27.7539 17.8006C27.9287 17.8006 28.0828 17.7415 28.216 17.6235C28.3493 17.5055 28.4159 17.3727 28.4159 17.2252C28.4159 17.1661 28.4076 17.1108 28.3909 17.0592C28.3659 17.0002 28.341 16.9522 28.316 16.9153C27.9412 16.3621 27.5707 15.8162 27.2042 15.2776C26.8378 14.7391 26.4673 14.1969 26.0925 13.651L28.1286 10.6745C28.1869 10.5712 28.216 10.4679 28.216 10.3646C28.216 10.2171 28.1536 10.088 28.0287 9.97734C27.8954 9.85931 27.7414 9.80029 27.5665 9.80029C27.4083 9.80029 27.2709 9.84455 27.1543 9.93308C27.0377 10.0216 26.9419 10.1249 26.867 10.2429L25.2931 12.6552L23.7192 10.2429C23.6525 10.147 23.5609 10.0511 23.4444 9.95521C23.3194 9.85931 23.1737 9.80767 23.0072 9.80029C22.8406 9.80029 22.6949 9.85562 22.57 9.96627C22.4367 10.0769 22.3701 10.2134 22.3701 10.3757C22.3701 10.4568 22.3992 10.5564 22.4575 10.6745L24.4811 13.651L22.2702 16.9153C22.2452 16.9522 22.2244 17.0002 22.2077 17.0592C22.1827 17.1108 22.1702 17.1661 22.1702 17.2252C22.1702 17.3727 22.2369 17.5055 22.3701 17.6235C22.5033 17.7415 22.6532 17.8006 22.8198 17.8006C22.9863 17.8006 23.1196 17.7637 23.2195 17.6899C23.3194 17.6088 23.4027 17.5202 23.4693 17.4243L25.2931 14.6359Z" fill="#4657AE"/>
<path d="M16.708 14.6359C17.0077 15.1006 17.3117 15.5653 17.6198 16.0301C17.9196 16.4948 18.2236 16.9596 18.5317 17.4243C18.59 17.5055 18.6691 17.5903 18.769 17.6788C18.869 17.76 19.0022 17.8006 19.1687 17.8006C19.3436 17.8006 19.4977 17.7415 19.6309 17.6235C19.7642 17.5055 19.8308 17.3727 19.8308 17.2252C19.8308 17.1661 19.8225 17.1108 19.8058 17.0592C19.7808 17.0002 19.7558 16.9522 19.7309 16.9153C19.3561 16.3621 18.9855 15.8162 18.6191 15.2776C18.2527 14.7391 17.8821 14.1969 17.5074 13.651L19.5435 10.6745C19.6018 10.5712 19.6309 10.4679 19.6309 10.3646C19.6309 10.2171 19.5685 10.088 19.4436 9.97734C19.3103 9.85931 19.1563 9.80029 18.9814 9.80029C18.8232 9.80029 18.6858 9.84455 18.5692 9.93308C18.4526 10.0216 18.3568 10.1249 18.2819 10.2429L16.708 12.6552L15.134 10.2429C15.0674 10.147 14.9758 10.0511 14.8592 9.95521C14.7343 9.85931 14.5886 9.80767 14.422 9.80029C14.2555 9.80029 14.1098 9.85562 13.9848 9.96627C13.8516 10.0769 13.785 10.2134 13.785 10.3757C13.785 10.4568 13.8141 10.5564 13.8724 10.6745L15.896 13.651L13.685 16.9153C13.6601 16.9522 13.6392 17.0002 13.6226 17.0592C13.5976 17.1108 13.5851 17.1661 13.5851 17.2252C13.5851 17.3727 13.6517 17.5055 13.785 17.6235C13.9182 17.7415 14.0681 17.8006 14.2347 17.8006C14.4012 17.8006 14.5345 17.7637 14.6344 17.6899C14.7343 17.6088 14.8176 17.5202 14.8842 17.4243L16.708 14.6359Z" fill="#4657AE"/>
<path d="M8.12284 14.6359C8.42263 15.1006 8.72659 15.5653 9.03471 16.0301C9.3345 16.4948 9.63845 16.9596 9.94657 17.4243C10.0049 17.5055 10.084 17.5903 10.1839 17.6788C10.2838 17.76 10.4171 17.8006 10.5836 17.8006C10.7585 17.8006 10.9126 17.7415 11.0458 17.6235C11.1791 17.5055 11.2457 17.3727 11.2457 17.2252C11.2457 17.1661 11.2373 17.1108 11.2207 17.0592C11.1957 17.0002 11.1707 16.9522 11.1457 16.9153C10.771 16.3621 10.4004 15.8162 10.034 15.2776C9.6676 14.7391 9.29702 14.1969 8.92228 13.651L10.9584 10.6745C11.0167 10.5712 11.0458 10.4679 11.0458 10.3646C11.0458 10.2171 10.9834 10.088 10.8584 9.97734C10.7252 9.85931 10.5711 9.80029 10.3963 9.80029C10.238 9.80029 10.1006 9.84455 9.98405 9.93308C9.86746 10.0216 9.7717 10.1249 9.69675 10.2429L8.12284 12.6552L6.54893 10.2429C6.48231 10.147 6.3907 10.0511 6.27412 9.95521C6.1492 9.85931 6.00347 9.80767 5.83692 9.80029C5.67037 9.80029 5.52464 9.85562 5.39972 9.96627C5.26648 10.0769 5.19986 10.2134 5.19986 10.3757C5.19986 10.4568 5.22901 10.5564 5.2873 10.6745L7.3109 13.651L5.09993 16.9153C5.07495 16.9522 5.05413 17.0002 5.03747 17.0592C5.01249 17.1108 5 17.1661 5 17.2252C5 17.3727 5.06662 17.5055 5.19986 17.6235C5.3331 17.7415 5.483 17.8006 5.64955 17.8006C5.8161 17.8006 5.94934 17.7637 6.04927 17.6899C6.1492 17.6088 6.23248 17.5202 6.2991 17.4243L8.12284 14.6359Z" fill="#4657AE"/>
<path d="M41 7.51429V5C41 2.79086 39.2091 1 37 1H18.1429H5C2.79086 1 1 2.79086 1 5V22.2571C1 24.4663 2.79086 26.2571 5 26.2571H11.3571H11.6699C12.124 26.2571 12.5646 26.4117 12.9193 26.6954L19.9081 32.2865C20.6048 32.8438 21.6272 32.2791 21.5264 31.3927L21.1958 28.483C21.061 27.2966 21.989 26.2571 23.183 26.2571H37C39.2091 26.2571 41 24.4663 41 22.2571V14.6M41 10.7143V11.8" stroke="#4657AE" stroke-linecap="round"/>
</svg>
